<svg width="713" height="937" viewBox="0 0 713 937" fill="none" xmlns="http://www.w3.org/2000/svg">
<path d="M465.894 330.18C451.464 299.1 403.714 354.81 382.594 387.19C379.814 391.45 375.114 394.05 370.034 394.15L359.174 394.37L351.294 393.98C346.374 393.74 341.864 391.16 339.184 387.04C318.144 354.69 270.194 298.63 255.724 329.79C240.224 363.18 256.914 419.83 287.624 427.58C309.184 433.02 329.424 419.28 339.564 410.62C344.454 406.45 350.674 404.17 357.094 404.17H359.214L364.834 404.31C371.054 404.46 377.064 406.72 381.784 410.78C391.834 419.43 412.244 433.47 433.994 427.98C464.704 420.23 481.394 363.58 465.894 330.19V330.18Z" fill="#FF8FF8"/>
<path d="M423.924 431.71C405.394 431.71 389.034 420.31 380.154 412.67C375.924 409.03 370.464 406.94 364.774 406.8L359.154 406.66H357.094C351.244 406.66 345.594 408.74 341.184 412.51C330.674 421.49 309.654 435.71 287.004 430C274.864 426.94 264.064 416.6 256.584 400.9C245.484 377.6 244.224 348.6 253.444 328.74C256.484 322.18 261.094 318.64 267.124 318.21C290.874 316.52 328.684 366.34 341.264 385.68C343.494 389.12 347.284 391.29 351.404 391.49L359.204 391.87L369.974 391.65C374.234 391.56 378.164 389.39 380.484 385.83C393.054 366.56 430.854 316.92 454.474 318.61C460.504 319.04 465.104 322.58 468.144 329.14C477.364 349 476.104 378 465.004 401.3C457.524 417.01 446.724 427.34 434.584 430.4C430.974 431.31 427.394 431.72 423.904 431.72L423.924 431.71ZM357.094 401.67H359.214L364.894 401.81C371.734 401.98 378.314 404.49 383.414 408.89C391.714 416.04 406.964 426.72 423.924 426.72C427.034 426.72 430.194 426.36 433.384 425.56C444.054 422.87 453.684 413.49 460.514 399.15C470.844 377.46 472.124 349.54 463.634 331.24C461.384 326.39 458.274 323.89 454.144 323.6C435.254 322.25 401.544 362.73 384.694 388.57C381.464 393.52 376.014 396.54 370.094 396.66L359.234 396.88C359.174 396.88 359.114 396.88 359.064 396.88L351.184 396.49C345.474 396.21 340.204 393.19 337.104 388.41C318.994 360.57 285.404 321.89 267.514 323.2C263.374 323.49 260.264 325.99 258.014 330.84C249.524 349.13 250.804 377.06 261.134 398.75C267.964 413.09 277.594 422.46 288.264 425.16C308.724 430.32 328.184 417.08 337.964 408.72C343.284 404.18 350.084 401.68 357.124 401.68L357.094 401.67Z" fill="#232323"/>
<path d="M321.884 383.45C297.574 356.81 259.894 324.57 261.534 362.58C263.174 400.59 279.424 423.85 304.764 418.18C330.104 412.51 336.164 399.1 321.884 383.45Z" fill="#232323"/>
<path d="M396.834 383.45C421.144 356.81 458.824 324.57 457.184 362.58C455.544 400.59 439.294 423.85 413.954 418.18C388.614 412.52 382.554 399.1 396.834 383.45Z" fill="#232323"/>
</svg>
