<svg width="713" height="937" viewBox="0 0 713 937" fill="none" xmlns="http://www.w3.org/2000/svg">
<path d="M319.154 369.484H270.064C262.492 369.484 256.354 375.623 256.354 383.194V418.964C256.354 426.536 262.492 432.674 270.064 432.674H319.154C326.725 432.674 332.864 426.536 332.864 418.964V383.194C332.864 375.623 326.725 369.484 319.154 369.484Z" fill="#B898DA"/>
<path d="M319.154 435.175H270.064C261.124 435.175 253.854 427.905 253.854 418.965V383.185C253.854 374.245 261.124 366.975 270.064 366.975H319.154C328.094 366.975 335.364 374.245 335.364 383.185V418.965C335.364 427.905 328.094 435.175 319.154 435.175ZM270.054 371.985C263.874 371.985 258.844 377.015 258.844 383.195V418.975C258.844 425.155 263.874 430.185 270.054 430.185H319.144C325.324 430.185 330.354 425.155 330.354 418.975V383.195C330.354 377.015 325.324 371.985 319.144 371.985H270.054Z" fill="#232323"/>
<path d="M316.744 379.455H272.464C269.078 379.455 266.333 382.2 266.333 385.585V416.575C266.333 419.961 269.078 422.705 272.464 422.705H316.744C320.129 422.705 322.874 419.961 322.874 416.575V385.585C322.874 382.2 320.129 379.455 316.744 379.455Z" fill="#232323"/>
<path d="M316.744 423.705H272.464C268.534 423.705 265.333 420.505 265.333 416.575V385.595C265.333 381.665 268.534 378.465 272.464 378.465H316.744C320.674 378.465 323.874 381.665 323.874 385.595V416.575C323.874 420.505 320.674 423.705 316.744 423.705ZM272.464 380.455C269.634 380.455 267.333 382.755 267.333 385.585V416.565C267.333 419.395 269.634 421.695 272.464 421.695H316.744C319.574 421.695 321.874 419.395 321.874 416.565V385.585C321.874 382.755 319.574 380.455 316.744 380.455H272.464Z" fill="#232323"/>
<path d="M390.294 396.345H333.644V402.385H390.294V396.345Z" fill="#B898DA"/>
<path d="M390.293 393.064H333.643C331.832 393.064 330.363 394.533 330.363 396.344V402.384C330.363 404.196 331.832 405.664 333.643 405.664H390.293C392.105 405.664 393.573 404.196 393.573 402.384V396.344C393.573 394.533 392.105 393.064 390.293 393.064Z" fill="#232323"/>
<path d="M421.564 436.614C442.368 436.614 459.234 419.749 459.234 398.944C459.234 378.14 442.368 361.274 421.564 361.274C400.759 361.274 383.894 378.14 383.894 398.944C383.894 419.749 400.759 436.614 421.564 436.614Z" fill="#FBF7FF"/>
<path d="M421.564 439.114C399.414 439.114 381.394 421.094 381.394 398.944C381.394 376.794 399.414 358.774 421.564 358.774C443.714 358.774 461.734 376.794 461.734 398.944C461.734 421.094 443.714 439.114 421.564 439.114ZM421.564 363.774C402.174 363.774 386.394 379.554 386.394 398.944C386.394 418.334 402.174 434.114 421.564 434.114C440.954 434.114 456.734 418.334 456.734 398.944C456.734 379.554 440.954 363.774 421.564 363.774Z" fill="#232323"/>
<path d="M421.563 424.394C435.619 424.394 447.013 413 447.013 398.944C447.013 384.888 435.619 373.494 421.563 373.494C407.508 373.494 396.113 384.888 396.113 398.944C396.113 413 407.508 424.394 421.563 424.394Z" fill="#232323"/>
<path d="M421.563 425.394C406.983 425.394 395.113 413.534 395.113 398.944C395.113 384.354 406.973 372.494 421.563 372.494C436.153 372.494 448.013 384.354 448.013 398.944C448.013 413.534 436.153 425.394 421.563 425.394ZM421.563 374.504C408.083 374.504 397.113 385.474 397.113 398.954C397.113 412.434 408.083 423.404 421.563 423.404C435.043 423.404 446.013 412.434 446.013 398.954C446.013 385.474 435.043 374.504 421.563 374.504Z" fill="#232323"/>
</svg>
