<svg width="713" height="937" viewBox="0 0 713 937" fill="none" xmlns="http://www.w3.org/2000/svg">
<path d="M224.429 393.104C259.909 393.104 274.049 381.774 273.829 320.654C273.829 320.654 275.699 312.604 285.539 309.024C295.379 305.444 304.589 305.164 305.049 311.714C305.509 318.264 305.049 338.534 305.049 354.934C305.049 371.334 314.689 382.064 323.699 382.064V408.454L303.719 436.264H272.419L257.219 418.284H219.559C215.329 418.284 212.039 414.584 212.549 410.384L213.919 398.934C214.389 395.044 217.939 392.274 221.829 392.764L224.429 393.094V393.104Z" fill="#F5F5F5"/>
<path d="M303.729 438.774H272.429C271.689 438.774 270.999 438.454 270.519 437.884L256.059 420.794H219.559C216.829 420.794 214.219 419.624 212.409 417.574C210.599 415.524 209.739 412.804 210.069 410.094L211.439 398.634C211.739 396.084 213.029 393.814 215.049 392.234C217.079 390.654 219.589 389.964 222.139 390.284L224.579 390.594C241.659 390.574 251.369 387.814 258.089 381.074C267.479 371.644 271.439 353.574 271.329 320.654C271.329 320.464 271.349 320.264 271.399 320.074C271.489 319.694 273.709 310.654 284.689 306.664C289.729 304.834 298.959 302.264 304.189 305.664C306.209 306.974 307.369 309.004 307.549 311.524C307.859 315.894 307.769 325.744 307.669 337.154C307.619 343.084 307.559 349.224 307.559 354.914C307.559 369.644 315.909 379.544 323.709 379.544C325.089 379.544 326.209 380.664 326.209 382.044V408.434C326.209 408.954 326.049 409.464 325.739 409.894L305.769 437.714C305.299 438.364 304.539 438.754 303.739 438.754L303.729 438.774ZM273.589 433.774H302.449L321.209 407.654V384.354C311.819 382.684 302.559 371.754 302.559 354.944C302.559 349.224 302.619 343.074 302.669 337.134C302.769 326.304 302.859 316.074 302.569 311.904C302.479 310.684 301.939 310.184 301.479 309.884C299.089 308.334 293.179 308.924 286.409 311.394C278.869 314.134 276.739 319.744 276.339 321.014C276.429 355.174 272.029 374.214 261.639 384.634C251.989 394.314 237.419 395.624 224.429 395.624C224.319 395.624 224.219 395.624 224.109 395.604L221.509 395.274C220.299 395.114 219.089 395.444 218.129 396.204C217.159 396.954 216.549 398.044 216.409 399.264L215.039 410.724C214.879 412.034 215.279 413.304 216.159 414.294C217.039 415.284 218.249 415.824 219.569 415.824H257.229C257.969 415.824 258.659 416.144 259.139 416.714L273.599 433.804L273.589 433.774Z" fill="#232323"/>
<path d="M290.309 418.594C300.764 418.594 309.239 410.119 309.239 399.664C309.239 389.21 300.764 380.734 290.309 380.734C279.855 380.734 271.379 389.21 271.379 399.664C271.379 410.119 279.855 418.594 290.309 418.594Z" fill="#232323"/>
<path d="M290.5 406C294.09 406 297 403.09 297 399.5C297 395.91 294.09 393 290.5 393C286.91 393 284 395.91 284 399.5C284 403.09 286.91 406 290.5 406Z" fill="#FF4343"/>
<path d="M246.119 418.104C245.719 418.104 245.339 417.854 245.189 417.454L241.859 408.674L213.699 408.464C213.149 408.464 212.699 408.004 212.709 407.454C212.709 406.904 213.159 406.464 213.709 406.464L242.549 406.684C242.959 406.684 243.329 406.944 243.479 407.334L247.059 416.754C247.259 417.274 246.999 417.844 246.479 418.044C246.359 418.084 246.239 418.114 246.119 418.114V418.104Z" fill="#232323"/>
<path d="M285.919 357.284H272.499C271.949 357.284 271.499 356.834 271.499 356.284C271.499 355.734 271.949 355.284 272.499 355.284H284.919V309.884C284.919 309.334 285.369 308.884 285.919 308.884C286.469 308.884 286.919 309.334 286.919 309.884V356.284C286.919 356.834 286.469 357.284 285.919 357.284Z" fill="#232323"/>
<path d="M289.609 428.614H278.539C277.989 428.614 277.539 428.164 277.539 427.614C277.539 427.064 277.989 426.614 278.539 426.614H288.609V415.424C288.609 414.874 289.059 414.424 289.609 414.424C290.159 414.424 290.609 414.874 290.609 415.424V427.614C290.609 428.164 290.159 428.614 289.609 428.614Z" fill="#232323"/>
</svg>
