<svg width="713" height="937" viewBox="0 0 713 937" fill="none" xmlns="http://www.w3.org/2000/svg">
<path d="M360.7 403.167C369.635 403.167 382.514 407.908 389.321 413.707L401.812 424.342C401.812 424.342 464.812 425.275 494.21 421.364L497.524 418.049C499.265 416.308 500.041 413.823 499.59 411.4L495.615 389.9C495.154 387.393 493.444 385.306 491.084 384.331C486.071 382.265 475.353 379.454 454.021 379.454H266.278C244.956 379.454 234.227 382.254 229.214 384.331C226.854 385.306 225.144 387.383 224.683 389.9L220.708 411.4C220.257 413.823 221.033 416.308 222.774 418.049L226.088 421.364C255.475 425.275 318.486 424.342 318.486 424.342L338.497 409.963C345.261 404.205 350.726 403.167 359.598 403.167H360.668" fill="#E5E5E5"/>
<path d="M417.932 427.047C408.367 427.047 401.98 426.953 401.78 426.953C401.172 426.953 400.585 426.722 400.123 426.323L387.632 415.689C381.319 410.319 368.996 405.778 360.71 405.778H359.64C351.229 405.778 346.436 406.669 340.238 411.945C340.185 411.987 340.122 412.039 340.07 412.081L320.059 426.46C319.619 426.774 319.105 426.942 318.57 426.953C317.941 426.953 255.035 427.844 225.784 423.953C225.218 423.88 224.683 423.618 224.274 423.209L220.96 419.894C218.61 417.545 217.561 414.189 218.17 410.917L222.145 389.417C222.763 386.029 225.05 383.229 228.249 381.907C233.849 379.59 245.008 376.842 266.309 376.842H454.052C475.353 376.842 486.512 379.6 492.112 381.907C495.311 383.229 497.597 386.04 498.216 389.417L502.191 410.917C502.799 414.189 501.751 417.545 499.401 419.894L496.087 423.209C495.678 423.618 495.154 423.88 494.577 423.953C474.545 426.617 438.74 427.047 417.942 427.047H417.932ZM227.336 418.877C254.72 422.359 310.232 421.824 317.647 421.73L336.903 407.896C344.234 401.687 350.317 400.544 359.63 400.544H360.7C370.191 400.544 383.794 405.547 391.03 411.703L402.798 421.73C410.664 421.824 465.746 422.338 492.993 418.877L495.678 416.192C496.811 415.059 497.314 413.455 497.021 411.882L493.046 390.382C492.742 388.756 491.64 387.403 490.088 386.763C485.861 385.022 475.552 382.086 454.031 382.086H266.288C244.767 382.086 234.457 385.012 230.231 386.763C228.679 387.403 227.577 388.756 227.273 390.382L223.298 411.882C223.005 413.455 223.508 415.07 224.641 416.192L227.326 418.877H227.336Z" fill="#232323"/>
<path d="M234.898 399.203L234.531 405.233C234.415 407.205 235.957 408.883 237.929 408.936L308.05 410.498C312.12 410.593 316.126 409.523 319.608 407.425L333.966 398.794C336.032 397.556 335.119 394.378 332.718 394.42L238.317 395.931C236.492 395.962 235.003 397.388 234.887 399.203H234.898Z" fill="#232323"/>
<path d="M485.411 398.604L486.281 405.505C486.512 407.299 485.138 408.893 483.324 408.935L412.96 410.508C408.891 410.602 404.885 409.533 401.403 407.435L387.045 398.804C384.979 397.566 385.891 394.388 388.293 394.43L482.442 395.951C483.953 395.972 485.222 397.115 485.411 398.615V398.604Z" fill="#232323"/>
</svg>
