<svg width="713" height="937" viewBox="0 0 713 937" fill="none" xmlns="http://www.w3.org/2000/svg">
<path d="M225.769 382V402.58H235.919V412.28H246.769V423.29H256.489V433.16H328.219V423.15H338.499V412.86H348.369V392.29H359.919V382H225.769Z" fill="#232323"/>
<path d="M258.069 392.29H247.749V402.61H258.069V392.29Z" fill="white"/>
<path d="M268.389 402.61H258.069V412.93H268.389V402.61Z" fill="white"/>
<path d="M289.039 402.61H278.719V412.93H289.039V402.61Z" fill="white"/>
<path d="M278.719 392.29H268.399V402.61H278.719V392.29Z" fill="white"/>
<path d="M278.719 412.93H268.399V423.25H278.719V412.93Z" fill="white"/>
<path d="M299.359 412.93H289.039V423.25H299.359V412.93Z" fill="white"/>
<path d="M491.819 382V402.58H481.669V412.28H470.819V423.29H461.099V433.16H389.369V423.15H379.089V412.86H369.219V392.29H357.669V382H491.819Z" fill="#232323"/>
<path d="M469.839 392.29H459.519V402.61H469.839V392.29Z" fill="white"/>
<path d="M459.509 402.61H449.189V412.93H459.509V402.61Z" fill="white"/>
<path d="M438.869 402.61H428.549V412.93H438.869V402.61Z" fill="white"/>
<path d="M449.189 392.29H438.869V402.61H449.189V392.29Z" fill="white"/>
<path d="M449.189 412.93H438.869V423.25H449.189V412.93Z" fill="white"/>
<path d="M428.549 412.93H418.229V423.25H428.549V412.93Z" fill="white"/>
</svg>
