<svg width="713" height="937" viewBox="0 0 713 937" fill="none" xmlns="http://www.w3.org/2000/svg">
<g clip-path="url(#clip0_1126_30609)">
<path d="M503.66 360.694L511.674 338.488L522.162 336.685L521.975 345.842L523.371 336.465L543.27 333.606L540.18 356.044L552.394 369.588L531.298 372.193L526.054 368.368L525.658 374.051L514.302 375.634L503.66 360.694Z" fill="#39BF7B" stroke="#232323" stroke-width="7.2117" stroke-linecap="round" stroke-linejoin="round"/>
<path d="M459.621 363.881C481.86 359.902 504.298 356.824 526.867 355.537C529.143 355.438 529.66 358.747 527.428 359.319C505.463 364.695 483.114 368.312 460.687 371.027C456.125 371.445 455.124 364.849 459.621 363.892V363.881Z" fill="#232323"/>
<path d="M232.716 362.223C234.299 351.944 249.096 353.165 250.47 361.234C251.559 367.588 246.799 384.287 244.732 391.081C244.226 392.752 242.533 393.752 240.829 393.401C239.015 393.038 237.839 391.279 238.18 389.454L241.115 373.986L238.18 373.656C234.09 373.195 231.265 369.325 232.089 365.29L232.716 362.212V362.223Z" fill="#232323"/>
<path d="M213.774 365.443L196.449 350.272L165.194 372.919L200.362 381.604L213.774 365.443Z" fill="white" stroke="#232323" stroke-width="7.2117" stroke-linecap="round" stroke-linejoin="round"/>
<path d="M240.279 367.313C226.604 368.313 212.829 367.906 199.12 367.785C197.46 367.741 197.295 365.301 198.944 365.048C212.521 363.135 226.12 360.914 239.807 360.112C244.435 360.046 244.875 366.763 240.279 367.313Z" fill="#232323"/>
<path d="M461.412 361.233C452.145 358.98 451.661 365.609 451.386 371.072C451.167 375.459 449.144 388.222 448.352 393.081C448.176 394.148 448.88 395.148 449.935 395.368C451.024 395.588 452.079 394.884 452.299 393.807L455.564 377.712C455.74 376.855 456.575 376.305 457.422 376.481C458.257 376.646 458.807 377.46 458.664 378.295L451.859 417.75C451.562 419.498 452.706 421.169 454.443 421.521C456.257 421.884 458.005 420.697 458.323 418.883C459.994 409.395 464.721 382.341 465.777 375.162C467.063 366.422 465.557 362.245 461.412 361.233Z" fill="#232323"/>
</g>
<defs>
<clipPath id="clip0_1126_30609">
<rect width="394.412" height="91.5863" fill="white" transform="translate(161.588 330)"/>
</clipPath>
</defs>
</svg>
