<svg width="713" height="937" viewBox="0 0 713 937" fill="none" xmlns="http://www.w3.org/2000/svg">
<path d="M391.925 391.23C385.935 394.94 379.005 396.91 371.955 396.91H355.355C348.305 396.91 341.385 394.95 335.385 391.23C277.885 355.6 223.505 370.6 223.505 370.6C250.565 479.4 345.875 411.29 345.875 411.29H381.445C381.445 411.29 471.035 476.27 498.085 367.47C498.085 367.47 449.425 355.6 391.925 391.23Z" fill="#FF659D"/>
<path d="M285.746 434.88C278.766 434.88 271.686 433.84 264.816 431.3C243.786 423.55 229.066 403.33 221.076 371.21C220.746 369.89 221.526 368.56 222.836 368.2C223.406 368.04 237.046 364.36 257.966 365.06C277.236 365.71 306.536 370.41 336.706 389.11C342.306 392.58 348.756 394.41 355.356 394.41H371.956C378.556 394.41 385.006 392.58 390.606 389.11C448.336 353.34 496.646 364.55 498.676 365.05C499.326 365.21 499.876 365.62 500.226 366.18C500.566 366.75 500.676 367.43 500.516 368.08C492.266 401.27 477.366 422 456.236 429.71C423.016 441.83 386.246 417.68 380.656 413.8H346.666C341.926 417.06 314.656 434.89 285.756 434.89L285.746 434.88ZM226.566 372.47C234.246 401.45 247.686 419.66 266.546 426.61C301.496 439.5 343.996 409.56 344.426 409.26C344.846 408.96 345.356 408.79 345.876 408.79H381.446C381.976 408.79 382.486 408.96 382.916 409.27C383.296 409.55 421.756 436.98 454.536 425C473.466 418.09 487.076 399.4 495.006 369.43C484.466 367.7 441.866 363.24 393.246 393.36C386.856 397.32 379.496 399.41 371.966 399.41H355.366C347.836 399.41 340.476 397.32 334.086 393.36C284.946 362.91 237.596 370.18 226.566 372.47Z" fill="#232323"/>
<path d="M332.735 403.83C311.535 392.29 277.985 378.74 257.045 379.87C257.045 379.87 264.055 412.1 287.605 417.44C321.505 425.12 332.735 403.83 332.735 403.83Z" fill="#232323"/>
<path d="M394.585 403.831C415.785 392.291 437.675 385.311 458.615 386.441C458.615 386.441 449.755 414.721 431.095 418.201C412.425 421.681 394.585 403.831 394.585 403.831Z" fill="#232323"/>
</svg>
