<svg width="713" height="937" viewBox="0 0 713 937" fill="none" xmlns="http://www.w3.org/2000/svg">
<path d="M497.052 405.162L494.501 394.853C488.979 372.531 469.831 356.221 446.907 354.332L402.701 350.688C395.016 350.056 387.31 349.739 379.603 349.739L366.63 359.538C363.14 362.181 358.353 362.334 354.699 359.926L345.207 353.699L340.317 349.739C332.611 349.739 324.905 350.056 317.22 350.688L273.014 354.332C250.1 356.221 230.942 372.531 225.42 394.853L222.868 405.162C221.021 412.623 223.92 420.441 230.166 424.912L234.208 427.801C238.383 430.781 243.272 432.567 248.385 432.996L301.685 437.374C308.717 437.956 315.576 435.006 320.006 429.515L330.376 416.645L355.005 406.57C355.005 406.57 386.003 414.542 392.382 420.176L399.904 429.505C404.334 434.996 411.193 437.946 418.226 437.364L471.525 432.986C476.628 432.567 481.528 430.771 485.702 427.801L489.744 424.912C495.991 420.452 498.889 412.623 497.042 405.162H497.052Z" fill="#232323"/>
<path d="M319.591 350.504L314.936 343.788C312.568 340.379 307.965 339.338 304.403 341.451C296.758 345.993 285.051 355.209 283.826 369.468C281.999 390.81 285.888 398.343 285.888 398.343L302.545 366.845L319.591 350.494V350.504Z" fill="white"/>
<path d="M285.885 401.686H285.864C284.619 401.686 283.476 400.982 282.904 399.87C282.465 399.012 278.628 390.857 280.485 369.178C281.853 353.225 294.979 343.151 302.685 338.568C307.727 335.567 314.321 337.016 317.679 341.875L322.333 348.591C323.272 349.948 323.088 351.775 321.904 352.919L305.247 368.892L288.844 399.91C288.263 401.013 287.13 401.697 285.885 401.697V401.686ZM308.39 343.712C307.604 343.712 306.818 343.916 306.114 344.335C299.51 348.264 288.273 356.787 287.16 369.76C286.426 378.303 286.65 384.508 287.13 388.816L299.572 365.289C299.735 364.973 299.96 364.687 300.215 364.442L315.198 350.071L312.167 345.713C311.279 344.427 309.83 343.722 308.38 343.722L308.39 343.712Z" fill="#232323"/>
<path d="M289.83 352.168L282.135 345.421C280.124 343.666 277.185 343.472 274.97 344.972C268.54 349.32 265.59 357.282 267.641 364.773L271.111 377.43L281.757 362.365L289.82 352.168H289.83Z" fill="white"/>
<path d="M271.118 380.778C270.924 380.778 270.73 380.757 270.536 380.727C269.26 380.502 268.229 379.563 267.882 378.318L264.412 365.662C261.983 356.782 265.463 347.361 273.088 342.206C276.558 339.859 281.182 340.145 284.336 342.911L292.032 349.657C293.369 350.831 293.563 352.852 292.45 354.25L284.438 364.376L273.843 379.369C273.211 380.267 272.18 380.788 271.108 380.788L271.118 380.778ZM278.253 347.31C277.763 347.31 277.273 347.453 276.844 347.739C271.598 351.28 269.199 357.772 270.873 363.875L272.465 369.693L279.029 360.415C279.029 360.415 279.1 360.313 279.141 360.272L285.224 352.577L279.916 347.922C279.447 347.504 278.845 347.3 278.253 347.3V347.31Z" fill="#232323"/>
<path d="M259.798 351.023C257.93 348.573 254.235 348.624 252.439 351.115L249.755 354.84C247.152 358.443 246.734 363.179 248.663 367.19L254.164 378.642L261.176 363.444C263.054 359.372 262.533 354.595 259.818 351.023H259.798Z" fill="white"/>
<path d="M254.156 381.989C252.87 381.989 251.696 381.254 251.135 380.09L245.633 368.638C243.173 363.525 243.715 357.482 247.032 352.879L249.716 349.154C251.206 347.092 253.513 345.898 256.044 345.867C256.085 345.867 256.115 345.867 256.146 345.867C258.647 345.867 260.943 347 262.454 349.001C265.924 353.573 266.588 359.646 264.189 364.852L257.177 380.05C256.636 381.223 255.462 381.989 254.166 381.999H254.136L254.156 381.989ZM256.146 352.563H256.126C255.891 352.563 255.452 352.634 255.146 353.073L252.462 356.799C250.573 359.412 250.278 362.841 251.666 365.74L254.084 370.772L258.116 362.035C259.474 359.075 259.106 355.635 257.136 353.043C256.82 352.624 256.391 352.553 256.157 352.553L256.146 352.563Z" fill="#232323"/>
<path d="M240.337 438.46C237.785 439.511 234.315 437.939 233.437 435.336L232.131 431.448C230.865 427.692 232.019 423.987 235.142 421.812L244.062 415.576L245.675 429.774C246.104 433.581 244.052 436.918 240.327 438.45L240.337 438.46Z" fill="white"/>
<path d="M238.601 442.135C237.346 442.135 236.06 441.86 234.856 441.309C232.651 440.298 230.977 438.512 230.273 436.409L228.966 432.521C227.231 427.376 228.915 422.089 233.243 419.068L242.174 412.832C243.144 412.158 244.389 412.036 245.471 412.526C246.542 413.015 247.288 414.026 247.42 415.2L249.033 429.397C249.635 434.684 246.726 439.451 241.623 441.543C240.684 441.931 239.653 442.125 238.612 442.125L238.601 442.135ZM241.378 421.548L237.061 424.559C235.152 425.896 234.509 428.019 235.305 430.387L236.611 434.276C236.724 434.623 237.122 434.991 237.632 435.215C238.142 435.45 238.704 435.511 239.061 435.368C241.388 434.409 242.613 432.47 242.358 430.173L241.378 421.559V421.548Z" fill="#232323"/>
<path d="M245.529 365.677L233.608 363.196L231.097 375.975L245.529 386.621V365.677Z" fill="white"/>
<path d="M245.529 389.982C244.825 389.982 244.131 389.757 243.539 389.329L229.117 378.683C228.076 377.917 227.565 376.611 227.821 375.345L230.332 362.567C230.505 361.689 231.015 360.913 231.771 360.423C232.516 359.933 233.424 359.749 234.302 359.933L246.224 362.413C247.775 362.74 248.887 364.108 248.887 365.69V386.634C248.887 387.9 248.173 389.053 247.05 389.625C246.571 389.87 246.06 389.982 245.54 389.982H245.529ZM234.792 374.539L242.171 379.989V368.405L236.241 367.17L234.792 374.549V374.539Z" fill="#232323"/>
<path d="M340.324 349.736L334.006 344.817C330.474 342.061 325.33 342.918 322.881 346.674C318.4 353.554 318.288 362.413 322.605 369.405L330.74 382.602L340.314 349.736H340.324Z" fill="white"/>
<path d="M330.747 385.952C329.593 385.952 328.511 385.36 327.899 384.359L319.764 371.162C314.793 363.109 314.926 352.78 320.091 344.849C321.765 342.277 324.469 340.511 327.501 340.001C330.532 339.49 333.656 340.287 336.085 342.175L342.403 347.094C343.485 347.942 343.944 349.36 343.556 350.677L333.982 383.543C333.615 384.819 332.533 385.747 331.216 385.921C331.063 385.941 330.92 385.952 330.767 385.952H330.747ZM329.318 346.543C329.073 346.543 328.838 346.564 328.593 346.605C327.388 346.809 326.358 347.482 325.694 348.503C321.938 354.27 321.846 361.782 325.459 367.651L329.644 374.428L336.473 350.983L331.951 347.462C331.185 346.86 330.267 346.553 329.318 346.553V346.543Z" fill="#232323"/>
<path d="M297.517 437.437C283.708 430.987 281.544 412.043 281.544 412.043L276.175 420.994C273.46 425.516 272.531 430.885 273.562 436.059L273.644 436.478C274.827 442.398 280.768 446.093 286.606 444.521L289.831 443.653L297.517 437.437Z" fill="white"/>
<path d="M283.909 448.222C281.357 448.222 278.816 447.518 276.621 446.15C273.396 444.15 271.11 440.863 270.365 437.127L270.283 436.709C269.078 430.707 270.16 424.512 273.304 419.265L278.673 410.314C279.408 409.079 280.857 408.457 282.255 408.763C283.654 409.069 284.715 410.233 284.879 411.651C284.899 411.815 287.032 428.829 298.943 434.392C299.995 434.882 300.709 435.872 300.852 437.025C300.995 438.168 300.536 439.312 299.638 440.036L291.952 446.252C291.584 446.548 291.166 446.762 290.717 446.885L287.492 447.753C286.318 448.069 285.114 448.222 283.919 448.222H283.909ZM280.193 420.786L279.04 422.715C276.754 426.533 275.968 431.034 276.846 435.402L276.928 435.821C277.315 437.77 278.459 439.414 280.143 440.465C281.827 441.516 283.817 441.802 285.725 441.292L288.267 440.608L291.687 437.842C285.44 433.188 282.02 426.247 280.193 420.797V420.786Z" fill="#232323"/>
<path d="M304.562 441.544L297.377 434.848C296.478 434.011 296.121 432.746 296.458 431.562L299.887 419.416C300.582 416.966 303.674 416.201 305.43 418.058L313.218 426.295C314.085 427.214 314.35 428.541 313.901 429.714L309.859 440.319C309.033 442.493 306.267 443.136 304.562 441.554V441.544Z" fill="white"/>
<path d="M306.794 445.781C305.14 445.781 303.517 445.158 302.282 444.005L295.097 437.309C293.27 435.615 292.555 433.063 293.239 430.665L296.669 418.519C297.322 416.191 299.118 414.456 301.466 413.885C303.814 413.303 306.202 414.007 307.866 415.763L315.653 424C317.388 425.837 317.93 428.552 317.031 430.91L312.99 441.525C312.204 443.586 310.448 445.128 308.294 445.628C307.794 445.74 307.294 445.801 306.794 445.801V445.781ZM303.078 420.448L299.68 432.471L306.763 439.024L310.764 428.511L303.078 420.438V420.448Z" fill="#232323"/>
<path d="M265.095 432.001L261.104 419.794L251.55 430.644L252.643 435.757C253.612 440.32 259.696 441.289 262.043 437.258L265.095 432.001Z" fill="white"/>
<path d="M257.664 443.136C257.215 443.136 256.756 443.105 256.307 443.024C252.826 442.473 250.111 439.89 249.376 436.44L248.284 431.327C248.06 430.286 248.346 429.204 249.05 428.408L258.603 417.568C259.399 416.67 260.614 416.262 261.788 416.507C262.962 416.751 263.921 417.599 264.299 418.742L268.29 430.949C268.586 431.857 268.483 432.848 268.004 433.674L264.952 438.931C263.411 441.574 260.655 443.136 257.674 443.136H257.664ZM255.184 431.592L255.919 435.052C256.144 436.114 257.001 436.359 257.358 436.42C257.716 436.481 258.604 436.512 259.144 435.573L261.441 431.613L259.736 426.407L255.174 431.592H255.184Z" fill="#232323"/>
<path d="M240.795 397.193L223.923 389.896L215.349 395.713L222.769 404.491L240.795 397.193Z" fill="white"/>
<path d="M222.77 407.842C221.801 407.842 220.861 407.423 220.208 406.658L212.788 397.88C212.175 397.155 211.9 396.206 212.033 395.267C212.165 394.328 212.686 393.481 213.472 392.95L222.046 387.132C222.995 386.489 224.209 386.377 225.261 386.826L242.132 394.124C243.367 394.665 244.163 395.89 244.153 397.237C244.133 398.584 243.316 399.799 242.061 400.299L224.026 407.597C223.617 407.76 223.189 407.842 222.77 407.842ZM220.31 396.4L223.76 400.483L232.13 397.094L224.291 393.705L220.321 396.4H220.31Z" fill="#232323"/>
<path d="M400.609 350.495L405.263 343.779C407.631 340.37 412.235 339.329 415.797 341.442C423.442 345.984 435.149 355.2 436.374 369.459C438.201 390.802 434.312 398.334 434.312 398.334L417.655 366.836L400.609 350.485V350.495Z" fill="white"/>
<path d="M434.315 401.686C433.069 401.686 431.937 401.003 431.355 399.9L414.953 368.882L398.295 352.908C397.111 351.765 396.927 349.938 397.866 348.581L402.521 341.865C405.889 337.016 412.473 335.557 417.525 338.558C425.231 343.14 438.357 353.215 439.725 369.168C441.582 390.847 437.744 399.002 437.305 399.859C436.734 400.972 435.591 401.666 434.346 401.676H434.325L434.315 401.686ZM404.991 350.061L419.974 364.432C420.23 364.677 420.454 364.962 420.617 365.279L433.059 388.816C433.539 384.519 433.764 378.303 433.029 369.76C431.916 356.787 420.678 348.264 414.075 344.335C412.043 343.12 409.37 343.722 408.002 345.692L404.981 350.05L404.991 350.061Z" fill="#232323"/>
<path d="M430.362 352.16L438.057 345.413C440.068 343.658 443.007 343.464 445.222 344.964C451.653 349.312 454.602 357.274 452.551 364.765L449.081 377.422L438.435 362.357L430.372 352.16H430.362Z" fill="white"/>
<path d="M449.082 380.771C448.011 380.771 446.98 380.251 446.347 379.353L435.752 364.359L427.74 354.234C426.638 352.836 426.821 350.815 428.159 349.641L435.854 342.894C439.008 340.128 443.632 339.842 447.102 342.19C454.727 347.344 458.217 356.775 455.778 365.645L452.308 378.301C451.961 379.547 450.93 380.486 449.654 380.71C449.46 380.741 449.266 380.761 449.072 380.761L449.082 380.771ZM434.966 352.58L441.06 360.276C441.06 360.276 441.131 360.368 441.172 360.419L447.735 369.697L449.327 363.879C451.001 357.776 448.603 351.284 443.357 347.742C442.407 347.099 441.142 347.181 440.274 347.936L434.966 352.591V352.58Z" fill="#232323"/>
<path d="M460.401 351.023C462.268 348.573 465.963 348.624 467.76 351.115L470.444 354.84C473.047 358.443 473.465 363.179 471.536 367.19L466.035 378.642L459.023 363.444C457.145 359.372 457.665 354.595 460.38 351.023H460.401Z" fill="white"/>
<path d="M466.045 381.99H466.014C464.718 381.99 463.544 381.225 463.003 380.041L455.991 364.843C453.593 359.627 454.256 353.554 457.726 348.992C459.257 346.971 461.574 345.848 464.136 345.858C466.678 345.889 468.984 347.093 470.464 349.145L473.149 352.871C476.466 357.474 477.007 363.516 474.547 368.63L469.046 380.082C468.484 381.245 467.311 381.98 466.024 381.98L466.045 381.99ZM463.064 353.054C461.094 355.647 460.717 359.097 462.084 362.046L466.116 370.783L468.535 365.751C469.934 362.853 469.627 359.423 467.739 356.81L465.055 353.085C464.738 352.646 464.299 352.575 464.075 352.575C463.891 352.575 463.401 352.626 463.075 353.064L463.064 353.054Z" fill="#232323"/>
<path d="M479.855 438.46C482.406 439.511 485.877 437.939 486.755 435.336L488.061 431.448C489.326 427.692 488.173 423.987 485.05 421.812L476.129 415.576L474.516 429.774C474.088 433.581 476.14 436.918 479.865 438.45L479.855 438.46Z" fill="white"/>
<path d="M481.603 442.133C480.562 442.133 479.541 441.939 478.592 441.551C473.489 439.459 470.579 434.692 471.182 429.405L472.794 415.208C472.927 414.034 473.672 413.023 474.744 412.533C475.816 412.043 477.071 412.166 478.041 412.84L486.961 419.076C491.289 422.097 492.963 427.374 491.238 432.528L489.932 436.417C489.217 438.53 487.553 440.316 485.348 441.316C484.134 441.868 482.858 442.143 481.603 442.143V442.133ZM481.133 435.356C481.49 435.499 482.052 435.437 482.562 435.203C483.062 434.968 483.46 434.6 483.583 434.253L484.889 430.365C485.686 427.997 485.042 425.874 483.134 424.536L478.816 421.526L477.836 430.14C477.571 432.437 478.806 434.386 481.133 435.335V435.356Z" fill="#232323"/>
<path d="M474.672 365.677L486.583 363.196L489.094 375.975L474.672 386.621V365.677Z" fill="white"/>
<path d="M474.671 389.982C474.16 389.982 473.64 389.859 473.16 389.625C472.027 389.053 471.323 387.9 471.323 386.634V365.69C471.323 364.108 472.435 362.73 473.987 362.413L485.898 359.933C486.776 359.749 487.684 359.933 488.429 360.423C489.174 360.913 489.695 361.689 489.869 362.567L492.379 375.345C492.635 376.611 492.124 377.917 491.083 378.683L476.661 389.329C476.069 389.757 475.375 389.982 474.671 389.982ZM478.019 368.405V379.989L485.398 374.539L483.949 367.16L478.019 368.395V368.405Z" fill="#232323"/>
<path d="M379.87 349.734L386.076 344.896C389.649 342.11 394.854 343.029 397.263 346.866L397.65 347.479C402.07 354.511 401.978 363.463 397.436 370.403L389.444 382.59L379.87 349.724V349.734Z" fill="white"/>
<path d="M389.441 385.949C389.277 385.949 389.114 385.939 388.941 385.908C387.645 385.714 386.583 384.785 386.216 383.53L376.641 350.664C376.253 349.348 376.713 347.929 377.795 347.082L384 342.244C386.45 340.335 389.614 339.549 392.666 340.09C395.728 340.631 398.433 342.448 400.076 345.071L400.464 345.683C405.568 353.798 405.466 364.219 400.209 372.231L392.217 384.418C391.594 385.367 390.533 385.929 389.42 385.929L389.441 385.949ZM383.725 350.981L390.635 374.681L394.636 368.567C398.454 362.739 398.525 355.155 394.82 349.256L394.432 348.643C393.779 347.602 392.748 346.908 391.533 346.694C390.319 346.479 389.114 346.775 388.144 347.541L383.735 350.981H383.725Z" fill="#232323"/>
<path d="M422.691 437.429C436.501 430.978 438.665 412.034 438.665 412.034L444.033 420.986C446.748 425.507 447.677 430.876 446.646 436.051L446.565 436.469C445.381 442.389 439.441 446.084 433.602 444.512L430.377 443.644L422.691 437.429Z" fill="white"/>
<path d="M436.293 448.214C435.099 448.214 433.894 448.061 432.72 447.745L429.495 446.877C429.046 446.755 428.628 446.54 428.26 446.244L420.574 440.028C419.676 439.304 419.217 438.161 419.36 437.017C419.503 435.874 420.217 434.874 421.269 434.384C433.241 428.791 435.313 411.817 435.333 411.643C435.497 410.214 436.548 409.051 437.957 408.755C439.355 408.449 440.804 409.071 441.539 410.306L446.908 419.258C450.052 424.504 451.134 430.699 449.929 436.701L449.848 437.13C449.103 440.855 446.827 444.142 443.591 446.152C441.397 447.52 438.855 448.224 436.303 448.224L436.293 448.214ZM431.925 440.59L434.466 441.274C436.385 441.794 438.365 441.498 440.049 440.447C441.733 439.406 442.876 437.752 443.264 435.803L443.346 435.384C444.213 431.016 443.438 426.515 441.151 422.697L439.998 420.768C438.161 426.219 434.742 433.159 428.495 437.814L431.915 440.58L431.925 440.59Z" fill="#232323"/>
<path d="M415.635 441.536L422.821 434.841C423.719 434.004 424.076 432.738 423.74 431.554L420.31 419.408C419.616 416.958 416.523 416.193 414.768 418.05L406.98 426.287C406.113 427.206 405.847 428.533 406.296 429.707L410.338 440.311C411.165 442.485 413.931 443.128 415.635 441.546V441.536Z" fill="white"/>
<path d="M413.398 445.775C412.898 445.775 412.397 445.714 411.897 445.602C409.744 445.102 407.988 443.571 407.202 441.499L403.16 430.894C402.262 428.526 402.803 425.821 404.538 423.984L412.326 415.747C413.989 413.992 416.378 413.287 418.725 413.869C421.073 414.451 422.859 416.176 423.523 418.503L426.952 430.649C427.626 433.048 426.922 435.599 425.095 437.294L417.919 443.989C416.674 445.143 415.061 445.765 413.408 445.765L413.398 445.775ZM417.113 420.442L409.407 428.587L413.418 439.029L420.522 432.405L417.103 420.452L417.113 420.442Z" fill="#232323"/>
<path d="M455.09 432.001L459.081 419.794L468.634 430.644L467.542 435.757C466.572 440.32 460.489 441.289 458.142 437.258L455.09 432.001Z" fill="white"/>
<path d="M462.53 443.136C459.55 443.136 456.794 441.574 455.253 438.931L452.201 433.674C451.721 432.848 451.619 431.857 451.915 430.949L455.906 418.742C456.284 417.599 457.233 416.741 458.417 416.507C459.601 416.262 460.816 416.67 461.602 417.568L471.155 428.408C471.859 429.204 472.135 430.286 471.92 431.317L470.828 436.43C470.094 439.87 467.368 442.452 463.898 443.013C463.439 443.085 462.99 443.126 462.54 443.126L462.53 443.136ZM458.743 431.613L461.04 435.573C461.581 436.512 462.479 436.481 462.826 436.42C463.183 436.359 464.041 436.114 464.265 435.052L465 431.592L460.438 426.407L458.733 431.613H458.743Z" fill="#232323"/>
<path d="M478.263 396.068L496.268 389.903L504.841 395.721L497.432 404.499L478.263 396.068Z" fill="white"/>
<path d="M497.422 407.845C496.963 407.845 496.514 407.753 496.075 407.559L476.917 399.118C475.651 398.567 474.865 397.291 474.916 395.913C474.978 394.535 475.876 393.331 477.172 392.882L495.177 386.717C496.167 386.38 497.269 386.523 498.147 387.115L506.72 392.933C507.506 393.463 508.027 394.311 508.16 395.25C508.292 396.189 508.017 397.138 507.405 397.863L499.984 406.64C499.331 407.416 498.392 407.824 497.422 407.824V407.845ZM487.461 396.454L496.483 400.424L499.882 396.403L495.768 393.617L487.461 396.464V396.454Z" fill="#232323"/>
</svg>
