<svg width="713" height="937" viewBox="0 0 713 937" fill="none" xmlns="http://www.w3.org/2000/svg">
<path d="M485.855 358.882L402.05 351.971C394.248 351.329 386.426 351.008 378.604 351.008H338.727C330.904 351.008 323.082 351.329 315.281 351.971L231.475 358.882L216.422 419.812L237.505 434.865L310.94 440.895L336.882 408.695H380.458L406.401 440.895L479.836 434.865L500.919 419.812L485.866 358.882H485.855Z" fill="#E5E5E5"/>
<path d="M406.393 444.285C405.367 444.285 404.393 443.819 403.74 443.021L378.813 412.085H338.49L313.563 443.021C312.858 443.902 311.771 444.368 310.642 444.275L237.207 438.245C236.595 438.193 236.005 437.976 235.508 437.623L214.424 422.57C213.295 421.762 212.766 420.342 213.098 418.985L228.152 358.055C228.504 356.636 229.716 355.6 231.177 355.486L314.982 348.575C322.836 347.923 330.823 347.602 338.708 347.602H378.585C386.469 347.602 394.457 347.933 402.311 348.575L486.116 355.486C487.567 355.61 488.789 356.646 489.142 358.055L504.195 418.985C504.527 420.342 504.009 421.762 502.869 422.57L481.786 437.623C481.288 437.976 480.698 438.193 480.086 438.245L406.652 444.275C406.558 444.275 406.465 444.285 406.372 444.285H406.393ZM336.874 405.289H380.45C381.476 405.289 382.45 405.755 383.102 406.552L407.916 437.354L478.626 431.552L497.067 418.384L483.153 362.075L401.782 355.362C394.116 354.73 386.314 354.408 378.616 354.408H338.739C331.041 354.408 323.24 354.73 315.573 355.362L234.202 362.075L220.288 418.384L238.73 431.552L309.44 437.354L334.253 406.552C334.895 405.755 335.869 405.289 336.905 405.289H336.874Z" fill="#232323"/>
<path d="M228.617 414.945L242.045 424.363L304.601 429.616L330.077 397.954H349.845H356.03L358.392 361.351H330.077L240.501 367.38L228.617 414.945Z" fill="#232323"/>
<path d="M488.718 414.945L475.281 424.363L412.725 429.616L387.248 397.954H367.48H360.197L358.943 361.351H387.248L476.824 367.38L488.718 414.945Z" fill="#232323"/>
<path d="M251.944 372.31L275.255 422.496L299.353 425.739L305.217 420.497L280.352 369.067L251.944 372.31Z" fill="#606060"/>
<path d="M449.612 370.461L481.118 413.705L483.75 412.131L471.701 371.849L449.612 370.461Z" fill="#606060"/>
</svg>
