<svg width="713" height="937" viewBox="0 0 713 937" fill="none" xmlns="http://www.w3.org/2000/svg">
<path d="M345.994 403.469C349.534 391.699 342.724 378.999 330.914 375.619C325.184 373.979 319.374 374.759 314.504 377.309C311.594 372.859 307.094 369.419 301.544 367.969C289.974 364.959 278.184 371.669 274.754 383.009H274.714C274.674 383.149 274.654 383.299 274.614 383.459C274.574 383.599 274.524 383.719 274.484 383.859C273.644 387.099 273.584 390.349 274.154 393.439C276.194 409.359 290.154 424.599 296.354 430.669C298.154 432.429 300.774 433.069 303.184 432.339C309.714 430.349 323.404 425.489 336.024 416.649C340.774 413.939 344.314 409.099 346.004 403.479L345.994 403.469Z" fill="#F0463F"/>
<path d="M301.164 435.139C298.744 435.139 296.374 434.199 294.594 432.459C288.424 426.419 273.854 410.569 271.674 393.829C271.024 390.259 271.154 386.699 272.054 383.239C272.094 383.099 272.134 382.979 272.174 382.849C272.214 382.649 272.244 382.519 272.274 382.389C272.324 382.189 272.404 381.999 272.494 381.819C276.524 369.379 289.454 362.249 302.164 365.559C307.384 366.919 311.984 369.939 315.314 374.169C320.474 372.009 326.184 371.669 331.594 373.219C337.904 375.029 343.144 379.259 346.344 385.119C349.574 391.039 350.304 397.819 348.384 404.199C346.494 410.499 342.474 415.799 337.354 418.759C324.624 427.659 310.934 432.589 303.904 434.729C303.004 434.999 302.074 435.139 301.164 435.139ZM277.044 383.989C277.044 383.989 277.034 384.039 277.024 384.059C276.974 384.249 276.944 384.349 276.904 384.459C276.164 387.269 276.074 390.129 276.594 392.999C276.594 393.039 276.604 393.089 276.614 393.129C278.564 408.339 292.284 423.199 298.084 428.889C299.234 430.009 300.904 430.419 302.444 429.949C309.214 427.889 322.384 423.139 334.574 414.599C334.634 414.559 334.704 414.519 334.764 414.479C338.834 412.159 342.044 407.879 343.584 402.759C345.114 397.669 344.534 392.259 341.944 387.519C339.394 382.839 335.224 379.469 330.204 378.029C325.334 376.629 320.164 377.169 315.644 379.529C314.504 380.129 313.094 379.759 312.394 378.679C309.704 374.569 305.614 371.619 300.894 370.389C290.634 367.719 280.194 373.589 277.124 383.739C277.094 383.819 277.074 383.909 277.034 383.989H277.044Z" fill="#232323"/>
<path d="M335.334 402.649C337.514 394.269 332.394 385.689 323.904 383.479C319.924 382.449 315.924 383.009 312.564 384.739C310.474 381.589 307.254 379.139 303.274 378.109C294.994 375.959 286.574 380.669 284.144 388.689H284.114C284.084 388.789 284.074 388.899 284.044 388.999C284.014 389.099 283.984 389.189 283.954 389.279C283.364 391.569 283.324 393.869 283.734 396.049C285.664 410.589 301.814 424.379 301.814 424.379C301.814 424.379 315.664 421.149 328.034 412.599C331.614 410.589 334.224 406.899 335.324 402.639L335.334 402.649Z" fill="#232323"/>
<path d="M373.584 403.469C370.044 391.699 376.854 378.999 388.664 375.619C394.394 373.979 400.204 374.759 405.074 377.309C407.984 372.859 412.484 369.419 418.034 367.969C429.604 364.959 441.394 371.669 444.824 383.009H444.864C444.904 383.149 444.924 383.299 444.964 383.459C445.004 383.599 445.054 383.719 445.094 383.859C445.934 387.099 445.994 390.349 445.424 393.439C443.384 409.359 429.424 424.599 423.224 430.669C421.424 432.429 418.804 433.069 416.394 432.339C409.864 430.349 396.174 425.489 383.554 416.649C378.804 413.939 375.264 409.099 373.574 403.479L373.584 403.469Z" fill="#F0463F"/>
<path d="M418.414 435.139C417.494 435.139 416.574 435.009 415.674 434.729C408.634 432.579 394.954 427.659 382.224 418.759C377.104 415.789 373.084 410.489 371.194 404.199C369.274 397.819 369.994 391.039 373.234 385.119C376.434 379.259 381.674 375.029 387.984 373.219C393.404 371.669 399.104 372.009 404.264 374.169C407.594 369.939 412.184 366.919 417.414 365.559C430.124 362.249 443.054 369.389 447.084 381.839C447.174 382.009 447.254 382.199 447.304 382.389C447.334 382.519 447.364 382.649 447.394 382.779C447.454 382.979 447.494 383.109 447.534 383.249C448.434 386.699 448.564 390.269 447.914 393.829C445.734 410.569 431.164 426.419 424.994 432.459C423.214 434.209 420.844 435.139 418.424 435.139H418.414ZM375.984 402.749C377.524 407.869 380.744 412.149 384.804 414.469C384.874 414.509 384.934 414.549 384.994 414.589C397.184 423.129 410.354 427.869 417.124 429.939C418.664 430.409 420.334 429.999 421.484 428.879C427.284 423.189 441.004 408.329 442.954 393.119C442.954 393.079 442.964 393.029 442.974 392.989C443.504 390.129 443.404 387.269 442.684 384.499C442.634 384.349 442.604 384.249 442.574 384.139C442.564 384.089 442.544 384.039 442.534 383.989C442.504 383.909 442.474 383.829 442.444 383.739C439.374 373.589 428.924 367.719 418.674 370.389C413.954 371.619 409.864 374.559 407.174 378.669C406.474 379.749 405.064 380.109 403.924 379.519C399.404 377.149 394.234 376.619 389.364 378.019C384.344 379.459 380.174 382.829 377.624 387.509C375.034 392.249 374.454 397.659 375.984 402.749Z" fill="#232323"/>
<path d="M383.744 402.829C381.584 394.509 386.844 385.929 395.504 383.679C399.564 382.629 403.634 383.159 407.044 384.859C409.194 381.709 412.494 379.259 416.554 378.199C425.004 375.999 433.544 380.639 435.964 388.599H435.994C436.024 388.699 436.034 388.809 436.064 388.909C436.094 389.009 436.124 389.099 436.154 389.189C436.744 391.459 436.764 393.749 436.334 395.919C434.274 410.399 417.734 424.229 417.734 424.229C417.734 424.229 403.644 421.109 391.104 412.679C387.474 410.699 384.844 407.049 383.744 402.819V402.829Z" fill="#232323"/>
<path d="M346.974 401.658C358.434 392.828 372.604 400.948 372.604 400.948L346.974 401.658Z" fill="#F0463F"/>
<path d="M346.984 404.939C346.004 404.939 345.024 404.499 344.384 403.659C343.274 402.219 343.544 400.159 344.984 399.059C358.034 389.009 373.594 397.729 374.244 398.109C375.814 399.009 376.364 401.019 375.454 402.589C374.554 404.159 372.544 404.709 370.974 403.799C370.474 403.519 358.534 396.899 348.984 404.259C348.384 404.719 347.684 404.939 346.984 404.939Z" fill="#232323"/>
</svg>
