<svg width="713" height="937" viewBox="0 0 713 937" fill="none" xmlns="http://www.w3.org/2000/svg">
<path d="M283.421 400.984C283.171 400.984 282.911 400.954 282.661 400.894L236.031 389.764L235.331 392.554C234.891 394.314 233.111 395.374 231.351 394.934C229.591 394.494 228.521 392.714 228.971 390.954L230.461 385.014C230.901 383.274 232.661 382.204 234.401 382.624L284.191 394.504C285.951 394.924 287.041 396.694 286.621 398.454C286.261 399.964 284.911 400.974 283.431 400.974L283.421 400.984Z" fill="#232323"/>
<path d="M432.161 400.984C430.681 400.984 429.331 399.974 428.971 398.464C428.551 396.704 429.641 394.934 431.401 394.514L481.191 382.634C482.941 382.214 484.701 383.284 485.131 385.024L486.621 390.964C487.061 392.724 485.991 394.504 484.241 394.944C482.481 395.384 480.701 394.314 480.261 392.564L479.561 389.774L432.931 400.904C432.671 400.964 432.421 400.994 432.171 400.994L432.161 400.984Z" fill="#232323"/>
<path d="M339.831 398.944C339.831 413.584 329.411 425.774 315.581 428.544C313.661 428.924 311.671 429.124 309.641 429.124C304.141 429.124 298.971 427.644 294.531 425.064C286.391 420.354 280.661 411.944 279.631 402.134C279.521 401.084 279.461 400.024 279.461 398.944C279.461 393.044 281.151 387.544 284.091 382.894C289.411 374.404 298.871 368.754 309.641 368.754C326.311 368.754 339.831 382.274 339.831 398.944Z" fill="#232323"/>
<path d="M309.641 432.404C303.751 432.404 297.951 430.844 292.881 427.904C283.651 422.564 277.481 413.054 276.361 402.484C276.241 401.294 276.171 400.104 276.171 398.954C276.171 392.624 277.951 386.464 281.311 381.154C287.461 371.344 298.051 365.484 309.631 365.484C328.091 365.484 343.101 380.504 343.101 398.954C343.101 414.854 331.791 428.654 316.211 431.774C314.051 432.204 311.841 432.414 309.631 432.414L309.641 432.404ZM309.641 372.034C300.331 372.034 291.811 376.744 286.871 384.634C284.171 388.914 282.741 393.854 282.741 398.944C282.741 399.884 282.791 400.814 282.891 401.794C283.781 410.294 288.751 417.934 296.171 422.224C300.251 424.594 304.901 425.844 309.641 425.844C311.431 425.844 313.211 425.674 314.941 425.324C327.461 422.814 336.551 411.724 336.551 398.944C336.551 384.104 324.481 372.034 309.641 372.034Z" fill="#232323"/>
<path d="M442.621 398.945C442.621 404.965 440.861 410.565 437.821 415.265C433.971 421.255 428.061 425.785 421.091 427.855C418.351 428.685 415.441 429.125 412.431 429.125C395.761 429.125 382.251 415.615 382.251 398.945C382.251 387.555 388.551 377.645 397.861 372.505C402.181 370.115 407.141 368.755 412.431 368.755C414.211 368.755 415.951 368.905 417.651 369.215C431.831 371.675 442.621 384.055 442.621 398.945Z" fill="#232323"/>
<path d="M412.431 432.405C393.981 432.405 378.971 417.395 378.971 398.945C378.971 386.755 385.601 375.525 396.281 369.635C401.201 366.915 406.781 365.475 412.441 365.475C414.421 365.475 416.381 365.645 418.251 365.985C434.271 368.765 445.911 382.625 445.911 398.945C445.911 405.405 444.071 411.665 440.581 417.045C436.261 423.775 429.671 428.735 422.031 430.995C418.961 431.925 415.721 432.405 412.441 432.405H412.431ZM412.431 372.035C407.891 372.035 403.401 373.195 399.451 375.375C390.861 380.115 385.531 389.145 385.531 398.945C385.531 413.775 397.601 425.845 412.431 425.845C415.071 425.845 417.671 425.465 420.141 424.715C426.291 422.885 431.581 418.905 435.061 413.495C437.861 409.165 439.341 404.135 439.341 398.945C439.341 385.825 429.981 374.685 417.091 372.445C415.581 372.175 414.021 372.035 412.431 372.035Z" fill="#232323"/>
<path d="M382.251 410.085C380.711 410.085 379.341 409.005 379.031 407.435C377.461 399.515 368.091 396.085 360.081 396.235C352.451 396.385 344.231 399.865 343.071 407.305C342.791 409.095 341.111 410.325 339.321 410.035C337.531 409.745 336.311 408.075 336.591 406.285C338.341 395.095 349.591 389.885 359.951 389.675C370.621 389.475 383.171 394.525 385.471 406.155C385.821 407.935 384.671 409.655 382.891 410.015C382.671 410.055 382.461 410.075 382.251 410.075V410.085Z" fill="#232323"/>
<path d="M313.381 426.145C311.691 426.485 309.951 426.665 308.161 426.665C303.331 426.665 298.791 425.345 294.891 423.035L281.811 402.545C281.711 401.605 281.661 400.655 281.661 399.695C281.661 394.425 283.141 389.505 285.731 385.345L313.381 426.145Z" fill="#606060"/>
<path d="M435.461 413.384C432.061 418.714 426.851 422.744 420.701 424.584L400.211 375.364C404.021 373.234 408.401 372.034 413.061 372.034C414.631 372.034 416.161 372.164 417.661 372.444L435.451 413.394L435.461 413.384Z" fill="#606060"/>
</svg>
