<svg width="713" height="937" viewBox="0 0 713 937" fill="none" xmlns="http://www.w3.org/2000/svg">
<path d="M263.36 557.729C293.877 557.729 318.617 532.99 318.617 502.472C318.617 471.954 293.877 447.215 263.36 447.215C232.842 447.215 208.103 471.954 208.103 502.472C208.103 532.99 232.842 557.729 263.36 557.729Z" fill="#232323"/>
<path d="M297.416 496.806C297.416 524.192 275.224 546.397 247.837 546.397C220.45 546.397 198.246 524.192 198.246 496.806C198.246 480.917 205.718 466.775 217.334 457.709C225.739 451.134 236.328 447.215 247.837 447.215C272.343 447.215 292.682 464.992 296.696 488.342C297.168 491.104 297.416 493.925 297.416 496.806Z" fill="#5D6CF9"/>
<path d="M296.696 488.342C284.726 462.336 257.446 446.034 221.903 462.277L217.334 457.709C225.739 451.134 236.328 447.215 247.837 447.215C272.343 447.215 292.683 464.992 296.696 488.342Z" fill="white"/>
<path d="M247.825 550.269C218.349 550.269 194.362 526.282 194.362 496.807C194.362 467.331 218.349 443.344 247.825 443.344C277.301 443.344 301.288 467.331 301.288 496.807C301.288 526.282 277.301 550.269 247.825 550.269ZM247.825 451.099C222.622 451.099 202.106 471.604 202.106 496.818C202.106 522.033 222.611 542.537 247.825 542.537C273.04 542.537 293.544 522.033 293.544 496.818C293.544 471.604 273.04 451.099 247.825 451.099Z" fill="#232323"/>
<path d="M239.385 530.684C216.047 530.684 197.065 511.703 197.065 488.365C197.065 465.028 216.047 446.046 239.385 446.046C262.722 446.046 281.704 465.028 281.704 488.365C281.704 511.703 262.722 530.684 239.385 530.684ZM239.385 448.395C217.346 448.395 199.426 466.326 199.426 488.353C199.426 510.381 217.357 528.312 239.385 528.312C261.412 528.312 279.343 510.381 279.343 488.353C279.343 466.326 261.412 448.395 239.385 448.395Z" fill="#232323"/>
<path d="M244.213 487.94C244.343 490.549 243.882 493.229 242.796 495.79C238.487 505.942 226.187 509.85 216.767 504.124C200.099 493.996 178.485 475.003 179.961 445.125C181.235 419.226 211.337 411.896 211.337 411.896L208.114 440.238C208.114 440.238 207.536 442.776 208.74 446.884C210.558 453.105 216.484 462.891 234.698 472.831C240.459 475.959 243.929 481.778 244.213 487.94Z" fill="#495287"/>
<path d="M244.213 487.94C227.675 480.031 209.838 468.191 204.856 447.214L204.833 445.042L208.74 446.883C210.558 453.104 216.484 462.89 234.698 472.83C240.459 475.958 243.929 481.778 244.213 487.94Z" fill="white"/>
<path d="M226.187 510.64C222.197 510.64 218.243 509.554 214.749 507.429C196.251 496.191 174.542 476.23 176.077 444.924C177.482 416.475 209.059 408.448 210.405 408.118C211.632 407.822 212.931 408.141 213.887 408.979C214.831 409.817 215.315 411.069 215.174 412.32L211.951 440.674C211.939 440.816 211.916 440.958 211.88 441.099C211.88 441.158 209.744 454.816 236.552 469.43C246.574 474.896 250.788 486.877 246.361 497.313C243.87 503.168 238.972 507.642 232.928 509.589C230.732 510.298 228.454 510.652 226.199 510.652L226.187 510.64ZM206.792 417.502C198.754 420.772 184.635 428.823 183.821 445.314C182.463 472.806 202.082 490.667 218.774 500.807C222.315 502.967 226.612 503.475 230.555 502.2C234.462 500.937 237.626 498.056 239.231 494.267C242.1 487.527 239.349 479.759 232.845 476.218C202.271 459.55 203.841 442.256 204.266 439.683L206.792 417.49V417.502Z" fill="#232323"/>
<path d="M449.198 557.73C479.716 557.73 504.456 532.991 504.456 502.473C504.456 471.955 479.716 447.216 449.198 447.216C418.681 447.216 393.941 471.955 393.941 502.473C393.941 532.991 418.681 557.73 449.198 557.73Z" fill="#232323"/>
<path d="M514.325 496.807C514.325 524.193 492.132 546.398 464.745 546.398C437.359 546.398 415.155 524.193 415.155 496.807C415.155 493.336 415.509 489.948 416.193 486.667C420.868 464.144 440.829 447.216 464.745 447.216C481.012 447.216 495.449 455.054 504.491 467.165C510.665 475.429 514.325 485.687 514.325 496.807Z" fill="#5D6CF9"/>
<path d="M504.492 467.165C501.481 467.614 497.303 466.457 491.483 462.633C467.378 446.803 429.722 455.243 419.357 491.294L416.194 486.667C420.868 464.144 440.83 447.216 464.746 447.216C481.012 447.216 495.449 455.054 504.492 467.165Z" fill="white"/>
<path d="M464.734 550.27C435.258 550.27 411.271 526.283 411.271 496.807C411.271 467.332 435.258 443.345 464.734 443.345C494.21 443.345 518.197 467.332 518.197 496.807C518.197 526.283 494.21 550.27 464.734 550.27ZM464.734 451.1C439.531 451.1 419.015 471.605 419.015 496.819C419.015 522.034 439.519 542.538 464.734 542.538C489.948 542.538 510.453 522.034 510.453 496.819C510.453 471.605 489.948 451.1 464.734 451.1Z" fill="#232323"/>
<path d="M473.185 530.684C449.847 530.684 430.866 511.702 430.866 488.364C430.866 465.027 449.847 446.045 473.185 446.045C496.523 446.045 515.504 465.027 515.504 488.364C515.504 511.702 496.523 530.684 473.185 530.684ZM473.185 448.394C451.146 448.394 433.227 466.325 433.227 488.352C433.227 510.38 451.158 528.311 473.185 528.311C495.212 528.311 513.143 510.38 513.143 488.352C513.143 466.325 495.212 448.394 473.185 448.394Z" fill="#232323"/>
<path d="M505.636 497.382C502.307 499.955 498.966 502.198 495.803 504.122C486.383 509.848 474.082 505.94 469.774 495.788C466.114 487.195 469.667 477.291 477.872 472.829C508.115 456.338 504.455 440.236 504.455 440.236L501.233 411.894C501.233 411.894 502.378 412.177 504.243 412.814C511.892 415.47 531.582 424.288 532.609 445.123C533.801 469.334 519.837 486.392 505.636 497.382Z" fill="#495287"/>
<path d="M505.636 497.384L500.501 498.175C500.501 498.175 552.193 438.527 502.744 420.749L504.243 412.816C511.892 415.472 531.582 424.29 532.609 445.125C533.802 469.337 519.837 486.394 505.636 497.384Z" fill="white"/>
<path d="M486.371 510.639C484.105 510.639 481.838 510.285 479.642 509.577C473.587 507.629 468.7 503.155 466.209 497.3C461.77 486.865 465.985 474.883 476.018 469.418C502.815 454.804 500.69 441.146 500.666 441.004C500.631 440.862 500.631 440.803 500.607 440.662L497.385 412.307C497.243 411.044 497.727 409.805 498.671 408.967C499.616 408.128 500.926 407.81 502.154 408.105C503.499 408.435 535.077 416.462 536.481 444.911C538.028 476.205 516.307 496.179 497.821 507.416C494.327 509.541 490.373 510.627 486.383 510.627L486.371 510.639ZM473.339 494.278C474.944 498.055 478.108 500.948 482.015 502.211C485.946 503.474 490.243 502.966 493.796 500.818C510.488 490.678 530.107 472.817 528.749 445.325C527.935 428.834 513.817 420.771 505.778 417.513L508.304 439.706C508.729 442.279 510.311 459.573 479.725 476.241C473.221 479.782 470.47 487.549 473.339 494.29V494.278Z" fill="#232323"/>
<path d="M400.257 558.708C389.999 558.708 382.68 557.586 381.783 557.445C379.67 557.103 378.242 555.119 378.572 553.006C378.915 550.893 380.898 549.465 383.011 549.796C383.637 549.902 445.87 559.369 464.828 519.741C465.749 517.817 468.063 516.991 469.999 517.923C471.923 518.844 472.749 521.158 471.816 523.094C457.202 553.62 422.084 558.72 400.246 558.72L400.257 558.708Z" fill="#232323"/>
<path d="M376.329 570.43C384.98 570.43 391.993 563.417 391.993 554.765C391.993 546.114 384.98 539.101 376.329 539.101C367.677 539.101 360.664 546.114 360.664 554.765C360.664 563.417 367.677 570.43 376.329 570.43Z" fill="#232323"/>
</svg>
