<svg width="713" height="937" viewBox="0 0 713 937" fill="none" xmlns="http://www.w3.org/2000/svg">
<path d="M241.974 348.039C203.89 367.567 110.575 373.244 154.151 388.129C175.261 395.335 200.657 391.68 224.536 388.749C242.356 386.554 256.908 363.325 265.992 361.682C287.241 357.832 241.985 348.039 241.985 348.039H241.974Z" fill="#4794D8"/>
<path d="M183.302 396.116C172.735 396.116 162.47 394.978 152.911 391.703C145.878 389.3 138.73 386.082 139.008 380.473C139.39 372.807 152.529 369.394 182.224 362.394C202.593 357.601 225.672 352.165 240.224 344.694C241.012 344.292 241.916 344.177 242.785 344.361C275.585 351.452 275.504 356.567 275.458 359.026C275.377 363.808 269.271 364.911 266.664 365.394C264.057 365.865 259.399 370.164 254.892 374.324C246.817 381.772 236.772 391.047 224.988 392.496L221.478 392.932C208.768 394.507 195.815 396.116 183.302 396.116ZM147.06 380.749C147.964 381.45 150.177 382.795 155.391 384.576C174.635 391.151 197.97 388.254 220.551 385.45L224.073 385.013C233.412 383.864 242.46 375.508 249.725 368.796C255.286 363.658 259.77 359.521 264.196 358.233C259.121 356.245 250.42 353.785 242.484 352.015C227.086 359.578 204.226 364.969 183.985 369.727C169.978 373.025 151.115 377.462 147.06 380.749Z" fill="#232323"/>
<path d="M222.488 390.935C305.363 354.489 461.846 376.856 493.279 393.602C493.279 393.602 510.114 335.732 477.221 286.574C452.009 248.91 398.887 240.864 312.28 250.312C224.365 259.909 216.162 334.008 216.857 352.168C217.552 370.327 222.499 390.935 222.499 390.935H222.488Z" fill="#4794D8"/>
<mask id="mask0_1128_33576" style="mask-type:alpha" maskUnits="userSpaceOnUse" x="216" y="246" width="282" height="148">
<path d="M222.488 390.935C305.363 354.489 461.846 376.856 493.279 393.602C493.279 393.602 510.114 335.732 477.221 286.574C452.009 248.91 398.887 240.864 312.28 250.312C224.365 259.909 216.162 334.008 216.857 352.168C217.552 370.327 222.499 390.935 222.499 390.935H222.488Z" fill="#4794D8"/>
</mask>
<g mask="url(#mask0_1128_33576)">
<path d="M486 390C486 244 367.667 249.667 295.5 258C289.833 256.5 273.6 246.9 254 220.5C229.5 187.5 228 182 234 158C238.8 138.8 253.667 107.667 260.5 94.5003C331.333 93.667 480.1 93.3003 508.5 98.5003C544 105 592 301.5 594.5 334C597 366.5 493.5 429 486 390Z" fill="white"/>
</g>
<path d="M493.265 397.37C492.639 397.37 492.025 397.221 491.469 396.922C477.021 389.233 431.974 379.314 376.94 376.084C340.258 373.935 271.611 373.452 224.026 394.382C222.995 394.842 221.813 394.807 220.794 394.313C219.786 393.819 219.044 392.899 218.778 391.807C218.569 390.957 213.738 370.636 213.031 352.316C212.915 349.362 212.382 322.697 228.035 296.135C244.673 267.884 273.661 250.736 311.837 246.575C405.338 236.369 455.737 247.713 480.358 284.504C513.853 334.535 497.61 392.233 496.903 394.658C496.59 395.75 495.791 396.646 494.725 397.083C494.25 397.278 493.751 397.382 493.253 397.382L493.265 397.37ZM343.491 367.556C356.317 367.556 367.903 368.004 377.392 368.556C423.053 371.234 469.849 379.452 490.646 388.199C493.635 374.061 500.448 328.122 474.032 288.664C451.207 254.563 402.951 244.219 312.672 254.069C276.465 258.023 250.199 273.459 234.604 299.94C220.041 324.662 220.527 349.304 220.631 352.04C221.118 364.706 223.748 378.751 225.208 385.693C261.229 371.108 307.261 367.568 343.479 367.568L343.491 367.556Z" fill="#232323"/>
<path d="M348.204 314.141L335.098 320.141L332.578 323.141V332.641V343.641L387.52 342.641L388.528 336.641V321.641C382.647 319.141 370.785 314.141 370.382 314.141H348.204Z" fill="#F4D93B"/>
<path d="M403.446 376.148C403.018 376.148 402.589 376.079 402.16 375.93C400.179 375.228 399.16 373.068 399.866 371.102C402.728 363.16 402.925 357.632 400.48 354.195C395.069 346.598 375.814 346.667 351.471 346.747C345.018 346.77 338.355 346.793 331.288 346.678C329.214 346.644 327.546 344.966 327.546 342.909V327.507C327.546 322.737 329.457 318.289 332.922 314.991C336.386 311.681 340.939 309.968 345.747 310.163L375.477 311.336C384.99 311.715 392.37 319.404 392.289 328.84L392.173 341.472C398.731 343.012 403.655 345.587 406.69 349.839C410.676 355.437 410.78 363.218 407.027 373.642C406.47 375.182 405.01 376.148 403.446 376.148ZM358.84 339.185C368.63 339.185 377.285 339.323 384.572 340.185L384.677 328.772C384.723 323.427 380.552 319.082 375.165 318.864L345.434 317.692C342.735 317.577 340.14 318.554 338.182 320.427C336.224 322.301 335.146 324.818 335.146 327.507V339.185C340.777 339.242 346.176 339.219 351.436 339.196C353.974 339.196 356.441 339.173 358.84 339.173V339.185Z" fill="#232323"/>
<path d="M387.207 364.512C389.696 364.512 391.714 362.511 391.714 360.041C391.714 357.572 389.696 355.57 387.207 355.57C384.717 355.57 382.7 357.572 382.7 360.041C382.7 362.511 384.717 364.512 387.207 364.512Z" fill="#232323"/>
</svg>
