<svg width="713" height="937" viewBox="0 0 713 937" fill="none" xmlns="http://www.w3.org/2000/svg">
<path d="M214.94 361.305C222.21 340.273 315.173 200.304 363.217 227.829C363.217 227.829 383.215 214.845 406.058 234.065C428.901 253.286 459.816 284.19 474.866 306.779C489.917 329.368 501.611 369.609 501.611 369.609L351.778 334.559L214.928 361.305H214.94Z" fill="#C7C3BA"/>
<mask id="mask0_1128_33608" style="mask-type:alpha" maskUnits="userSpaceOnUse" x="214" y="223" width="288" height="147">
<path d="M214.94 361.305C222.21 340.273 315.173 200.304 363.217 227.829C363.217 227.829 383.215 214.845 406.058 234.065C428.901 253.286 459.816 284.19 474.866 306.779C489.917 329.368 501.611 369.609 501.611 369.609L351.778 334.559L214.928 361.305H214.94Z" fill="#C7C3BA"/>
</mask>
<g mask="url(#mask0_1128_33608)">
<path d="M424 262C400 232 373.667 229.167 363.5 231.5C363.5 225.167 361.7 210.6 354.5 203C345.5 193.5 302 170.5 290.5 160.5C281.3 152.5 272 138.5 268.5 132.5L424 157.5L529.5 291.5C521.5 317.833 500.7 363.1 481.5 333.5C457.5 296.5 458 299 424 262Z" fill="white"/>
</g>
<path d="M501.623 373.415C501.333 373.415 501.042 373.38 500.752 373.311L351.72 338.446L215.671 365.042C214.336 365.309 212.954 364.833 212.06 363.799C211.165 362.765 210.887 361.337 211.34 360.048C214.8 350.037 233.788 319.76 255.493 292.328C275.793 266.685 305.732 233.957 333.15 223.668C344.531 219.394 354.635 219.347 363.217 223.493C369.337 220.567 388.139 213.982 408.52 231.112C431.015 250.031 462.37 281.109 478.048 304.627C493.261 327.448 504.805 366.842 505.281 368.514C505.664 369.815 505.316 371.22 504.387 372.196C503.655 372.962 502.657 373.38 501.623 373.38V373.415ZM351.79 330.746C352.08 330.746 352.37 330.781 352.661 330.851L496.014 364.38C492.112 352.266 482.763 325.474 471.707 308.889C457.121 287.009 426.416 256.151 403.608 236.977C383.157 219.777 365.47 230.915 365.296 231.019C364.1 231.797 362.567 231.844 361.324 231.135C354.414 227.175 345.832 227.07 335.833 230.822C291.9 247.302 235.658 328.888 221.478 356.145L351.058 330.816C351.302 330.769 351.546 330.746 351.79 330.746Z" fill="#232323"/>
<path d="M213.259 409.118C207.476 383.73 240.132 360.526 278.502 358.796C316.872 357.065 371.93 358.796 407.246 358.796C442.561 358.796 488.016 368.702 499.396 402.87L501.684 422.962C501.684 422.962 514.749 412.8 512.763 393.416C510.777 374.033 512.508 350.178 490.698 338.402C468.889 326.626 455.371 308.241 405.515 306.848C355.66 305.454 326.848 301.308 294.342 305.814C261.837 310.32 236.392 324.791 222.364 342.513C209.705 358.505 204.712 369.411 203.667 382.964C202.621 396.517 213.259 409.106 213.259 409.106V409.118Z" fill="#A8A8A8"/>
<mask id="mask1_1128_33608" style="mask-type:alpha" maskUnits="userSpaceOnUse" x="203" y="303" width="310" height="120">
<path d="M213.259 409.118C207.476 383.73 240.132 360.526 278.502 358.796C316.872 357.065 371.93 358.796 407.246 358.796C442.561 358.796 488.016 368.702 499.396 402.87L501.684 422.962C501.684 422.962 514.749 412.8 512.763 393.416C510.777 374.033 512.508 350.178 490.698 338.402C468.889 326.626 455.371 308.241 405.515 306.848C355.66 305.454 326.848 301.308 294.342 305.814C261.837 310.32 236.392 324.791 222.364 342.513C209.705 358.505 204.712 369.411 203.667 382.964C202.621 396.517 213.259 409.106 213.259 409.106V409.118Z" fill="#A8A8A8"/>
</mask>
<g mask="url(#mask1_1128_33608)">
<path d="M472 340C440.814 311.096 339.667 308.333 295.5 310L268 311.5C266 313.833 261.5 317.1 259.5 311.5C257 304.5 244 288 244.5 286C245 284 295.5 246 295.5 245C295.5 244.2 330.5 235.667 348 231.5C390 243.167 478.4 268.6 496 277C518 287.5 536.5 334.5 539 340C541.5 345.5 541.5 384.5 540.5 397C539.5 409.5 508.966 437.88 505.5 414C501 383 513 378 472 340Z" fill="white"/>
</g>
<path d="M501.685 426.781C501.185 426.781 500.686 426.688 500.21 426.479C498.944 425.945 498.061 424.772 497.899 423.402L495.658 403.716C482.604 365.589 424.724 362.615 407.246 362.615C396.191 362.615 383.195 362.441 369.434 362.267C339.205 361.872 304.946 361.431 278.677 362.615C254.997 363.684 232.909 373.3 222.376 387.12C217.231 393.88 215.362 401.196 216.964 408.281C217.359 410 216.523 411.753 214.955 412.543C213.387 413.321 211.483 412.938 210.345 411.591C209.868 411.033 198.72 397.642 199.858 382.696C200.961 368.271 206.245 356.739 219.368 340.166C235.069 320.318 262.198 306.428 293.809 302.05C316.826 298.868 338.299 299.959 365.485 301.353C377.238 301.957 390.547 302.631 405.62 303.049C445.221 304.152 462.99 315.998 478.679 326.45C483.313 329.54 487.702 332.466 492.51 335.056C513.054 346.147 514.552 366.599 515.865 384.647C516.074 387.573 516.283 390.337 516.561 393.032C518.745 414.273 504.634 425.504 504.031 425.98C503.345 426.514 502.521 426.781 501.696 426.781H501.685ZM321.1 354.219C337.23 354.219 353.919 354.439 369.538 354.637C383.265 354.811 396.237 354.985 407.246 354.985C426.071 354.985 488.597 358.353 503.009 401.672C503.09 401.928 503.148 402.183 503.183 402.451L504.484 413.913C507.236 409.535 509.884 402.822 508.966 393.822C508.676 391.011 508.467 388.061 508.258 385.204C507.027 368.329 505.749 350.874 488.887 341.769C483.766 339.005 479.027 335.846 474.452 332.791C458.902 322.432 442.829 311.713 405.411 310.667C390.256 310.249 376.889 309.564 365.102 308.96C337.265 307.532 317.163 306.51 294.865 309.599C265.182 313.71 239.842 326.578 225.349 344.893C213.283 360.142 208.44 370.536 207.465 383.276C207.128 387.643 208.231 391.975 209.741 395.691C210.902 391.162 213.109 386.726 216.325 382.51C228.159 366.971 252.501 356.17 278.34 355.009C291.196 354.428 305.91 354.23 321.111 354.23L321.1 354.219Z" fill="#232323"/>
<path d="M235.803 370.814C230.089 365.739 232.853 333.197 232.853 333.197L235.803 370.814Z" fill="#C7C3BA"/>
<path d="M235.809 371.974C235.53 371.974 235.263 371.881 235.042 371.683C229.062 366.376 231.419 336.482 231.709 333.091C231.767 332.452 232.313 331.976 232.964 332.034C233.602 332.092 234.078 332.65 234.02 333.288C232.929 346.133 232.708 366.504 236.587 369.941C237.063 370.371 237.11 371.103 236.68 371.579C236.448 371.834 236.134 371.974 235.809 371.974Z" fill="#232323"/>
<path d="M272.951 310.477C269.897 335.609 270.594 357.942 270.594 357.942L272.951 310.477Z" fill="#C7C3BA"/>
<path d="M270.595 359.102C269.967 359.102 269.456 358.603 269.433 357.976C269.433 357.755 268.771 335.271 271.802 310.336C271.884 309.697 272.453 309.245 273.091 309.326C273.73 309.407 274.183 309.976 274.102 310.615C271.094 335.364 271.744 357.685 271.744 357.906C271.767 358.545 271.257 359.079 270.618 359.102C270.606 359.102 270.595 359.102 270.583 359.102H270.595Z" fill="#232323"/>
<path d="M317.648 359.096C317.021 359.096 316.51 358.597 316.487 357.97L314.605 303.815C314.582 303.176 315.081 302.631 315.72 302.619C316.382 302.596 316.893 303.095 316.916 303.734L318.798 357.889C318.821 358.527 318.322 359.073 317.683 359.085C317.671 359.085 317.66 359.085 317.636 359.085L317.648 359.096Z" fill="#232323"/>
<path d="M375.667 305.69C375.667 315.701 373.415 358.51 373.415 358.51L375.667 305.69Z" fill="#C7C3BA"/>
<path d="M373.424 359.671C373.424 359.671 373.377 359.671 373.365 359.671C372.727 359.636 372.239 359.091 372.262 358.452C372.285 358.022 374.515 315.562 374.515 305.691C374.515 305.052 375.038 304.529 375.676 304.529C376.315 304.529 376.838 305.052 376.838 305.691C376.838 315.62 374.608 358.15 374.585 358.568C374.55 359.183 374.039 359.671 373.424 359.671Z" fill="#232323"/>
<path d="M421.701 358.514C423.118 348.247 424.674 309.469 424.674 309.469L421.701 358.514Z" fill="#C7C3BA"/>
<path d="M421.703 359.672C421.703 359.672 421.598 359.672 421.54 359.672C420.901 359.579 420.46 358.999 420.553 358.36C421.946 348.267 423.503 309.814 423.514 309.431C423.538 308.792 424.083 308.293 424.722 308.316C425.361 308.339 425.86 308.885 425.837 309.524C425.779 311.115 424.257 348.476 422.852 358.673C422.771 359.254 422.272 359.672 421.703 359.672Z" fill="#232323"/>
<path d="M470.316 325.514C474.88 344.955 470.316 370.807 470.316 370.807V325.514Z" fill="#C7C3BA"/>
<path d="M470.314 371.971C470.244 371.971 470.175 371.971 470.117 371.948C469.489 371.832 469.06 371.239 469.176 370.601C469.222 370.345 473.647 344.76 469.187 325.772C469.037 325.144 469.431 324.517 470.058 324.378C470.686 324.227 471.313 324.622 471.452 325.249C476.016 344.702 471.649 369.939 471.464 371.007C471.371 371.564 470.871 371.971 470.326 371.971H470.314Z" fill="#232323"/>
<path d="M494.052 391.839C501.183 382.177 501.612 348.16 501.612 348.16L494.052 391.839Z" fill="#C7C3BA"/>
<path d="M494.055 392.998C493.811 392.998 493.579 392.928 493.37 392.766C492.859 392.382 492.743 391.662 493.126 391.14C499.954 381.884 500.454 348.471 500.465 348.134C500.465 347.495 500.988 346.984 501.627 346.984H501.638C502.277 346.984 502.788 347.519 502.788 348.157C502.765 349.563 502.265 382.662 494.996 392.51C494.763 392.824 494.415 392.986 494.055 392.986V392.998Z" fill="#232323"/>
<path d="M278.559 309.469C291.717 293.024 315.083 241.262 324.431 233.295L278.559 309.469Z" fill="#C7C3BA"/>
<path d="M278.562 310.625C278.306 310.625 278.051 310.543 277.842 310.369C277.343 309.974 277.261 309.243 277.656 308.732C283.892 300.939 292.498 285.04 300.813 269.663C309.987 252.707 318.651 236.692 323.691 232.406C324.179 231.988 324.91 232.046 325.328 232.534C325.746 233.022 325.688 233.754 325.201 234.172C320.497 238.178 311.532 254.751 302.868 270.766C294.495 286.236 285.843 302.228 279.479 310.183C279.247 310.474 278.91 310.625 278.574 310.625H278.562Z" fill="#232323"/>
<path d="M345.175 224.528C338.451 239.51 324.434 303.78 324.434 303.78L345.175 224.528Z" fill="#C7C3BA"/>
<path d="M324.435 304.945C324.354 304.945 324.273 304.945 324.191 304.922C323.564 304.783 323.169 304.167 323.309 303.54C323.878 300.915 337.43 238.979 344.12 224.067C344.387 223.487 345.072 223.22 345.653 223.487C346.233 223.754 346.5 224.439 346.233 225.02C339.637 239.723 325.713 303.401 325.562 304.04C325.445 304.585 324.958 304.957 324.424 304.957L324.435 304.945Z" fill="#232323"/>
<path d="M359.751 306.517C362.004 272.93 361.795 228.09 361.795 228.09L359.751 306.517Z" fill="#C7C3BA"/>
<path d="M359.747 307.676C359.747 307.676 359.701 307.676 359.666 307.676C359.027 307.63 358.539 307.084 358.586 306.445C360.804 273.288 360.63 228.552 360.63 228.099C360.63 227.46 361.141 226.938 361.791 226.938C362.43 226.938 362.952 227.449 362.952 228.099C362.952 228.552 363.138 273.369 360.908 306.608C360.862 307.223 360.351 307.688 359.747 307.688V307.676Z" fill="#232323"/>
<path d="M380.172 225.664C393.504 237.615 401.412 308.76 401.412 308.76L380.172 225.664Z" fill="#C7C3BA"/>
<path d="M401.414 309.927C400.833 309.927 400.322 309.485 400.264 308.893C400.183 308.185 392.251 238.049 379.407 226.529C378.931 226.099 378.884 225.367 379.314 224.891C379.743 224.415 380.475 224.368 380.951 224.798C394.457 236.9 402.238 305.711 402.563 308.638C402.633 309.276 402.18 309.845 401.541 309.915C401.495 309.915 401.46 309.915 401.414 309.915V309.927Z" fill="#232323"/>
<path d="M446.826 315.861C439.207 293.702 417.572 245.749 417.572 245.749L446.826 315.861Z" fill="#C7C3BA"/>
<path d="M446.822 317.027C446.334 317.027 445.893 316.725 445.719 316.237C438.205 294.38 416.721 246.706 416.5 246.218C416.233 245.637 416.5 244.94 417.081 244.685C417.661 244.418 418.347 244.685 418.614 245.266C418.834 245.742 440.365 293.521 447.914 315.482C448.123 316.086 447.798 316.748 447.194 316.957C447.066 317.004 446.938 317.015 446.811 317.015L446.822 317.027Z" fill="#232323"/>
</svg>
