<svg width="713" height="937" viewBox="0 0 713 937" fill="none" xmlns="http://www.w3.org/2000/svg">
<g clip-path="url(#clip0_1128_33528)">
<path d="M307.487 266.958C309.071 237.739 337.895 205.974 353.531 221.851C353.531 221.851 373.319 210.607 380.159 224.539C380.159 224.539 405.082 220.879 409.475 236.024C409.475 236.024 430.792 232.112 435.403 245.06C435.403 245.06 460.294 248.644 462.49 265.297C462.49 265.297 484.441 265.811 478.115 291.227C471.788 316.643 399.947 292.462 399.947 292.462L307.476 266.947L307.487 266.958Z" fill="#FF669D"/>
<path d="M453.814 306.394C430.803 306.394 401.389 296.723 398.909 295.893L306.536 270.411C304.908 269.963 303.815 268.444 303.914 266.762C305.061 245.541 320.216 221.578 336.333 215.481C342.921 212.99 349.127 213.744 354.099 217.568C358.142 215.7 366.697 212.52 374.04 214.782C377.405 215.82 380.115 217.82 382.104 220.737C388.594 220.224 405.923 220.06 411.813 232.112C418.117 231.511 432.606 231.369 437.949 241.881C444.013 243.127 461.648 247.934 465.505 262.063C469.002 262.697 474.881 264.522 478.858 269.734C483.021 275.197 483.95 282.726 481.611 292.112C480.475 296.669 477.656 300.209 473.231 302.635C468.237 305.367 461.375 306.405 453.825 306.405L453.814 306.394ZM311.311 264.292L400.908 289.009C400.974 289.031 401.039 289.042 401.094 289.064C415.211 293.817 455.06 304.383 469.767 296.33C472.4 294.888 473.995 292.932 474.64 290.364C476.421 283.196 475.919 277.721 473.143 274.072C469.417 269.176 462.49 268.881 462.413 268.881C460.643 268.838 459.179 267.516 458.939 265.767C457.125 252.021 435.108 248.634 434.89 248.601C433.579 248.404 432.475 247.508 432.027 246.252C428.498 236.341 410.305 239.51 410.119 239.532C408.305 239.859 406.546 238.767 406.033 237.007C402.558 225.053 380.891 228.036 380.672 228.069C379.132 228.288 377.624 227.501 376.936 226.102C375.788 223.775 374.149 222.3 371.92 221.611C366.26 219.863 357.989 223.425 355.29 224.955C353.881 225.753 352.1 225.501 350.974 224.354C347.707 221.032 343.741 220.322 338.857 222.169C327.209 226.572 313.518 245.126 311.3 264.27L311.311 264.292Z" fill="#232323"/>
<path d="M473.337 288.637C383.751 240.099 318.268 257.036 269.077 283.753C219.897 310.469 182.758 365.191 182.758 365.191L178.846 425.793C178.846 425.793 214.958 486.995 301.704 494.206C458.444 507.231 484.493 464.714 528.712 426.437V344.671C528.712 344.671 518.693 318.61 473.337 288.637ZM356.008 470.746C280.714 470.746 261.92 434.589 261.92 401.032C261.92 367.475 292.22 342.758 353.452 343.37C386.351 343.698 455.417 355.095 455.417 400.704C455.417 446.313 431.314 470.746 356.008 470.746Z" fill="#FFA3C8"/>
<path d="M525 352.5C471.5 285.5 380.5 233.001 257 299.5L247 295.502L263 287.002L301.5 268.002L338.5 260.002H363L391.5 263.002L417 268.002L449 279.502L476 292.502L503.5 315.002L525 341.002V352.5Z" fill="#FFD5E6"/>
<path d="M471.488 291.706C435.617 272.19 395.003 258.958 353.788 261.46C326.395 262.902 299.778 271.36 275.478 283.959C247.878 298.055 224.702 319.406 204.39 342.582C197.703 350.373 191.114 358.525 185.258 366.884L185.772 365.376L181.794 425.977L181.39 424.283C199.146 450.978 226.636 470.712 256.63 481.562C271.807 487.048 287.683 490.173 303.778 491.397C336.186 493.921 368.867 494.893 401.165 490.905C425.094 487.966 448.914 481.781 469.937 469.772C491.374 457.807 508.037 440.193 526.558 423.955L525.421 426.436L525.269 344.669L525.498 345.904C523.619 341.686 520.963 337.676 518.254 333.917C505.754 317.002 488.883 303.376 471.488 291.717V291.706ZM475.17 285.565C486.173 292.995 497.472 301.497 506.978 310.752C514.298 317.811 521.193 325.514 526.765 334.092C528.186 336.266 529.53 338.528 530.721 340.866C531.256 341.959 532.076 343.314 532.141 344.669L531.988 426.436C531.988 427.419 531.54 428.315 530.852 428.916C512.517 444.891 494.794 463.271 473.029 475.236C451.252 487.572 426.613 493.997 401.93 496.97C385.54 499.024 369.052 499.647 352.553 499.592C327.827 499.078 302.991 498.565 278.647 493.844C246.053 487.091 215.328 470.876 192.098 446.924C186.241 440.838 180.822 434.489 176.287 427.299C175.97 426.775 175.839 426.184 175.883 425.605L179.729 365.004C179.762 364.447 179.948 363.922 180.243 363.496C186.34 354.744 192.885 346.647 199.757 338.583C220.474 314.795 244.316 292.864 272.55 278.309C297.517 265.241 325.095 256.379 353.395 254.795C395.997 252.052 438.031 265.47 475.17 285.565Z" fill="#232323"/>
<path d="M356.007 474.329C317.075 474.438 271.239 463.554 260.957 420.218C246.25 355.476 309.023 337.796 360.792 340.713C397.385 342.8 458.858 355.399 458.519 401.839C458.432 415.935 456.028 430.588 448.018 442.564C428.657 471.192 387.508 473.826 356.007 474.329ZM356.007 467.16C381.345 466.887 411.185 465.543 432.175 450.005C444.839 440.531 450.739 425.365 451.908 409.706C452.291 404.603 452.586 399.238 451.745 394.201C446.981 367.331 415.949 356.175 392.337 350.799C359.252 343.653 312.628 342.92 284.23 363.474C271.479 372.686 264.213 387.492 265.087 403.216C266.398 454.223 312.607 467.587 356.007 467.16Z" fill="#232323"/>
<path d="M188.072 363.324C170.633 357.74 153.927 375.78 164.679 391.909C164.679 391.909 145.797 425.138 174.654 430.022C203.511 434.906 211.706 370.896 188.072 363.324Z" fill="#FF669D"/>
<path d="M186.98 366.734C177.409 363.313 165.368 370.187 164.909 380.6C164.734 383.812 165.772 387.047 167.662 389.91C168.405 391.09 168.416 392.532 167.804 393.68C160.986 407.153 156.966 425.04 177.289 426.919C188.904 427.105 196.323 414.288 198.442 403.831C200.879 392.084 199.316 372.274 186.98 366.734ZM189.166 359.904C212.002 367.182 205.413 410.136 194.006 425.106C190.236 430.296 183.659 433.836 177.07 433.629C166.788 433.192 156.769 427.652 155.294 416.637C154.168 408.77 156.43 401.252 159.511 394.215C160.134 392.838 160.757 391.571 161.565 390.139C161.565 390.139 161.708 393.931 161.697 393.898C149.055 375.049 168.657 353.25 189.177 359.915L189.166 359.904Z" fill="#232323"/>
<path d="M166.042 388.601C170.577 391.082 174.98 393.803 179.285 396.709C179.821 397.081 179.952 397.802 179.58 398.337C179.307 398.731 178.848 398.905 178.4 398.829C173.309 397.846 168.261 396.676 163.3 395.234C158.372 393.497 161.311 386.35 166.032 388.601H166.042Z" fill="#232323"/>
<path d="M244.317 356.975C261.456 356.975 275.349 343.081 275.349 325.942C275.349 308.803 261.456 294.909 244.317 294.909C227.179 294.909 213.286 308.803 213.286 325.942C213.286 343.081 227.179 356.975 244.317 356.975Z" fill="white"/>
<path d="M278.857 325.943C278.813 344.027 262.107 359.38 244.329 359.325C214.325 359.237 199.115 323.288 220.094 301.707C241.729 279.897 278.955 295.14 278.857 325.943ZM271.842 325.943C271.525 301.609 242.198 289.261 224.672 306.296C210.359 320.163 214.981 344.617 233.37 352.386C252.677 360.221 272.246 346.781 271.842 325.943Z" fill="#232323"/>
<path d="M244.32 337.395C250.644 337.395 255.771 332.268 255.771 325.944C255.771 319.619 250.644 314.492 244.32 314.492C237.996 314.492 232.869 319.619 232.869 325.944C232.869 332.268 237.996 337.395 244.32 337.395Z" fill="#232323"/>
<path d="M528.712 344.672C528.712 344.672 584.907 309.323 580.022 335.712C580.022 335.712 587.354 353.064 577.335 363.324C577.335 363.324 592.479 382.621 576.111 391.909C576.111 391.909 587.835 407.327 579.039 415.85C579.039 415.85 587.595 435.639 572.44 441.256C572.44 441.256 583.923 454.696 572.199 455.188C560.475 455.679 528.712 426.439 528.712 426.439V344.672Z" fill="#FF669D"/>
<path d="M525.565 342.933C525.871 342.398 526.363 341.874 526.92 341.568C527.368 341.338 528.144 340.923 528.592 340.683C540.512 334.509 563.043 320.413 576.384 322.904C582.776 324.205 584.743 330.553 583.541 336.355C583.541 336.377 583.322 334.312 583.322 334.312C586.229 342.016 587.398 350.495 584.557 358.439C583.541 361.171 581.88 363.662 579.891 365.826L580.143 361.105C582.022 363.607 583.475 366.142 584.754 368.973C589.321 378.698 587.977 389.504 577.87 395.022L578.952 389.734C584.743 397.678 589.78 410.32 581.53 418.428L582.328 414.429C586.873 425.312 586.611 440.031 573.696 444.62C573.663 444.653 575.171 438.927 575.16 438.938C578.46 443.276 583.06 449.406 579.946 455.088C577.215 459.131 571.806 459.197 567.708 458.028C557.263 454.487 548.685 447.33 540.163 440.752C535.442 436.96 530.952 433.016 526.286 429.093C525.565 428.394 524.986 427.443 525.117 426.448C525.761 419.488 526.111 412.604 526.352 405.709C527.018 384.784 526.898 363.935 525.565 342.944V342.933ZM531.848 346.408C530.449 366.055 530.427 386.521 531.061 406.288C531.301 413.03 531.651 419.761 532.296 426.438C532.296 426.438 531.115 423.76 531.148 423.804C537.169 429.869 567.337 455.449 573.937 451.198C573.554 448.587 571.554 445.909 569.719 443.593C568.124 441.746 568.932 438.752 571.194 437.9C574.953 436.501 577.171 433.824 577.695 429.825C578.252 425.782 577.258 421.116 575.75 417.27C575.16 415.86 575.521 414.287 576.548 413.271C581.651 407.894 576.723 399.186 573.259 394.072C571.981 392.356 572.494 389.854 574.341 388.783C581.159 385.188 581.192 378.26 578.209 371.879C577.466 370.196 576.537 368.525 575.521 366.973C575.193 366.47 574.8 365.902 574.505 365.531C573.434 364.121 573.543 362.187 574.669 360.908C580.678 354.636 579.531 344.649 576.712 337.098C575.958 335.121 577.258 332.881 576.581 331.012C575.39 327.756 567.708 329.919 564.922 330.652C557.612 332.804 550.674 336.17 543.856 339.699C539.431 342.016 535.06 344.518 530.984 347.424L530.788 347.567L530.689 347.632L530.646 347.665C531.072 347.479 531.575 346.845 531.837 346.397L531.848 346.408Z" fill="#232323"/>
<path d="M234.638 473.512C242.527 469.95 246.351 461.023 248.952 453.155C249.837 450.293 250.624 447.353 251.17 444.392C251.257 443.813 252.186 443.9 252.143 444.49C251.706 453.844 249.772 463.449 244.166 471.207C242.8 473.207 235.436 480.582 233.48 476.397C232.999 475.283 233.524 473.982 234.649 473.512H234.638Z" fill="#232323"/>
<path d="M344.071 299.3C366.306 310.784 356.527 342.057 356.527 342.057L344.071 299.3Z" fill="#FFA3C8"/>
<path d="M344.42 298.633C360.81 306.238 362.602 327.087 358.625 342.713C358.319 343.882 357.117 344.581 355.959 344.275C354.724 343.958 354.025 342.614 354.462 341.412C355.041 339.686 355.522 337.73 355.904 335.84C358.745 322.716 356.712 306.872 343.743 299.977C342.901 299.529 343.557 298.207 344.431 298.633H344.42Z" fill="#232323"/>
<path d="M365.133 257.806C380.648 280.752 358.664 311.042 358.664 311.042L365.133 257.806Z" fill="#FFA3C8"/>
<path d="M366.946 256.57C376.529 271.682 371.557 290.935 363.111 305.381C361.92 307.468 360.664 309.489 359.243 311.456C359.014 311.773 358.566 311.849 358.249 311.609C357.932 311.38 357.867 310.931 358.096 310.615C360.686 306.746 362.871 302.54 364.652 298.212C368.968 287.712 371.208 275.517 366.64 264.776C365.755 262.689 364.565 260.777 363.275 258.941C361.636 256.46 365.329 254.035 366.946 256.57Z" fill="#232323"/>
<path d="M394.333 304.438C430.008 326.555 403.369 348.66 403.369 348.66L394.333 304.438Z" fill="#FFA3C8"/>
<path d="M394.823 303.652C412.481 313.672 422.194 329.997 407.367 347.666C406.023 349.097 403.827 352.364 401.685 350.179C400.833 349.239 400.975 347.753 401.98 346.988C403.499 345.721 405.062 344.038 406.285 342.41C417.78 327.462 407.313 313.836 393.851 305.225C392.868 304.602 393.796 303.051 394.823 303.663V303.652Z" fill="#232323"/>
<path d="M437.336 272.044C448.82 312.758 414.62 320.691 414.62 320.691L437.336 272.044Z" fill="#FFA3C8"/>
<path d="M439.434 271.443C444.58 290.194 440.843 309.655 422.071 318.735C419.733 319.872 417.351 320.801 414.772 321.413C414.368 321.511 413.964 321.26 413.866 320.855C413.767 320.451 414.029 320.047 414.434 319.948C416.739 319.26 419.045 318.233 421.186 317.042C438.057 307.765 440.734 289.735 435.216 272.624C434.429 269.804 438.603 268.592 439.423 271.433L439.434 271.443Z" fill="#232323"/>
<path d="M445.86 315.978C464.107 331.953 475.066 358.845 453.814 377.366C452.055 378.601 448.886 382.436 446.865 379.617C446.199 378.557 446.581 377.147 447.674 376.546C449.924 375.137 452.208 373.137 454.033 371.127C464.828 359.489 462.96 344.279 455.213 331.494C452.164 326.435 448.548 321.704 444.931 316.863C444.461 316.295 445.313 315.464 445.86 315.989V315.978Z" fill="#232323"/>
<path d="M498.229 304.888C499.682 308.898 501.168 313.149 501.747 317.399C502.009 319.3 502.348 322.043 502.272 323.944C502.446 334.817 497.726 346.236 488.439 352.355C487.51 352.945 486.483 351.655 487.302 350.901C493.082 345.438 496.961 337.855 497.988 329.965C498.447 325.07 498.196 319.934 496.907 315.17C496.295 312.22 495.093 309.149 494.099 306.33C493.224 303.598 497.202 302.189 498.218 304.899L498.229 304.888Z" fill="#232323"/>
<path d="M463.647 417.152C482.615 423.336 491.094 441.453 487.663 460.51C487.423 461.69 486.265 462.455 485.074 462.204C483.828 461.952 483.063 460.663 483.424 459.45C483.904 457.604 484.221 455.429 484.396 453.375C485.412 442.907 482.287 431.761 474.366 424.538C471.208 421.643 467.504 419.283 463.516 417.491C463.319 417.414 463.428 417.075 463.647 417.163V417.152Z" fill="#232323"/>
<path d="M488.756 370.22C501.988 383.441 505.922 403.995 495.618 420.2C494.231 422.385 492.723 424.428 490.811 426.275C490.428 426.647 489.827 426.636 489.467 426.253C489.117 425.904 489.117 425.357 489.412 424.986C497.673 413.239 499.628 397.614 493.87 384.381C492.1 379.956 489.718 375.727 487.063 371.585C486.364 370.526 487.86 369.302 488.756 370.231V370.22Z" fill="#232323"/>
<path d="M451.988 270.947C451.77 270.947 451.562 270.816 451.475 270.598C451.366 270.313 451.508 269.997 451.792 269.898L463.385 265.506C463.669 265.396 463.986 265.538 464.095 265.822C464.204 266.107 464.062 266.423 463.778 266.522L452.185 270.914C452.12 270.936 452.054 270.947 451.988 270.947Z" fill="#232323"/>
<path d="M574.803 442.786C574.716 442.786 574.617 442.764 574.53 442.71L548.547 427.882C548.284 427.729 548.197 427.401 548.339 427.139C548.492 426.876 548.82 426.789 549.082 426.931L575.065 441.759C575.328 441.912 575.415 442.24 575.273 442.502C575.175 442.677 574.989 442.775 574.803 442.775V442.786Z" fill="#232323"/>
<path d="M579.37 417.229C579.37 417.229 579.26 417.229 579.205 417.207C579.184 417.207 579.162 417.185 579.14 417.185C577.872 416.934 562.717 415.808 552.698 415.098C552.392 415.076 552.173 414.814 552.195 414.519C552.217 414.224 552.512 413.994 552.774 414.016C579.479 415.885 579.621 416.092 579.817 416.376C579.916 416.518 579.938 416.693 579.894 416.857C579.818 417.087 579.61 417.24 579.37 417.24V417.229Z" fill="#232323"/>
<path d="M576.923 391.112L556.217 390.751C555.911 390.751 555.671 390.5 555.682 390.194C555.693 389.888 555.966 389.637 556.239 389.659L576.945 390.019C577.251 390.019 577.491 390.27 577.48 390.576C577.48 390.871 577.229 391.112 576.934 391.112H576.923Z" fill="#232323"/>
<path d="M549.715 368.592C549.453 368.592 549.223 368.407 549.179 368.133C549.125 367.838 549.333 367.554 549.628 367.5L577.239 362.779C577.523 362.725 577.818 362.932 577.872 363.227C577.927 363.522 577.719 363.806 577.424 363.861L549.813 368.581C549.813 368.581 549.748 368.581 549.726 368.581L549.715 368.592Z" fill="#232323"/>
<path d="M555.178 347.962C554.97 347.962 554.774 347.842 554.686 347.645C554.555 347.372 554.675 347.044 554.948 346.913L579.784 335.21C580.058 335.079 580.385 335.2 580.516 335.473C580.647 335.746 580.527 336.074 580.254 336.205L555.418 347.908C555.342 347.94 555.265 347.962 555.189 347.962H555.178Z" fill="#232323"/>
</g>
<defs>
<clipPath id="clip0_1128_33528">
<rect width="462" height="432" fill="white" transform="translate(125 173)"/>
</clipPath>
</defs>
</svg>
