<svg width="713" height="937" viewBox="0 0 713 937" fill="none" xmlns="http://www.w3.org/2000/svg">
<path d="M377.803 223.088C380.676 210.939 422.189 216.33 421.086 239.466C419.983 262.603 380.93 235.869 380.93 235.869L377.803 223.088Z" fill="white"/>
<path d="M411.846 252.638C399.502 252.638 382.596 241.57 378.803 238.984C378.033 238.455 377.493 237.674 377.275 236.766L374.148 223.985C374.01 223.41 374.01 222.801 374.148 222.215C375.792 215.261 384.975 211.721 397.008 213.422C410.938 215.376 425.603 224.422 424.879 239.639C424.545 246.731 421.132 249.88 418.328 251.282C416.42 252.236 414.225 252.638 411.857 252.638H411.846ZM384.251 233.547C394.066 240.018 409.34 247.328 414.949 244.524C415.489 244.259 417.121 243.443 417.328 239.283C417.822 228.789 406.593 222.387 395.939 220.893C388.687 219.87 383.102 221.272 381.746 223.341L384.24 233.547H384.251Z" fill="#232323"/>
<path d="M208.085 337.886C184.099 326.22 197.327 291.911 209.751 275.211C224.382 255.787 246.104 242.133 267.849 232.18C290.869 221.686 317.153 216.882 342.208 219.295C392.95 223.985 442.945 243.662 484.952 271.591C499.743 281.648 513.88 294.808 522.086 310.037C531.441 327.174 533.119 351.207 510.639 355.919C501.835 357.965 493.594 357.746 483.963 356.953C455.966 354.138 430.291 331.714 401.73 326.645C366.562 319.634 330.095 331.449 294.616 334.656C265.55 336.851 234.542 348.77 208.223 337.966L208.085 337.897V337.886Z" fill="#449DD7"/>
<mask id="mask0_1128_33449" style="mask-type:alpha" maskUnits="userSpaceOnUse" x="194" y="218" width="335" height="140">
<path d="M208.085 337.886C184.099 326.22 197.327 291.911 209.751 275.211C224.382 255.787 246.104 242.133 267.849 232.18C290.869 221.686 317.153 216.882 342.208 219.295C392.95 223.985 442.945 243.662 484.952 271.591C499.743 281.648 513.88 294.808 522.086 310.037C531.441 327.174 533.119 351.207 510.639 355.919C501.835 357.965 493.594 357.746 483.963 356.953C455.966 354.138 430.291 331.714 401.73 326.645C366.562 319.634 330.095 331.449 294.616 334.656C265.55 336.851 234.542 348.77 208.223 337.966L208.085 337.897V337.886Z" fill="#449DD7"/>
</mask>
<g mask="url(#mask0_1128_33449)">
<path d="M528 341.5C528 280.5 369 217 303 234L287 220.5V211.5C288.167 206.667 290.4 196.7 290 195.5C289.6 194.3 312.5 162 324 146C419.5 176.167 611.9 239.2 617.5 250C624.5 263.5 645.5 342.5 528 341.5Z" fill="white"/>
</g>
<path d="M495.733 361.286C491.94 361.286 487.987 361.056 483.665 360.7C468.23 359.148 453.565 351.965 439.383 345.023C426.97 338.943 414.121 332.656 401.077 330.346C377.458 325.633 352.645 329.725 328.636 333.679C317.58 335.495 306.156 337.38 294.962 338.403C286.376 339.058 277.435 340.598 268.781 342.092C247.863 345.701 226.233 349.425 206.799 341.448C206.73 341.425 206.672 341.391 206.615 341.368L206.477 341.299C206.477 341.299 206.454 341.299 206.454 341.287C198.788 337.552 193.892 331.564 191.927 323.484C188.065 307.646 196.903 286.199 206.753 272.97C219.855 255.58 239.324 241.121 266.31 228.766C290.319 217.812 317.408 213.123 342.6 215.548C391.181 220.031 442.497 238.823 487.079 268.453C499.284 276.751 515.811 290.371 525.442 308.243C531.143 318.68 535.303 334.069 529.855 345.908C526.569 353.034 520.213 357.769 511.455 359.608C506.18 360.826 501.146 361.298 495.768 361.298L495.733 361.286ZM378.148 320.68C386.285 320.68 394.411 321.323 402.479 322.932C416.489 325.415 429.809 331.943 442.704 338.253C456.91 345.207 470.322 351.781 484.355 353.183C494.032 353.988 501.698 354.114 509.801 352.229C516.294 350.862 520.696 347.678 522.983 342.736C526.511 335.081 524.868 322.944 518.8 311.829C509.881 295.279 494.331 282.498 482.861 274.694C439.337 245.765 389.262 227.409 341.888 223.042C317.971 220.732 292.261 225.203 269.436 235.604C243.634 247.42 225.095 261.12 212.786 277.475C203.696 289.693 196.11 308.807 199.248 321.679C200.685 327.553 204.11 331.748 209.73 334.483H209.764C227.164 341.598 246.76 338.219 267.516 334.644C276.343 333.127 285.469 331.552 294.353 330.874C305.225 329.886 316.511 328.024 327.429 326.231C344.106 323.484 361.173 320.668 378.16 320.668L378.148 320.68Z" fill="#232323"/>
<path d="M224.29 374.848C225.796 327.656 419.35 309.829 485.756 369.63C485.756 369.63 502.823 368.056 496.146 353.252C489.469 338.448 430.452 298.876 351.253 299.382C272.055 299.887 233.507 326.104 217.578 343.069C201.649 360.033 224.302 374.837 224.302 374.837L224.29 374.848Z" fill="#3D3939"/>
<path d="M222.556 371.504C222.142 371.366 221.671 371.401 221.337 371.55C221.004 371.688 220.809 371.975 220.797 372.033C221.131 370.274 221.625 368.562 222.303 366.895C226.05 358.47 233.635 352.862 241.347 348.494C297.283 319.921 400.18 322.162 457.277 347.391C468.357 352.321 479.068 358.539 488.309 366.826L485.435 365.872C487.987 365.539 491.32 364.367 492.871 362.447C497.595 355.103 483.861 344.828 478.677 340.77C442.164 314.496 396.525 301.405 351.68 301.371C307.512 302.026 260.011 311.152 225.842 340.656C221.372 344.793 215.499 349.873 215.936 356.31C216.327 362.217 221.246 367.78 225.946 371.378L226.188 371.562L226.303 371.642L226.36 371.677C226.452 371.412 223.498 370.573 222.579 371.504H222.556ZM226.038 378.193C225.073 379.09 222.073 378.228 222.107 377.929L222.016 377.872L221.832 377.745L221.487 377.515C219.993 376.458 218.533 375.309 217.212 374.044C204.385 361.999 204.88 348.241 218.304 336.702C228.406 327.346 240.266 320.048 252.817 314.577C269.677 307.244 287.801 302.98 305.834 300.486C358.943 293.337 414.753 298.118 463.047 322.841C469.92 326.381 476.643 330.288 483.022 334.851C488.699 338.977 494.435 343.552 498.446 349.494C503.629 357.666 502.594 367.757 492.779 371.688C491.17 372.366 489.584 372.826 487.906 373.148C486.412 373.493 484.424 373.665 483.24 372.458C435.74 331.737 340.532 329.679 281.618 342.299C264.827 346.31 239.519 353.137 230.026 368.251L229.222 369.884L228.624 371.562L228.233 373.263C228.107 374.872 227.096 377.033 226.038 378.216V378.193Z" fill="#232323"/>
<path d="M271.883 286.522C290.621 286.522 305.811 271.331 305.811 252.593C305.811 233.855 290.621 218.664 271.883 218.664C253.146 218.664 237.956 233.855 237.956 252.593C237.956 271.331 253.146 286.522 271.883 286.522Z" fill="#F2BA3D"/>
<path d="M309.581 252.593C309.386 272.891 291.939 289.269 271.884 289.361C251.748 289.671 234.233 272.914 234.221 252.593C233.98 237.674 243.565 223.285 257.449 217.768C282.113 207.515 309.638 225.871 309.569 252.593H309.581ZM302.03 252.593C301.294 219.561 257.403 210.814 244.036 241.065C233.773 266.201 258.322 291.752 283.768 281.315C295.031 276.695 302.455 264.558 302.03 252.593Z" fill="#232323"/>
<path d="M279.537 269.934C278.295 269.934 277.054 269.612 275.917 268.968L271.882 266.693L267.848 268.968C265.308 270.405 262.274 270.233 259.918 268.52C257.562 266.808 256.459 263.969 257.033 261.118L257.953 256.578L254.539 253.441C252.39 251.475 251.62 248.521 252.517 245.751C253.413 242.982 255.769 241.051 258.665 240.717L263.274 240.189L265.193 235.97C266.4 233.315 268.963 231.672 271.882 231.672C274.801 231.672 277.353 233.315 278.571 235.97L280.491 240.189L285.088 240.717C287.984 241.051 290.34 242.97 291.237 245.751C292.133 248.533 291.363 251.464 289.214 253.441L285.801 256.578L286.72 261.118C287.295 263.969 286.191 266.808 283.835 268.52C282.537 269.463 281.043 269.934 279.526 269.934H279.537ZM271.882 264.222C272.078 264.222 272.273 264.268 272.446 264.371L277.043 266.969C278.778 267.957 280.87 267.831 282.49 266.658C284.111 265.486 284.87 263.532 284.467 261.567L283.421 256.394C283.341 256.004 283.479 255.59 283.766 255.314L287.662 251.74C289.133 250.383 289.673 248.36 289.053 246.464C288.432 244.556 286.812 243.234 284.824 243.005L279.571 242.407C279.169 242.361 278.824 242.108 278.652 241.74L276.456 236.936C275.629 235.12 273.87 233.982 271.859 233.982C269.848 233.982 268.101 235.108 267.262 236.936L265.067 241.74C264.895 242.108 264.55 242.361 264.147 242.407L258.895 243.005C256.907 243.234 255.286 244.556 254.666 246.464C254.045 248.372 254.574 250.395 256.056 251.74L259.953 255.314C260.251 255.59 260.378 255.992 260.298 256.394L259.252 261.567C258.849 263.532 259.608 265.474 261.228 266.658C262.849 267.831 264.941 267.957 266.676 266.969L271.273 264.371C271.446 264.268 271.641 264.222 271.836 264.222H271.882Z" fill="#232323"/>
<path d="M263.899 241.258L257.399 241.758L254.457 245.681L253.399 247.258L252.899 249.758L256.399 252.758L259.399 256.758L258.399 259.758V264.758L260.399 266.758L265.399 268.758L271.899 265.258L274.899 266.758L278.899 268.758L283.899 267.258L285.399 262.258L284.399 256.258L289.399 251.758L290.399 247.758L288.899 244.258L285.399 241.758L279.399 241.258L277.399 235.258L271.399 232.258L266.899 235.258L263.899 241.258Z" fill="#F4D93B"/>
<path d="M279.537 269.934C278.295 269.934 277.054 269.612 275.917 268.968L271.882 266.693L267.848 268.968C265.308 270.405 262.274 270.233 259.918 268.52C257.562 266.808 256.459 263.969 257.033 261.118L257.953 256.578L254.539 253.441C252.39 251.475 251.62 248.521 252.517 245.751C253.413 242.982 255.769 241.051 258.665 240.717L263.274 240.189L265.193 235.97C266.4 233.315 268.963 231.672 271.882 231.672C274.801 231.672 277.353 233.315 278.571 235.97L280.491 240.189L285.088 240.717C287.984 241.051 290.34 242.97 291.237 245.751C292.133 248.533 291.363 251.464 289.214 253.441L285.801 256.578L286.72 261.118C287.295 263.969 286.191 266.808 283.835 268.52C282.537 269.463 281.043 269.934 279.526 269.934H279.537ZM271.882 264.222C272.078 264.222 272.273 264.268 272.446 264.371L277.043 266.969C278.778 267.957 280.87 267.831 282.49 266.658C284.111 265.486 284.87 263.532 284.467 261.567L283.421 256.394C283.341 256.004 283.479 255.59 283.766 255.314L287.662 251.74C289.133 250.383 289.673 248.36 289.053 246.464C288.432 244.556 286.812 243.234 284.824 243.005L279.571 242.407C279.169 242.361 278.824 242.108 278.652 241.74L276.456 236.936C275.629 235.12 273.87 233.982 271.859 233.982C269.848 233.982 268.101 235.108 267.262 236.936L265.067 241.74C264.895 242.108 264.55 242.361 264.147 242.407L258.895 243.005C256.907 243.234 255.286 244.556 254.666 246.464C254.045 248.372 254.574 250.395 256.056 251.74L259.953 255.314C260.251 255.59 260.378 255.992 260.298 256.394L259.252 261.567C258.849 263.532 259.608 265.474 261.228 266.658C262.849 267.831 264.941 267.957 266.676 266.969L271.273 264.371C271.446 264.268 271.641 264.222 271.836 264.222H271.882Z" fill="#232323"/>
<path d="M514.078 356.127C513.779 356.127 513.469 356.013 513.251 355.771C478.404 319.222 441.96 298.154 398.528 289.465C361.336 282.029 310.423 289.224 275.173 298.441C255.566 303.568 241.763 313.406 229.603 322.084C221.213 328.072 213.962 333.232 206.365 335.692C205.756 335.887 205.112 335.554 204.916 334.956C204.721 334.347 205.054 333.704 205.652 333.508C212.904 331.152 220.018 326.083 228.259 320.21C240.591 311.418 254.566 301.453 274.587 296.223C310.077 286.936 361.394 279.695 398.976 287.212C442.891 295.993 479.726 317.279 514.906 354.185C515.343 354.645 515.332 355.369 514.872 355.806C514.653 356.013 514.366 356.127 514.078 356.127Z" fill="#232323"/>
</svg>
