<svg width="713" height="937" viewBox="0 0 713 937" fill="none" xmlns="http://www.w3.org/2000/svg">
<path d="M254.326 328.81L243.064 341.656C243.687 341.515 244.321 341.903 244.474 342.537C244.626 343.171 244.227 343.793 243.593 343.946C243.534 343.958 242.7 344.157 241.28 344.557L237.733 350.299L234.727 355.172C226.425 357.673 218.228 361.325 212.04 366.633C208.635 369.545 205.828 372.963 203.937 376.979C202.516 379.997 201.119 382.251 199.733 383.883C198.418 385.457 197.127 386.443 195.882 386.96C194.543 387.524 193.251 387.547 192.03 387.183C191.831 387.136 191.631 387.066 191.443 386.983C190.304 386.526 189.224 385.75 188.225 384.776C187.814 384.388 187.427 383.966 187.051 383.519C186.64 383.038 186.253 382.533 185.877 382.016C183.106 378.165 181.109 373.28 180.264 371.037C179.982 370.262 179.829 369.804 179.829 369.804C180.193 368.911 180.593 368.031 181.039 367.173C181.696 365.858 182.46 364.566 183.305 363.322C198.078 341.398 238.32 328.798 258.882 323.596L254.326 328.81Z" fill="#DBDBDB"/>
<path d="M178.761 363.323C177.997 364.615 177.316 365.942 176.729 367.292C176.565 367.645 176.4 368.009 176.259 368.373C175.919 369.218 175.895 370.146 176.177 371.015C176.33 371.461 176.565 372.166 176.905 373.046C178.314 376.781 181.356 383.685 185.877 387.831C186.252 388.183 186.652 388.512 187.051 388.829C187.427 389.122 187.826 389.392 188.225 389.627C189.223 390.261 190.292 390.731 191.408 391.001C191.619 391.06 191.819 391.095 192.03 391.13C192.37 391.201 192.723 391.236 193.087 391.259C193.286 391.271 193.474 391.283 193.674 391.283C194.449 391.283 195.177 391.189 195.882 391.025C197.291 390.684 198.582 390.026 199.733 389.181C203.855 386.21 206.38 380.855 207.425 378.624C209.585 374.044 213.132 370.298 217.488 367.245C221.892 364.145 227.129 361.738 232.578 359.883L232.061 359.495L234.727 355.174L237.733 350.3C226.389 353.26 214.623 358.18 206.755 366.329C204.184 368.972 202.035 371.966 200.45 375.336C200.203 375.853 199.968 376.334 199.733 376.792C198.301 379.564 196.997 381.348 195.882 382.382C194.954 383.263 194.155 383.603 193.557 383.568C193.087 383.544 192.57 383.333 192.03 382.957C191.854 382.84 191.666 382.699 191.478 382.546C190.433 381.666 189.306 380.268 188.225 378.577C187.826 377.967 187.438 377.321 187.051 376.64C186.652 375.923 186.252 375.172 185.877 374.397C185.337 373.305 184.832 372.177 184.374 371.038C184.233 370.674 184.092 370.31 183.963 369.946C184.397 369.007 184.879 368.079 185.419 367.175C186.194 365.86 187.063 364.58 188.037 363.323C201.765 345.58 234.022 334.365 254.326 328.811L258.882 323.597L263.309 318.56C244.356 322.904 194.555 336.585 178.761 363.323Z" fill="#232323"/>
<path d="M203.42 366.128L214.987 366.809C221.539 367.197 226.366 373.08 225.473 379.574L215.691 450.583C214.928 456.149 210.161 460.294 204.548 460.294H202.234C195.987 460.294 190.938 455.209 190.985 448.962L191.513 377.272C191.56 370.825 196.997 365.741 203.432 366.128H203.42Z" fill="#232323"/>
<path d="M191.372 461.866H177.715C175.226 461.866 173.206 459.846 173.206 457.357C168.345 429.01 168.345 400.028 173.206 371.681C173.206 369.192 175.226 367.172 177.715 367.172H191.372C193.862 367.172 195.882 369.192 195.882 371.681V457.357C195.882 459.846 193.862 461.866 191.372 461.866Z" fill="#DBDBDB"/>
<path d="M199.076 368.429C198.864 367.936 198.606 367.467 198.312 367.02C198.136 366.762 197.948 366.515 197.725 366.28C196.21 364.472 193.932 363.321 191.372 363.321H177.727C173.241 363.321 169.566 366.868 169.378 371.306C164.481 399.982 164.481 429.058 169.378 457.734C169.566 462.172 173.241 465.719 177.727 465.719H191.372C195.083 465.719 198.242 463.288 199.322 459.93C199.592 459.119 199.733 458.25 199.733 457.358V371.682C199.733 370.531 199.498 369.428 199.076 368.429ZM177.727 458.015C177.363 458.015 177.069 457.722 177.069 457.358C177.069 457.146 177.058 456.923 177.022 456.712C172.243 428.952 172.208 400.804 176.905 373.044C176.94 372.809 176.987 372.575 177.022 372.34C177.058 372.117 177.069 371.905 177.069 371.682C177.069 371.33 177.363 371.036 177.727 371.036H191.372C191.736 371.036 192.03 371.33 192.03 371.682V457.358C192.03 457.722 191.736 458.015 191.372 458.015H177.727Z" fill="#232323"/>
<path d="M187.039 460.787C186.393 460.787 185.865 460.258 185.865 459.613V368.758C185.865 368.112 186.393 367.584 187.039 367.584C187.685 367.584 188.213 368.112 188.213 368.758V459.613C188.213 460.258 187.685 460.787 187.039 460.787Z" fill="#232323"/>
<path d="M243.592 343.945C243.592 343.945 242.7 344.156 241.279 344.555C234.046 346.552 211.652 353.562 200.755 366.28C200.156 366.972 199.592 367.689 199.075 368.429C198.617 369.039 198.206 369.673 197.819 370.319C197.596 370.683 197.208 370.895 196.809 370.895C196.598 370.895 196.398 370.836 196.198 370.718C195.646 370.39 195.47 369.673 195.799 369.11C196.022 368.734 196.257 368.37 196.504 368.006H196.515C196.891 367.419 197.29 366.843 197.725 366.28C210.548 349.429 241.667 341.984 243.064 341.655C243.686 341.514 244.32 341.901 244.473 342.536C244.626 343.17 244.227 343.792 243.592 343.945Z" fill="#232323"/>
<path d="M532.864 369.803C532.864 369.803 532.712 370.261 532.43 371.036C531.584 373.279 529.6 378.152 526.829 382.004C526.453 382.533 526.065 383.037 525.654 383.519C525.279 383.965 524.879 384.388 524.48 384.775C523.47 385.75 522.402 386.525 521.262 386.983C521.075 387.065 520.875 387.136 520.675 387.183C519.454 387.547 518.162 387.523 516.824 386.96C515.579 386.443 514.275 385.456 512.96 383.871C511.586 382.251 510.189 379.984 508.768 376.978C506.877 372.962 504.071 369.545 500.666 366.633C494.712 361.525 486.915 357.955 478.941 355.465L475.571 350.463L471.637 344.615C470.075 344.18 469.16 343.957 469.101 343.946C468.478 343.793 468.079 343.171 468.232 342.536C468.373 341.902 469.007 341.515 469.641 341.656L458.333 328.786L456.231 326.39L450.77 322.855C470.099 327.506 513.853 340.258 529.388 363.321C530.234 364.566 530.997 365.858 531.655 367.173C532.101 368.03 532.512 368.911 532.864 369.803Z" fill="#DBDBDB"/>
<path d="M536.446 368.371C536.305 368.007 536.152 367.643 535.976 367.291C535.389 365.94 534.708 364.613 533.945 363.322C514.722 330.794 445.169 317.583 442.069 317.008C441.94 316.984 441.799 316.961 441.67 316.961L450.77 322.856L456.231 326.39L458.333 328.786C478.624 334.34 510.917 345.543 524.656 363.322C525.631 364.566 526.511 365.858 527.275 367.173C527.815 368.077 528.296 369.005 528.731 369.945C528.602 370.309 528.461 370.673 528.32 371.037C527.862 372.164 527.369 373.303 526.829 374.383C526.453 375.158 526.054 375.922 525.654 376.638C525.267 377.319 524.879 377.965 524.48 378.576C523.4 380.267 522.272 381.664 521.227 382.545C521.039 382.697 520.863 382.838 520.675 382.956C520.135 383.331 519.618 383.543 519.149 383.566C518.562 383.59 517.763 383.237 516.824 382.345C515.708 381.312 514.381 379.527 512.96 376.755C512.725 376.309 512.491 375.839 512.256 375.335C510.67 371.964 508.521 368.97 505.95 366.328C498.223 358.319 486.727 353.434 475.571 350.463L478.941 355.466L482.464 360.703C487.067 362.429 491.447 364.566 495.229 367.232C499.573 370.297 503.12 374.043 505.28 378.623C506.326 380.854 508.85 386.197 512.96 389.179C514.123 390.025 515.403 390.682 516.824 391.023C517.528 391.187 518.268 391.281 519.031 391.281C519.219 391.281 519.419 391.27 519.618 391.258C519.982 391.234 520.335 391.199 520.675 391.129C520.887 391.093 521.086 391.058 521.298 390.999C522.413 390.729 523.482 390.26 524.48 389.626C524.879 389.391 525.278 389.121 525.654 388.827C526.054 388.51 526.453 388.181 526.829 387.829C531.35 383.684 534.391 376.779 535.8 373.045C536.141 372.164 536.375 371.459 536.528 371.013C536.81 370.144 536.786 369.217 536.446 368.371Z" fill="#232323"/>
<path d="M521.721 448.974C521.721 450.7 521.357 452.344 520.676 453.801C519.83 455.609 518.527 457.147 516.918 458.275C515.861 459.026 514.663 459.59 513.372 459.93C512.444 460.177 511.469 460.306 510.471 460.306H508.158C502.533 460.306 497.777 456.161 497.014 450.595L487.232 379.574C487.103 378.623 487.091 377.695 487.197 376.791C487.397 374.901 488.078 373.139 489.135 371.636C490.567 369.558 492.704 367.961 495.229 367.232C496.016 367.009 496.85 366.857 497.707 366.81L500.666 366.634L505.95 366.328L509.273 366.129C510.201 366.07 511.094 366.129 511.963 366.293C512.808 366.446 513.618 366.692 514.382 367.021C515.027 367.291 515.65 367.632 516.225 368.019C516.718 368.36 517.176 368.724 517.611 369.135C519.008 370.438 520.089 372.094 520.676 373.973C521.005 375.018 521.181 376.122 521.192 377.273L521.228 382.545L521.263 386.984L521.298 391L521.721 448.974Z" fill="#232323"/>
<path d="M543.14 414.52C543.14 428.858 541.918 443.184 539.487 457.358C539.487 459.847 537.468 461.867 534.978 461.867H521.321C518.832 461.867 516.824 459.847 516.824 457.358V371.682C516.824 369.193 518.832 367.173 521.321 367.173H534.978C536.223 367.173 537.35 367.678 538.161 368.488C538.983 369.31 539.487 370.437 539.487 371.682C541.918 385.867 543.14 400.194 543.14 414.52Z" fill="#DBDBDB"/>
<path d="M543.139 414.52C543.139 428.858 541.918 443.184 539.487 457.358C539.487 459.847 537.468 461.867 534.978 461.867H533.862C535.812 439.72 538.959 387.288 527.474 367.173H534.978C536.223 367.173 537.35 367.678 538.16 368.488C538.982 369.31 539.487 370.437 539.487 371.682C541.918 385.867 543.139 400.194 543.139 414.52Z" fill="white"/>
<path d="M543.327 371.307C543.128 366.869 539.464 363.322 534.978 363.322H521.321C518.785 363.322 516.495 364.473 514.968 366.27C514.757 366.516 514.557 366.763 514.381 367.021C514.088 367.467 513.829 367.937 513.63 368.419C513.195 369.429 512.96 370.532 512.96 371.683V457.359C512.96 458.251 513.101 459.12 513.371 459.931C514.463 463.289 517.61 465.72 521.321 465.72H534.978C539.464 465.72 543.128 462.173 543.327 457.735C548.224 429.059 548.224 399.983 543.327 371.307ZM535.636 457.359C535.636 457.723 535.342 458.016 534.978 458.016H521.321C520.969 458.016 520.675 457.723 520.675 457.359V371.683C520.675 371.331 520.969 371.037 521.321 371.037H534.978C535.342 371.037 535.636 371.331 535.636 371.683C535.636 371.906 535.647 372.118 535.683 372.341C535.718 372.576 535.765 372.81 535.8 373.045C540.486 400.805 540.45 428.953 535.683 456.713C535.647 456.924 535.636 457.147 535.636 457.359Z" fill="#232323"/>
<path d="M525.654 460.785C525.008 460.785 524.48 460.256 524.48 459.611V368.756C524.48 368.11 525.008 367.582 525.654 367.582C526.3 367.582 526.828 368.11 526.828 368.756V459.611C526.828 460.256 526.3 460.785 525.654 460.785Z" fill="#232323"/>
<path d="M516.495 370.72C516.307 370.838 516.108 370.896 515.896 370.896C515.497 370.896 515.109 370.685 514.886 370.321C514.499 369.675 514.076 369.041 513.63 368.419C513.113 367.691 512.561 366.986 511.962 366.293C501.171 353.705 479.106 346.694 471.637 344.616C470.076 344.182 469.16 343.958 469.101 343.947C468.479 343.794 468.079 343.172 468.232 342.538C468.373 341.903 469.007 341.516 469.641 341.657C471.039 341.986 502.145 349.431 514.969 366.27C515.415 366.845 515.826 367.432 516.225 368.019C516.46 368.383 516.683 368.748 516.906 369.112C517.235 369.675 517.059 370.392 516.495 370.72Z" fill="#232323"/>
</svg>
