<svg width="713" height="937" viewBox="0 0 713 937" fill="none" xmlns="http://www.w3.org/2000/svg">
<path d="M211.789 346.672C225.338 325.444 251.676 270.494 266.611 261.817C281.546 253.14 317.435 246.12 333.006 239.919C348.577 233.717 368.555 210.581 382.785 225.869C397.016 241.157 423.593 258.512 435.359 263.884C447.125 269.256 482.674 311.815 488.773 350.238C494.872 388.662 436.847 345.695 436.847 345.695L219.58 354.225L211.789 346.672Z" fill="#514C4C"/>
<mask id="mask0_1128_33689" style="mask-type:alpha" maskUnits="userSpaceOnUse" x="211" y="220" width="279" height="147">
<path d="M211.789 346.672C225.338 325.444 251.676 270.494 266.611 261.817C281.546 253.14 317.435 246.12 333.006 239.919C348.577 233.717 368.555 210.581 382.785 225.869C397.016 241.157 423.593 258.512 435.359 263.884C447.125 269.256 482.674 311.815 488.773 350.238C494.872 388.662 436.847 345.695 436.847 345.695L219.58 354.225L211.789 346.672Z" fill="#514C4C"/>
</mask>
<g mask="url(#mask0_1128_33689)">
<path d="M399.5 251.5C388.7 241.1 372.333 230.5 365.5 226.5C368 217.333 368.6 194.4 351 176C329 153 330.5 147 328.5 140C326.9 134.4 333.167 99 336.5 82C363 88.3333 417 101.5 421 103.5C426 106 551.5 216.5 568 234C584.5 251.5 601.5 383.5 602.5 387.5C603.5 391.5 563.5 422.5 551.5 399C539.5 375.5 473.5 338.5 473.5 337C455.125 278.736 426 266.36 408.5 254.5C406.583 253.201 400.899 252.847 399.5 251.5Z" fill="white"/>
</g>
<path d="M479.744 369.884C465.025 369.884 442.674 354.539 435.7 349.473L219.728 357.958C218.717 357.992 217.718 357.617 216.991 356.913L209.2 349.36C207.928 348.133 207.701 346.168 208.655 344.68C212.573 338.547 217.718 329.29 223.158 319.489C237.287 294.07 253.312 265.255 264.737 258.61C274.232 253.09 291.564 248.286 306.839 244.049C316.55 241.357 325.715 238.825 331.621 236.462C335.755 234.815 340.389 231.771 345.284 228.546C357.743 220.357 373.235 210.157 385.501 223.332C399.027 237.871 424.967 255.055 436.893 260.496C450.204 266.572 486.138 309.914 492.442 349.655C493.896 358.844 492.09 365.034 487.081 368.078C485.003 369.338 482.504 369.884 479.733 369.884H479.744ZM436.847 341.966C437.642 341.966 438.426 342.227 439.062 342.693C453.179 353.142 476.223 365.954 483.22 361.706C485.934 360.059 485.73 354.88 485.082 350.825C479.063 312.901 443.707 271.808 433.804 267.276C421.027 261.45 394.405 243.845 380.049 228.409C372.633 220.436 363.092 225.752 349.384 234.77C344.16 238.211 339.231 241.46 334.381 243.379C328.089 245.878 318.73 248.479 308.827 251.216C293.971 255.328 277.14 259.996 268.474 265.039C258.809 270.65 241.966 300.964 229.666 323.1C224.873 331.732 220.307 339.944 216.537 346.089L221.023 350.439L436.7 341.966C436.7 341.966 436.802 341.966 436.847 341.966Z" fill="#232323"/>
<path d="M211.328 416.775C93.9491 405.179 192.066 373.059 305.231 359.679C426.119 345.379 664.339 399.659 496.057 419.524L496.5 425.816C496.5 425.816 558.171 422.125 557.49 399.772C556.808 377.42 488.414 337.804 445.744 327.65C403.075 317.496 300.143 322.913 263.231 327.99C227.762 332.863 169.021 354.795 148.783 394.366C135.915 419.524 210.839 422.704 210.839 422.704" fill="#514C4C"/>
<mask id="mask1_1128_33689" style="mask-type:alpha" maskUnits="userSpaceOnUse" x="147" y="321" width="411" height="105">
<path d="M211.328 416.775C93.9491 405.179 192.066 373.059 305.231 359.679C426.119 345.379 664.339 399.659 496.057 419.524L496.5 425.816C496.5 425.816 558.171 422.125 557.49 399.772C556.808 377.42 488.414 337.804 445.744 327.65C403.075 317.496 300.143 322.913 263.231 327.99C227.762 332.863 169.021 354.795 148.783 394.366C135.915 419.524 210.839 422.704 210.839 422.704" fill="#514C4C"/>
</mask>
<g mask="url(#mask1_1128_33689)">
<path d="M548 388.5C485 333 408.5 320.5 305.5 325.5H296C279.5 324.167 245.2 320.7 240 317.5C233.5 313.5 211.5 298.5 210 291.5C208.5 284.5 231.5 224 255.5 209C274.7 197 307.5 183.667 321.5 178.5L527.5 206.5C555.5 245.167 611.8 322.8 613 324C614.5 325.5 601.613 435.73 548 388.5Z" fill="white"/>
</g>
<path d="M210.964 420.495C199.811 419.347 188.658 418.007 177.494 415.486C171.304 413.987 165.205 412.453 159.64 408.853C156.494 406.786 153.848 403.06 154.711 399.13C157.073 387.693 183.15 380.481 193.213 377.187C225.502 367.76 258.699 362.126 291.931 357.606C303.004 356.118 314.237 354.812 325.424 354.244C358.996 352.506 392.66 354.437 426.005 358.185C457.124 361.933 529.607 372.178 552.277 391.441C557.194 395.814 558.591 402.629 553.015 407.603C545.848 413.703 536.819 415.543 528.278 417.769C517.193 420.302 511.075 421.892 499.944 423.232L503.227 419.268C503.227 419.268 503.67 425.549 503.67 425.56L499.74 422.107C511.96 421.301 519.51 419.597 531.345 416.383C537.058 414.748 542.895 412.749 547.802 409.523C556.388 404.014 555.661 397.506 549.948 389.794C544.44 382.48 537.296 376.539 529.937 370.985C509.811 356.243 487.346 344.363 464.041 335.412C452.559 330.903 440.043 327.859 427.788 326.292C402.802 323.203 377.475 322.976 352.307 323.35C320.847 324.339 289.251 325.758 258.177 330.813C220.027 338.468 171.27 359.457 152.167 395.098C145.012 406.752 165.932 411.976 174.189 414.1C186.137 416.871 198.687 418.325 210.998 418.984C213.088 419.052 214.723 420.824 214.61 422.914C214.496 424.97 212.736 426.548 210.68 426.435C204.184 426.071 197.869 425.447 191.498 424.595C174.689 422.198 131.462 415.213 147.51 389.84C171.554 349.292 231.373 327.746 276.451 324.679C326.923 320.908 377.691 318.512 428.186 323.01C453.66 325.497 477.829 335.253 500.498 346.68C518.522 356.118 554.707 376.619 560.215 396.745C564.452 417.837 529.289 424.493 514.343 427.184C507.983 428.241 506.691 429.036 500.183 429.547C498.139 429.706 496.355 428.139 496.253 426.094C496.253 426.094 495.799 419.813 495.81 419.802C494.5 413.5 497.128 416.065 499.093 415.838C512.517 414.009 540.34 410.443 548.79 401.22C550.607 398.983 546.03 395.882 544.36 394.644C537.728 390.283 530.096 387.511 522.486 384.91C490.992 374.802 458.01 369.554 425.165 365.59C392.205 361.888 358.951 359.98 325.833 361.683C292.76 363.909 259.835 369.464 227.432 376.199C213.656 379.299 168.135 389.453 162.048 400.493C162.002 400.652 162.048 400.686 162.048 400.8C162.093 400.914 162.173 401.118 162.4 401.379C164.649 403.73 168.113 404.968 171.463 406.116C184.445 410.148 198.085 411.601 211.736 413.078C216.666 413.748 215.848 420.858 210.975 420.495H210.964Z" fill="#232323"/>
<path d="M211.784 376.635C175.213 381.655 142.618 400.248 166.071 410.436C189.524 420.624 209.07 419.522 209.07 419.522L218.213 376.635H211.784Z" fill="#232323"/>
<path d="M488.433 374.705C488.433 374.705 495.542 417.036 495.542 417.706C495.542 418.376 524.152 420.421 534.816 413.981C545.481 407.541 562.074 402.134 549.206 395.695C536.338 389.255 505.355 376.625 505.355 376.625L488.421 374.705H488.433Z" fill="#232323"/>
<path d="M429.028 260.642C410.55 250.102 369.572 251.454 369.572 251.454L429.028 260.642Z" fill="#514C4C"/>
<path d="M427.176 263.877C423.007 261.708 418.544 260.027 413.99 258.846C399.577 255.018 384.46 253.553 369.605 252.179C368.776 252.122 368.696 250.838 369.559 250.725C384.881 248.919 400.463 248.908 415.659 252.031C420.781 253.167 425.96 254.632 430.889 257.403C435.114 259.947 431.56 266.206 427.198 263.877H427.176Z" fill="#232323"/>
</svg>
