<svg width="713" height="937" viewBox="0 0 713 937" fill="none" xmlns="http://www.w3.org/2000/svg">
<path d="M216.581 391.365C198.358 364.017 166.456 357.854 166.456 357.854C166.456 357.854 173.493 407.142 211.929 397.911L216.593 391.365H216.581Z" fill="#58BF43"/>
<path d="M202.698 403.004C195.816 403.004 189.546 401.11 183.995 397.334C166.612 385.524 162.715 359.507 162.559 358.404C162.38 357.145 162.823 355.875 163.746 354.999C164.669 354.124 165.964 353.741 167.211 353.98C168.578 354.244 200.947 360.778 219.866 389.169C220.765 390.524 220.741 392.298 219.794 393.629L215.13 400.175C214.578 400.954 213.763 401.494 212.84 401.722C209.327 402.561 205.947 402.981 202.698 402.981V403.004ZM171.683 363.368C173.745 371.065 178.54 384.121 188.431 390.835C194.353 394.852 201.463 396.051 209.591 394.396L211.773 391.339C199.329 374.23 181.034 366.425 171.683 363.38V363.368Z" fill="#232323"/>
<path d="M217.617 386.774C185.991 392.684 158.68 422.718 158.68 422.718C158.68 422.718 196.924 438.747 218.636 394.675L217.617 386.762V386.774Z" fill="#58BF43"/>
<path d="M174.922 429.398C164.707 429.398 157.334 426.424 157.154 426.352C155.979 425.861 155.116 424.818 154.829 423.571C154.553 422.324 154.9 421.017 155.764 420.07C156.915 418.799 184.333 388.982 216.882 382.903C217.949 382.699 219.04 382.951 219.915 383.587C220.791 384.222 221.366 385.193 221.498 386.26L222.517 394.173C222.613 394.94 222.481 395.72 222.145 396.415C208.73 423.643 189.08 429.398 174.91 429.398H174.922ZM166.146 420.801C176.852 422.983 199.546 423.415 214.568 393.993L214.257 391.547C193.264 396.943 174.49 412.888 166.146 420.801Z" fill="#232323"/>
<path d="M199.779 392.881L188.27 380.7C187.778 380.196 188.486 379.369 189.049 379.789L202.836 389.32C205.582 391.382 202.249 395.291 199.779 392.881Z" fill="#232323"/>
<path d="M215.515 403.291C249.012 366.891 451.681 363.906 498.857 417.234L499.984 409.19C500.403 406.156 499.504 403.099 497.514 400.773L496.351 399.418L498.006 393.831C498.761 391.29 498.185 388.556 496.495 386.518L492.059 381.195L492.155 380.943C493.941 376.255 492.874 370.968 489.434 367.323C478.752 356.017 452.293 332.794 408.426 323.754C351.096 311.944 270.639 313.899 233.354 347.313C231.34 349.123 230.069 351.629 229.722 354.315L228.667 362.527L224.063 364.685C219.327 366.915 216.294 371.675 216.294 376.914C210.72 383.473 209.389 392.644 212.854 400.521L214.868 405.089" fill="#58BF43"/>
<mask id="mask0_1128_33709" style="mask-type:alpha" maskUnits="userSpaceOnUse" x="210" y="317" width="291" height="101">
<path d="M215.515 403.291C249.012 366.891 451.681 363.906 498.857 417.234L499.984 409.19C500.403 406.156 499.504 403.099 497.514 400.773L496.351 399.418L498.006 393.831C498.761 391.29 498.185 388.556 496.495 386.518L492.059 381.195L492.155 380.943C493.941 376.255 492.874 370.968 489.434 367.323C478.752 356.017 452.293 332.794 408.426 323.754C351.096 311.944 270.639 313.899 233.354 347.313C231.34 349.123 230.069 351.629 229.722 354.315L228.667 362.527L224.063 364.685C219.327 366.915 216.294 371.675 216.294 376.914C210.72 383.473 209.389 392.644 212.854 400.521L214.868 405.089" fill="#58BF43"/>
</mask>
<g mask="url(#mask0_1128_33709)">
<path d="M494 384.5C447.5 331 350.167 322.833 314.5 322.5C311 319.167 320.8 310.2 320 307C319 303 318.5 303 305 272C291.5 241 301 252 311 243C321 234 364 241 369 240C374 239 476.5 254.5 479.5 256.5C481.9 258.1 532.5 278.5 557.5 288.5C557.333 315 552 389.5 494 384.5Z" fill="white"/>
</g>
<path d="M498.853 421.153C497.738 421.153 496.659 420.686 495.904 419.822C470.944 391.624 401.936 380.977 345.673 380.438C285.586 379.85 233.627 390.161 218.761 405.567C218.593 406.886 217.753 408.085 216.447 408.66C214.457 409.535 212.131 408.636 211.268 406.646L209.253 402.078C205.405 393.314 206.664 383.003 212.43 375.426C212.958 369.275 216.746 363.748 222.393 361.099L225.043 359.852L225.822 353.785C226.289 350.117 228.04 346.772 230.725 344.362C268.909 310.132 350.013 307.675 409.214 319.88C453.32 328.967 480.199 351.795 492.296 364.6C496.264 368.796 497.798 374.779 496.456 380.318L499.513 383.986C502.054 387.032 502.894 391.132 501.767 394.933L500.712 398.481C503.277 401.623 504.416 405.699 503.853 409.727L502.726 417.772C502.51 419.295 501.431 420.554 499.968 420.997C499.597 421.105 499.213 421.165 498.829 421.165L498.853 421.153ZM341.178 372.549C342.712 372.549 344.235 372.549 345.757 372.573C399.934 373.1 465.896 383.051 496.036 408.96L496.084 408.636C496.348 406.73 495.784 404.788 494.525 403.325L493.363 401.97C492.499 400.951 492.2 399.572 492.571 398.29L494.226 392.703C494.609 391.42 494.322 390.053 493.47 389.022L489.035 383.699C488.123 382.608 487.872 381.109 488.387 379.778L488.483 379.526C489.742 376.229 489.011 372.585 486.577 370.007C475.116 357.886 449.628 336.245 407.631 327.589C377.527 321.39 343.311 319.52 313.759 322.469C279.292 325.91 252.389 335.514 235.976 350.225C234.694 351.375 233.854 352.994 233.627 354.792L232.572 363.005C232.404 364.336 231.564 365.499 230.342 366.062L225.738 368.22C222.393 369.791 220.235 373.184 220.235 376.877C220.235 377.812 219.899 378.711 219.3 379.418C215.056 384.406 213.797 391.36 215.919 397.498C236.971 380.174 292.144 372.525 341.178 372.525V372.549Z" fill="#232323"/>
<path d="M228.675 362.501C260.278 347.395 293.882 342.839 293.882 342.839L228.675 362.501Z" fill="#6B6B6B"/>
<path d="M226.976 358.952C243.053 352.477 259.741 347.658 276.753 344.469C282.4 343.425 288.035 342.49 293.753 341.843C294.305 341.783 294.796 342.179 294.856 342.73C294.916 343.27 294.545 343.749 294.017 343.833C288.478 344.864 282.928 346.159 277.473 347.658C261.192 352.13 245.163 357.933 230.369 366.049C225.418 368.639 221.821 361.206 226.976 358.952Z" fill="#232323"/>
<path d="M491.351 383.061C477.684 377.162 461.859 371.803 461.859 371.803L491.351 383.061Z" fill="#6B6B6B"/>
<path d="M490.309 385.49C480.49 381.797 471.019 377.325 461.452 372.997C460.817 372.697 460.529 371.942 460.829 371.295C461.093 370.743 461.692 370.456 462.268 370.587C464.869 371.175 467.423 371.834 469.976 372.566C477.613 374.772 485.25 377.086 492.407 380.61C493.714 381.27 494.254 382.864 493.594 384.171C492.983 385.394 491.556 385.934 490.309 385.478V385.49Z" fill="#232323"/>
</svg>
