<svg width="713" height="937" viewBox="0 0 713 937" fill="none" xmlns="http://www.w3.org/2000/svg">
<path d="M221.092 367.262C202.794 339.802 170.761 333.614 170.761 333.614C170.761 333.614 177.828 383.105 216.421 373.835L221.104 367.262H221.092Z" fill="#8E75DD"/>
<path d="M207.152 378.95C200.242 378.95 193.946 377.048 188.372 373.256C170.917 361.398 167.005 335.274 166.849 334.167C166.668 332.903 167.113 331.627 168.04 330.748C168.967 329.869 170.267 329.484 171.519 329.725C172.892 329.99 205.394 336.551 224.39 365.058C225.293 366.418 225.269 368.2 224.318 369.536L219.635 376.109C219.081 376.892 218.263 377.433 217.336 377.662C213.809 378.505 210.414 378.926 207.152 378.926V378.95ZM176.009 339.151C178.08 346.88 182.895 359.99 192.826 366.731C198.773 370.764 205.912 371.968 214.073 370.307L216.264 367.237C203.769 350.058 185.399 342.221 176.009 339.163V339.151Z" fill="#232323"/>
<path d="M222.131 362.653C190.375 368.588 162.952 398.744 162.952 398.744C162.952 398.744 201.353 414.84 223.154 370.586L222.131 362.641V362.653Z" fill="#8E75DD"/>
<path d="M179.269 405.443C169.012 405.443 161.609 402.458 161.428 402.385C160.249 401.892 159.382 400.845 159.093 399.593C158.816 398.341 159.165 397.028 160.032 396.077C161.188 394.801 188.718 364.861 221.401 358.758C222.473 358.553 223.568 358.806 224.447 359.444C225.326 360.082 225.904 361.057 226.036 362.129L227.059 370.074C227.156 370.845 227.023 371.627 226.686 372.325C213.216 399.665 193.485 405.443 179.257 405.443H179.269ZM170.457 396.812C181.207 399.003 203.995 399.436 219.09 369.894L218.777 367.438C197.663 372.867 178.823 388.866 170.469 396.812H170.457Z" fill="#232323"/>
<path d="M204.224 368.78L192.668 356.549C192.174 356.043 192.884 355.213 193.45 355.634L207.294 365.205C210.051 367.275 206.704 371.2 204.224 368.78Z" fill="#232323"/>
<path d="M211.682 393.369C288.7 305.5 447.168 336.162 497.679 387.579C497.679 387.579 503.325 359.686 473.904 320.922C444.471 282.158 374.495 241.239 351.526 222.218C328.558 203.197 323.634 252.085 301.737 273.394C279.84 294.702 232.014 318.405 223.045 333.478C214.077 348.55 213.716 362.19 213.716 362.19C202.593 371.519 211.706 393.357 211.706 393.357L211.682 393.369Z" fill="#8E75DD"/>
<mask id="mask0_1128_33659" style="mask-type:alpha" maskUnits="userSpaceOnUse" x="208" y="217" width="291" height="177">
<path d="M211.682 393.369C288.7 305.5 447.168 336.162 497.679 387.579C497.679 387.579 503.325 359.686 473.904 320.922C444.471 282.158 374.495 241.239 351.526 222.218C328.558 203.197 323.634 252.085 301.737 273.394C279.84 294.702 232.014 318.405 223.045 333.478C214.077 348.55 213.716 362.19 213.716 362.19C202.593 371.519 211.706 393.357 211.706 393.357L211.682 393.369Z" fill="#8E75DD"/>
</mask>
<g mask="url(#mask0_1128_33659)">
<path d="M254.574 335.497C256.574 345.997 246.574 345.997 232.574 321.997L245.074 316.497C247.574 319.33 252.974 327.097 254.574 335.497Z" fill="#7F66D2"/>
<path d="M290.574 312.997C281.574 312.997 284.574 327.997 294.074 349.997L309.074 346.997C305.907 335.664 297.774 312.997 290.574 312.997Z" fill="#7F66D2"/>
<path d="M323.074 311.997C311.574 317.997 305.074 302.497 299.574 278.997L307.074 264.497C316.24 278.33 332.274 307.197 323.074 311.997Z" fill="#7F66D2"/>
<path d="M360.574 291.997C348.574 290.497 351.074 264.497 356.074 235.997L378.574 252.497C376.574 266.164 370.174 293.197 360.574 291.997Z" fill="#7F66D2"/>
<path d="M376.574 316.497C367.074 312.997 362.574 318.997 360.574 341.997L380.574 348.497C382.407 338.997 384.174 319.297 376.574 316.497Z" fill="#7F66D2"/>
<path d="M415.574 321.997C405.574 319.997 409.074 312.997 418.074 281.997L434.074 293.497C431.24 303.664 423.574 323.597 415.574 321.997Z" fill="#7F66D2"/>
<path d="M449.074 351.497C448.074 340.997 437.074 337.497 428.074 355.997L446.574 363.497C447.74 362.997 449.874 359.897 449.074 351.497Z" fill="#7F66D2"/>
<path d="M231.574 362.497C237.074 358.497 239.074 359.497 243.574 366.497L228.574 374.497C227.74 371.83 227.174 365.697 231.574 362.497Z" fill="#7F66D2"/>
<path d="M473.5 339C446.3 298.6 371.167 245.833 337 224.5C329 222.167 312.7 217 311.5 215C310.3 213 296 182.833 289 168L317 144.5C349.167 147.333 414.3 153.2 417.5 154C421.5 155 513.5 246 527 258C540.5 270 527.5 392.5 527 395C526.5 397.5 496 412 499.5 388.5C503 365 474 340 473.5 339Z" fill="white"/>
</g>
<path d="M211.682 397.321C211.466 397.321 211.261 397.309 211.044 397.273C209.696 397.056 208.565 396.153 208.035 394.901C207.638 393.938 198.621 371.871 209.865 360.387C210.262 356.065 212.019 344.279 219.639 331.482C224.912 322.622 240.622 312.233 258.823 300.218C273.702 290.383 289.098 280.21 298.982 270.591C306.65 263.128 312.356 251.547 317.4 241.338C324.032 227.891 329.751 216.286 339.14 214.287C343.859 213.276 348.879 214.937 354.055 219.211C360.616 224.653 371.318 232.056 383.693 240.628C414.136 261.719 455.836 290.599 477.071 318.565C507.238 358.292 501.821 387.184 501.58 388.388C501.291 389.821 500.232 390.976 498.835 391.386C497.427 391.807 495.922 391.41 494.899 390.363C465.671 360.615 401.858 340.222 343.149 341.895C305.241 342.967 252.178 353.236 214.704 395.984C213.945 396.851 212.862 397.333 211.731 397.333L211.682 397.321ZM341.861 221.872C341.487 221.872 341.126 221.908 340.765 221.98C335.131 223.184 329.943 233.681 324.466 244.805C319.145 255.591 313.114 267.823 304.471 276.225C294.046 286.362 278.348 296.751 263.157 306.779C247.23 317.301 230.763 328.196 226.405 335.503C218.05 349.528 217.629 362.168 217.629 362.301C217.605 363.432 217.087 364.492 216.221 365.226C210.924 369.668 211.694 378.926 213.344 385.692C252.322 345.05 304.904 335.058 342.86 333.986C373.629 333.107 405.349 337.766 434.577 347.445C458.677 355.427 479.418 366.418 494.032 378.842C493.479 368.296 489.542 348.107 470.727 323.32C450.262 296.354 409.153 267.895 379.142 247.104C366.611 238.425 355.789 230.925 348.963 225.279C346.218 223.003 343.871 221.884 341.837 221.884L341.861 221.872Z" fill="#232323"/>
<path d="M498.12 384.674C521.004 372.442 499.035 358.658 484.77 348.426C470.505 338.193 449.775 325.817 449.775 325.817" fill="#8E75DD"/>
<mask id="mask1_1128_33659" style="mask-type:alpha" maskUnits="userSpaceOnUse" x="449" y="325" width="60" height="60">
<path d="M498.12 384.674C521.004 372.442 499.035 358.658 484.77 348.426C470.505 338.193 449.775 325.817 449.775 325.817" fill="#8E75DD"/>
</mask>
<g mask="url(#mask1_1128_33659)">
<path d="M477.5 339C450.3 298.6 371.167 245.833 337 224.5C329 222.167 312.7 217 311.5 215C310.3 213 296 182.833 289 168L317 144.5C349.167 147.333 414.3 153.2 417.5 154C421.5 155 513.5 246 527 258C540.5 270 527.5 392.5 527 395C526.5 397.5 481.127 405.58 493 385C508 359 451.5 339 477.5 339Z" fill="white"/>
</g>
<path d="M496.255 381.188C500.95 378.335 506.391 374.47 502.118 368.788C497.086 361.794 488.419 356.449 481.461 351.08C470.843 343.206 459.082 335.682 449.187 326.786C448.705 326.365 448.657 325.618 449.091 325.137C449.416 324.775 449.921 324.667 450.367 324.824C457.758 327.556 464.644 331.156 471.385 335.032C477.982 338.909 484.651 343.339 490.983 347.685C497.627 352.344 504.73 357.027 509.449 363.985C514.517 371.34 512.723 379.671 505.561 384.787C502.082 387.159 497.339 390.987 494.678 386.401C493.727 384.51 494.437 382.211 496.255 381.188Z" fill="#232323"/>
<path d="M211.402 358.983C220.648 354.18 229.604 348.931 238.608 343.731C239.078 343.442 239.595 344.14 239.15 344.489C235.225 347.884 231.361 351.363 227.485 354.818C223.597 358.261 219.745 361.752 216.001 365.4C211.439 369.397 206.13 362.041 211.39 358.983H211.402Z" fill="#232323"/>
</svg>
