<svg width="713" height="937" viewBox="0 0 713 937" fill="none" xmlns="http://www.w3.org/2000/svg">
<path d="M212.2 460.641C210.913 489.134 195.133 525.201 194.467 536.671C193.8 548.142 227.36 541.556 237.382 508.661C247.403 475.767 245.611 397.381 246.116 381.187C246.622 364.992 282.089 356.257 325.016 355.74C367.942 355.223 401.088 355.993 431.406 358.82C461.725 361.648 474.586 360.107 476.896 396.852C479.206 433.597 479.976 461.354 479.976 483.72C479.976 506.087 480.746 525.614 502.33 534.602C523.914 543.59 524.58 531.005 518.719 509.42C512.858 487.835 510.995 446.102 510.995 446.102L507.467 364.728L446.957 324.121L389.767 311.271L319.349 311.019L244.565 326.696L218.613 344.166L209.373 393.255L212.189 460.63L212.2 460.641Z" fill="#AF6734"/>
<mask id="mask0_1128_33471" style="mask-type:alpha" maskUnits="userSpaceOnUse" x="194" y="311" width="328" height="231">
<path d="M212.2 460.641C210.913 489.134 195.133 525.201 194.467 536.671C193.8 548.142 227.36 541.556 237.382 508.661C247.403 475.767 245.611 397.381 246.116 381.187C246.622 364.992 282.089 356.257 325.016 355.74C367.942 355.223 401.088 355.993 431.406 358.82C461.725 361.648 474.586 360.107 476.896 396.852C479.206 433.597 479.976 461.354 479.976 483.72C479.976 506.087 480.746 525.614 502.33 534.602C523.914 543.59 524.58 531.005 518.719 509.42C512.858 487.835 510.995 446.102 510.995 446.102L507.467 364.728L446.957 324.121L389.767 311.271L319.349 311.019L244.565 326.696L218.613 344.166L209.373 393.255L212.189 460.63L212.2 460.641Z" fill="#AF6734"/>
</mask>
<g mask="url(#mask0_1128_33471)">
<path d="M498 532.5C523 532.5 500 481 503 459.5L516.5 453L553.5 474.5C555.833 483.833 562.3 509.4 569.5 537C576.7 564.6 545.5 565.167 529 562C512.333 556.833 479.119 532.5 498 532.5Z" fill="white"/>
</g>
<path d="M215.682 460.653C214.636 479.088 209.131 497.064 203.741 514.534C201.798 520.971 199.638 527.258 198.27 533.763C198.006 534.832 197.96 535.74 197.822 536.705C197.799 537.372 197.868 537.452 197.983 537.636C198.109 537.797 198.443 538.108 199.132 538.291C201.718 538.935 204.499 538.418 207.2 537.59C219.21 533.637 228.52 523.258 233.071 511.603C241.403 486.318 241.507 458.607 242.863 432.045C243.242 419 243.507 404.507 243.576 391.381C243.656 389.266 243.633 383.221 243.748 381.14C244.713 369.164 257.988 364.061 267.757 360.866C285.433 355.625 303.764 354.199 322.05 353.728C349.277 353.429 376.435 353.452 403.639 354.763C416.775 355.314 431.199 356.682 444.358 357.797C453.53 358.705 464.356 359.797 470.827 367.394C474.068 371.152 475.907 375.842 477.079 380.52C479.343 389.565 479.47 398.748 480.136 407.92C481.883 434.93 482.906 462.342 483.055 489.444C483.262 498.098 483.653 507.063 486.802 515.063C490.445 524.993 499.869 531.188 509.822 533.66C516.074 535.142 518.741 534.016 518.5 526.821C518.339 519.626 515.477 511.374 513.96 504.19C510.064 485.053 508.57 465.756 507.397 446.332C506.593 429.068 504.501 382.761 503.719 364.923L505.386 367.888L444.876 327.282L446.151 327.833L388.962 314.983C393.272 315.225 318.303 314.754 319.36 314.823C323.326 314.167 244.507 330.569 245.369 330.419L246.701 329.856L220.762 347.326C220.762 347.326 222.359 344.901 222.348 344.901L212.981 393.967C213.039 389.634 215.67 461.687 215.693 460.676L215.682 460.653ZM208.728 460.641L205.752 393.427C205.752 393.139 205.752 392.864 205.809 392.599L214.923 343.487C215.119 342.464 215.705 341.614 216.509 341.074C216.532 341.051 242.461 323.615 242.484 323.581C242.897 323.305 243.357 323.121 243.817 323.017L318.602 307.34C318.855 307.283 319.13 307.26 319.395 307.26L389.812 307.513C390.088 307.513 390.364 307.547 390.628 307.605L447.818 320.454C448.278 320.558 448.714 320.753 449.093 321.006L509.604 361.613C510.638 362.302 511.225 363.452 511.271 364.613C512.891 395.932 513.742 442.079 516.558 472.893C517.661 484.042 518.925 495.122 521.442 505.972C523.419 514.833 529.349 531.878 520.902 538.74C512.753 544.981 495.272 536.131 488.963 529.832C474.815 515.959 477.297 493.995 477.01 475.95C476.953 453.366 476.182 430.804 475.022 408.231C473.987 395.565 475.079 380.703 467.275 370.451C461.701 363.911 452.174 363.164 443.933 362.176L430.429 360.912C403.455 358.418 376.354 357.613 349.253 357.647C322.475 357.831 294.915 357.199 269.113 365.118C261.389 367.727 249.219 372.233 248.529 381.29C248.311 416.425 248.977 451.665 244.782 486.674C243.92 493.306 242.725 500.639 240.978 507.086C237.013 523.373 225.486 538.464 209.189 543.877C203.465 545.716 194.535 546.647 191.616 539.705C191.259 538.613 191.144 537.636 191.167 536.521C192.052 528.258 195.04 520.419 197.304 512.546C202.465 495.512 207.694 478.445 208.74 460.641H208.728Z" fill="#232323"/>
<path d="M538.957 344.709C531.383 272.047 471.872 211.729 361.551 212.786C251.229 211.729 191.719 272.047 184.145 344.709C170.813 472.517 216.313 460.656 216.313 460.656C228.025 449.909 234.312 423.865 234.312 386.856C234.312 349.847 262.63 333.675 361.551 333.411C460.471 333.687 488.79 350.502 488.79 386.856C488.79 423.21 495.065 449.909 506.788 460.656C506.788 460.656 552.289 472.529 538.957 344.709Z" fill="#E5E5E5"/>
<path d="M509.719 464.702C507.443 464.702 505.984 464.334 505.834 464.3C505.236 464.139 504.685 463.84 504.236 463.426C491.663 451.887 485.02 425.417 485.02 386.845C485.02 368.972 477.527 357.617 460.712 350.019C441.588 341.376 410.074 337.296 361.539 337.158C313.016 337.296 281.502 341.376 262.378 350.019C245.563 357.617 238.07 368.972 238.07 386.845C238.07 425.405 231.427 451.887 218.853 463.426C218.405 463.84 217.853 464.139 217.256 464.3C216.842 464.403 207.108 466.817 197.339 458.438C179.766 443.335 174.054 404.935 180.375 344.319C184.42 305.505 202.246 272.254 231.921 248.175C264.113 222.05 308.959 208.511 361.574 209.017C362.516 209.017 363.459 209.005 364.401 209.005C415.74 209.005 459.54 222.522 491.158 248.175C520.832 272.254 538.658 305.505 542.704 344.319C549.025 404.935 543.324 443.335 525.74 458.438C519.626 463.69 513.523 464.713 509.707 464.713L509.719 464.702ZM508.558 457.128C510.523 457.323 515.649 457.277 521.039 452.53C529.717 444.887 543.094 420.774 535.199 345.1C528.694 282.748 480.4 216.545 364.516 216.545C363.539 216.545 362.562 216.545 361.574 216.556C360.597 216.556 359.597 216.545 358.632 216.545C242.667 216.545 194.385 282.748 187.88 345.1C179.984 420.774 193.362 444.887 202.039 452.53C207.407 457.266 212.544 457.323 214.532 457.128C224.853 446.726 230.531 421.865 230.531 386.856C230.531 345.41 266.032 329.894 361.539 329.641C457.057 329.906 492.559 345.41 492.559 386.856C492.559 421.865 498.237 446.726 508.558 457.128Z" fill="#232323"/>
<path d="M518.732 459.242C518.571 459.242 518.41 459.173 518.307 459.046C518.158 458.874 502.791 441.174 501.263 407.842C501.148 405.348 501.044 402.854 500.941 400.372C499.711 369.994 498.551 341.306 471.496 326.951C441.97 311.285 408.135 310.63 307.065 316.48C272.494 318.48 248.29 327.02 235.119 341.847C220.603 358.19 221.833 378.672 222.73 393.625C222.959 397.464 223.155 400.774 223.063 403.567C221.925 436.117 215.179 453.909 202.433 457.954C202.122 458.058 201.812 457.885 201.709 457.575C201.617 457.276 201.778 456.954 202.088 456.851C214.317 452.966 220.799 435.519 221.914 403.509C222.006 400.774 221.81 397.475 221.58 393.671C220.672 378.511 219.419 357.765 234.257 341.065C247.635 326.008 272.115 317.342 306.996 315.319C408.307 309.446 442.258 310.124 472.025 325.916C499.665 340.582 500.838 369.592 502.079 400.303C502.182 402.774 502.274 405.268 502.389 407.762C503.906 440.691 518.997 458.081 519.146 458.253C519.353 458.494 519.33 458.851 519.1 459.069C518.985 459.161 518.859 459.219 518.721 459.219L518.732 459.242Z" fill="#232323"/>
<path d="M182.562 362.918C195.503 314.645 241.97 289.255 241.97 289.255L240.729 254.499C184.195 276.854 184.091 310.53 184.091 310.53L176.977 349.355C176.494 351.987 177.057 354.7 178.54 356.918L182.562 362.918Z" fill="#AF6734"/>
<path d="M181.954 359.193C181.54 358.366 180.851 357.929 180.586 357.745C180.448 357.642 180.425 357.55 180.471 357.4L181.012 356.01C188.873 334.574 203.366 316.081 220.686 301.45C226.869 295.738 234.109 291.818 240.178 285.945L238.213 289.393L236.971 254.637L242.131 258.004C223.846 265.498 205.158 276.095 194.32 293.071C190.987 298.577 188.229 304.726 187.816 311.196C186.482 318.483 182.322 341.183 181.046 348.125L180.736 349.803C180.333 351.562 180.782 353.573 181.793 354.975C182.506 356.286 181.655 357.504 181.954 359.182V359.193ZM183.184 366.63C177.322 362.802 171.587 355.941 173.311 348.447C173.863 345.47 174.909 339.735 175.461 336.701L180.379 309.84L180.322 310.507C180.357 309.266 180.483 308.461 180.655 307.335C183.069 293.531 191.999 281.52 202.354 272.59C210.503 265.36 219.87 259.993 229.547 255.234L239.35 250.982C241.706 249.901 244.545 251.775 244.511 254.349C244.511 254.499 245.751 289.117 245.751 289.244C245.797 290.68 244.993 291.945 243.786 292.542C241.913 292.864 240.016 293.738 238.304 294.68C226.57 302.036 216.077 311.53 207.331 322.242C199.883 331.437 193.597 341.562 189.517 352.665C188.999 354.01 188.056 356.837 187.666 358.216L187.229 359.688C186.643 362.147 184.735 364.998 183.184 366.618V366.63Z" fill="#232323"/>
<path d="M541.938 362.913C528.997 314.64 482.531 289.251 482.531 289.251L483.772 254.494C540.306 276.849 540.41 310.525 540.41 310.525L547.524 349.35C548.007 351.982 547.443 354.695 545.961 356.913L541.938 362.913Z" fill="#AF6734"/>
<mask id="mask1_1128_33471" style="mask-type:alpha" maskUnits="userSpaceOnUse" x="482" y="254" width="66" height="109">
<path d="M541.938 362.913C528.997 314.64 482.531 289.251 482.531 289.251L483.772 254.494C540.306 276.849 540.41 310.525 540.41 310.525L547.524 349.35C548.007 351.982 547.443 354.695 545.961 356.913L541.938 362.913Z" fill="#AF6734"/>
</mask>
<g mask="url(#mask1_1128_33471)">
<path d="M487.5 263.5C467.9 221.5 424.667 219 405.5 223L403 221L395.5 225C392.5 226 386.2 227 385 223C383.8 219 381.167 195.333 380 184L392.5 155C395.833 154.833 407.4 153.3 427 148.5C451.5 142.5 454.5 154 467.5 157C480.5 160 543.5 195.5 549.5 202.5C555.5 209.5 582 299 584 305C586 311 588 360 547.5 356C542 277.5 488.366 265 487.5 263.5Z" fill="white"/>
</g>
<path d="M541.318 366.625C539.789 364.924 538.019 362.108 537.479 359.626L537.088 358.143C536.375 355.477 535.375 352.293 534.318 349.764C530.238 339.719 524.182 330.536 517.159 322.272C509.459 313.249 500.449 305.342 490.748 298.538C487.599 296.354 484.163 294.113 480.726 292.561C479.428 291.86 478.704 290.504 478.761 289.113L480.002 254.356C480.002 252.276 481.738 250.598 483.818 250.679C484.289 250.69 484.749 250.805 485.151 250.977L494.954 255.23C498.15 256.828 501.322 258.483 504.482 260.149C520.055 269.195 534.985 281.711 541.57 299.055C542.961 302.733 543.995 306.503 544.179 310.502L544.122 309.836L549.041 336.696C549.592 339.719 550.65 345.454 551.19 348.443C552.914 355.925 547.191 362.798 541.318 366.625ZM542.547 359.189C542.846 357.511 541.996 356.281 542.708 354.982C543.72 353.58 544.168 351.569 543.766 349.81L543.455 348.132C542.214 341.34 538.007 318.376 536.686 311.204C536.272 304.733 533.513 298.584 530.18 293.078C519.343 276.102 500.655 265.494 482.37 258.011L487.53 254.644L486.289 289.4L484.323 285.952C491.277 290.665 497.931 295.457 504.195 301.009C521.308 315.996 534.916 334.892 543.237 356.097L543.823 357.477C543.892 357.637 543.892 357.741 543.789 357.844C543.593 358.028 542.949 358.43 542.547 359.201V359.189Z" fill="#232323"/>
<path d="M331.029 272.25H393.643L394.919 235.735H332.477L331.029 272.25Z" fill="#AF6734"/>
<path d="M333.753 269.643C353.291 269.907 373.933 269.895 393.643 268.482L389.874 272.125L391.161 235.61L394.931 239.518H332.489L336.258 235.898C335.845 247.288 334.891 258.241 333.765 269.654L333.753 269.643ZM328.305 274.872C328.121 261.953 328.145 248.563 328.708 235.587C328.788 233.564 330.466 231.967 332.477 231.967H394.919C397.045 231.967 398.769 233.748 398.689 235.875L397.401 272.39C397.459 274.458 395.712 276.182 393.632 276.033C388.184 275.642 382.794 275.366 377.404 275.205C360.911 274.7 345.108 274.619 328.305 274.872Z" fill="#232323"/>
<path d="M297.719 294.073C327.424 284.151 345.964 259.517 339.129 239.053C332.294 218.589 302.672 210.043 272.967 219.965C243.262 229.887 224.723 254.52 231.558 274.985C238.393 295.449 268.014 303.996 297.719 294.073Z" fill="#AF6734"/>
<path d="M273.125 302.217C266.827 302.217 260.747 301.401 255.092 299.781C241.37 295.815 231.773 287.517 228.061 276.414C224.349 265.3 227.038 252.898 235.635 241.485C243.91 230.486 256.782 221.659 271.861 216.625C303.489 206.062 335.314 215.694 342.796 238.095C350.278 260.496 330.624 287.322 298.995 297.884C290.364 300.769 281.561 302.217 273.136 302.217H273.125ZM297.835 219.82C290.33 219.82 282.296 221.096 274.239 223.785C260.586 228.348 249.012 236.244 241.645 246.037C234.589 255.404 232.302 265.346 235.209 274.035C238.105 282.724 245.909 289.299 257.184 292.54C268.953 295.93 282.951 295.298 296.605 290.735C324.291 281.483 341.807 258.944 335.635 240.485C331.268 227.394 316.143 219.82 297.835 219.82Z" fill="#232323"/>
<path d="M290.983 275.63C309.671 269.388 321.335 253.892 317.035 241.02C312.736 228.148 294.101 222.773 275.414 229.015C256.726 235.257 245.062 250.752 249.362 263.625C253.661 276.497 272.296 281.872 290.983 275.63Z" fill="#232323"/>
<mask id="mask2_1128_33471" style="mask-type:alpha" maskUnits="userSpaceOnUse" x="251" y="228" width="64" height="48">
<path d="M290.281 273.538C307.291 267.856 317.908 253.752 313.994 242.035C310.081 230.318 293.119 225.426 276.11 231.108C259.1 236.79 248.483 250.894 252.396 262.611C256.31 274.327 273.271 279.22 290.281 273.538Z" fill="#232323"/>
</mask>
<g mask="url(#mask2_1128_33471)">
<path d="M285.145 284.228L298.408 226.163C302.772 225.007 309.052 225.001 312.992 224.997L313.145 224.997L299.881 284.228C295.952 285.621 288.419 284.808 285.145 284.228Z" fill="white"/>
</g>
<path d="M490.183 275.305C497.018 254.84 478.479 230.207 448.774 220.284C419.069 210.362 389.447 218.908 382.612 239.373C375.777 259.837 394.317 284.47 424.022 294.393C453.727 304.315 483.348 295.769 490.183 275.305Z" fill="#AF6734"/>
<mask id="mask3_1128_33471" style="mask-type:alpha" maskUnits="userSpaceOnUse" x="381" y="216" width="111" height="83">
<path d="M490.183 275.305C497.018 254.84 478.479 230.207 448.774 220.284C419.069 210.362 389.447 218.908 382.612 239.373C375.777 259.837 394.317 284.47 424.022 294.393C453.727 304.315 483.348 295.769 490.183 275.305Z" fill="#AF6734"/>
</mask>
<g mask="url(#mask3_1128_33471)">
<path d="M487.5 263.5C470 223 423.5 218 399.5 225L403 221L395.5 225C392.5 226 386.2 227 385 223C383.8 219 381.167 195.333 380 184L392.5 155C395.833 154.833 407.4 153.3 427 148.5C451.5 142.5 454.5 154 467.5 157C480.5 160 543.5 195.5 549.5 202.5C555.5 209.5 582 299 584 305C586 311 584 358.5 543.5 354.5C540 274.5 488.366 265 487.5 263.5Z" fill="white"/>
</g>
<path d="M448.249 302.169C440.02 302.169 431.296 300.789 422.573 297.882C407.483 292.847 394.622 284.009 386.347 273.021C377.762 261.608 375.073 249.206 378.773 238.092C382.486 226.978 392.082 218.68 405.805 214.726C419.034 210.91 434.618 211.588 449.708 216.622C481.337 227.185 500.99 254.011 493.508 276.412C488.084 292.641 469.89 302.169 448.249 302.169ZM423.861 219.818C418.275 219.818 412.896 220.53 407.908 221.967C396.645 225.219 388.841 231.794 385.934 240.471C383.037 249.161 385.325 259.102 392.37 268.47C399.737 278.262 411.31 286.158 424.964 290.721C452.65 299.962 480.188 292.468 486.359 274.01C492.52 255.551 475.016 233.012 447.329 223.76C439.456 221.128 431.469 219.806 423.861 219.806V219.818Z" fill="#232323"/>
<path d="M472.372 263.958C476.671 251.085 465.007 235.59 446.32 229.348C427.632 223.106 408.998 228.481 404.699 241.353C400.399 254.225 412.063 269.72 430.751 275.963C449.438 282.205 468.073 276.83 472.372 263.958Z" fill="#232323"/>
<mask id="mask4_1128_33471" style="mask-type:alpha" maskUnits="userSpaceOnUse" x="407" y="229" width="64" height="48">
<path d="M469.239 262.916C473.139 251.238 462.557 237.179 445.602 231.516C428.647 225.852 411.74 230.728 407.84 242.407C403.939 254.086 414.522 268.145 431.476 273.808C448.431 279.472 465.338 274.595 469.239 262.916Z" fill="#232323"/>
</mask>
<g mask="url(#mask4_1128_33471)">
<rect x="451.252" y="219.007" width="14.5917" height="62" transform="rotate(18.091 451.252 219.007)" fill="white"/>
<rect x="466.11" y="226.999" width="4.49262" height="62" transform="rotate(18.091 466.11 226.999)" fill="white"/>
</g>
</svg>
