<svg width="713" height="937" viewBox="0 0 713 937" fill="none" xmlns="http://www.w3.org/2000/svg">
<path d="M207.936 341.658C227.834 341.658 243.964 325.527 243.964 305.628C243.964 285.73 227.834 269.599 207.936 269.599C188.038 269.599 171.908 285.73 171.908 305.628C171.908 325.527 188.038 341.658 207.936 341.658Z" fill="#ECC7D0"/>
<path d="M207.867 345.562C198.52 345.562 189.567 342.323 182.316 336.251C174.137 329.404 169.112 319.784 168.16 309.163C167.219 298.542 170.458 288.183 177.304 279.992C184.15 271.812 193.77 266.787 204.39 265.834C215.01 264.894 225.369 268.132 233.56 274.979C241.74 281.825 246.764 291.446 247.717 302.067C248.657 312.687 245.419 323.046 238.573 331.238C231.727 339.418 222.107 344.443 211.486 345.395C210.284 345.502 209.069 345.562 207.879 345.562H207.867ZM207.998 273.502C207.033 273.502 206.069 273.55 205.093 273.633C196.544 274.395 188.805 278.444 183.304 285.016C177.804 291.601 175.184 299.923 175.946 308.472C176.708 317.021 180.756 324.761 187.329 330.262C193.913 335.763 202.235 338.382 210.784 337.62C219.332 336.858 227.071 332.81 232.572 326.237C238.073 319.653 240.692 311.33 239.93 302.781C239.168 294.232 235.12 286.493 228.548 280.992C222.714 276.11 215.511 273.502 207.998 273.502Z" fill="#232323"/>
<path d="M220.124 293.244C258.652 268.621 304.086 226.959 304.086 226.959L320.136 266.87C320.136 266.87 264.498 303.984 238.34 308.056C212.183 312.128 203.098 304.115 220.112 293.244H220.124Z" fill="#BB1C4D"/>
<path d="M225.814 313.042C217.885 313.042 210.182 311.47 208.05 305.826C206.729 302.338 207.396 296.753 218.028 289.955C255.83 265.796 301.002 224.503 301.454 224.087C302.395 223.217 303.705 222.872 304.955 223.158C306.205 223.444 307.241 224.325 307.717 225.515L323.767 265.427C324.457 267.141 323.85 269.106 322.314 270.13C320.016 271.666 265.653 307.767 238.947 311.923C235.208 312.506 230.47 313.054 225.803 313.054L225.814 313.042ZM302.55 233.6C290.382 244.459 253.818 276.345 222.231 296.527C215.635 300.742 215.373 303.112 215.373 303.135C215.825 303.886 221.302 306.743 237.756 304.183C259.604 300.778 304.038 272.666 315.337 265.343L302.562 233.588L302.55 233.6Z" fill="#232323"/>
<path d="M212.002 361.812C219.455 336.63 314.764 169.031 364.02 201.988C364.02 201.988 384.522 186.438 407.942 209.454C431.373 232.458 463.056 269.464 478.486 296.516C493.928 323.568 505.906 371.755 505.906 371.755L352.292 329.783L211.99 361.812H212.002Z" fill="#BB1C4D"/>
<path d="M432.496 252.498C411.996 224.998 390.496 196.998 368.996 201.998L379.996 197.5L399.996 201.998L432.496 234.5L453.996 264L480.996 303L486.496 322H476.496L468.496 313C463.33 301.999 448.896 274.498 432.496 252.498Z" fill="#E63B70"/>
<path d="M505.906 375.66C505.561 375.66 505.215 375.613 504.87 375.517L352.209 333.808L212.859 365.611C211.514 365.921 210.097 365.492 209.145 364.48C208.192 363.468 207.859 362.027 208.252 360.693C214.752 338.726 284.249 215.193 336.422 196.345C346.756 192.606 356.019 192.963 364.008 197.405C370.557 193.797 389.857 186.212 410.669 206.656C433.719 229.291 465.83 266.452 481.88 294.575C497.405 321.782 509.204 368.814 509.704 370.802C510.038 372.148 509.633 373.565 508.645 374.541C507.906 375.267 506.918 375.648 505.918 375.66H505.906ZM352.293 325.89C352.638 325.89 352.983 325.938 353.317 326.033L500.382 366.206C496.56 352.228 486.749 318.913 475.081 298.469C460.103 272.215 428.576 235.232 405.192 212.252C384.582 192.011 367.08 204.584 366.342 205.132C365.008 206.12 363.199 206.168 361.829 205.251C355.46 200.989 348.018 200.488 339.065 203.715C293.94 220.015 232.35 324.104 218.253 356.383L351.423 325.985C351.709 325.926 352.007 325.89 352.293 325.89Z" fill="#232323"/>
<path d="M522.353 383.743C522.353 383.743 529.413 374.028 520.626 368.562C520.626 368.562 532.878 356.453 511.042 346.202C511.042 346.202 518.364 336.081 499.862 335.414C499.862 335.414 498.933 318.376 476.169 321.698C476.169 321.698 477.371 307.85 457.261 313.172C457.261 313.172 447.546 297.86 431.568 303.587C431.568 303.587 426.377 291.871 414.911 303.052C414.911 303.052 398.433 285.477 383.657 298.527C383.657 298.527 374.204 286.811 365.691 298.658C365.691 298.658 348.915 282.548 338.009 300.123C338.009 300.123 323.638 283.477 310.589 300.658C310.589 300.658 295.552 285.215 285.17 302.385C285.17 302.385 273.454 293.729 265.739 308.374C265.739 308.374 249.094 302.647 246.308 317.423C246.308 317.423 229.139 312.767 229.937 327.008C229.937 327.008 212.899 325.805 219.424 338.45C219.424 338.45 202.386 339.379 204.243 353.631C204.243 353.631 190.396 357.763 194.659 369.467C194.659 369.467 182.55 377.183 194.921 385.422C194.921 385.422 186.134 391.423 195.849 397.71C195.849 397.71 196.516 408.2 203.565 405.14L204.148 402.389C206.946 408.271 210.292 412.224 210.292 412.224C204.362 386.196 237.843 362.407 277.181 360.633C316.519 358.858 372.966 360.633 409.172 360.633C445.379 360.633 491.98 370.789 503.648 405.819L505.994 426.417C505.994 426.417 506.898 425.715 508.184 424.334C508.184 424.334 528.353 420.035 522.103 408.593C522.103 408.593 529.02 408.998 524.496 395.15C524.496 395.15 529.282 393.019 522.365 383.708L522.353 383.743Z" fill="#ECC7D0"/>
<path d="M369 298.995C369.564 298.586 370.16 298.336 370.777 298.218L377 295.498H388L398 293.498L409.5 298.995L424.5 300.498L447 303.498L459 312.498H471L480 321.998L492.5 323.998L501 332.998L512 337.998L513.5 345.498C512 344.498 508.1 342.398 504.5 341.998C500 341.498 495.5 342.998 492.5 332.998C490.1 324.998 478.167 326.998 472.5 328.998C473 328.165 473.4 325.298 471 320.498C468.6 315.698 458.667 319.498 454 321.998C453.834 320.831 451.8 317.298 445 312.498C438.2 307.698 432.834 310.498 431 312.498C431.167 311.665 430.7 309.197 427.5 305.995C424.3 302.793 415.834 307.329 412 309.998C410 307.498 404.4 302.098 398 300.498C391.6 298.898 385 303.496 382.5 305.995C380.175 302.798 374.985 297.42 370.777 298.218L369 298.995Z" fill="white"/>
<path d="M505.977 430.366C505.465 430.366 504.953 430.271 504.465 430.057C503.167 429.509 502.25 428.306 502.096 426.901L499.797 406.72C486.415 367.63 427.075 364.582 409.156 364.582C397.821 364.582 384.498 364.403 370.389 364.224C339.397 363.82 304.274 363.367 277.343 364.582C253.066 365.677 230.42 375.536 219.621 389.705C214.347 396.635 212.43 404.136 214.073 411.399C214.478 413.161 213.621 414.959 212.013 415.769C210.394 416.566 208.441 416.173 207.287 414.792C207.179 414.673 205.477 412.637 203.453 409.351C200.607 410.101 198.464 409.363 197.107 408.529C193.821 406.517 192.618 402.469 192.166 399.957C188.999 397.504 187.379 394.67 187.344 391.527C187.32 389.264 188.141 387.335 189.165 385.835C186.641 383.287 185.391 380.489 185.415 377.465C185.463 373.214 188.118 369.952 190.177 368.047C189.582 364.879 189.975 361.843 191.344 359.128C193.475 354.89 197.428 352.389 200.179 351.079C200.274 347.495 201.441 344.293 203.596 341.697C206.596 338.089 210.87 336.303 214.192 335.434C213.621 332.231 214.454 329.921 215.454 328.397C217.919 324.646 222.705 323.503 226.217 323.194C226.872 319.479 228.706 317.205 230.349 315.871C234.314 312.656 239.838 312.573 243.517 312.99C245.101 309.025 247.649 306.822 249.732 305.608C254.614 302.774 260.352 303.214 263.853 303.893C266.615 299.785 270.044 297.249 274.056 296.332C277.95 295.439 281.462 296.308 283.915 297.332C287.13 293.296 290.963 291.01 295.369 290.51C301.393 289.819 306.834 292.832 310.132 295.225C314.049 291.248 318.431 289.164 323.205 289.022C329.17 288.819 334.266 291.843 337.445 294.344C340.6 290.784 344.339 288.712 348.589 288.176C355.352 287.331 361.603 290.748 365.198 293.308C368.377 290.331 371.532 289.557 373.842 289.486C378.057 289.367 381.664 291.51 383.95 293.403C395.476 285.795 407.941 291.82 415.014 297.821C418.824 294.951 422.562 293.844 426.146 294.534C429.504 295.177 431.825 297.237 433.266 299.047C445.053 296.356 454.292 303.179 458.876 308.799C466.222 307.298 471.854 308.132 475.628 311.311C477.855 313.18 478.974 315.454 479.533 317.443C486.725 317.038 492.535 318.598 496.857 322.134C500.571 325.17 502.286 329.004 503.072 331.731C509.632 332.422 513.716 334.541 515.49 338.184C516.573 340.399 516.49 342.602 516.05 344.4C522.896 348.269 526.825 352.889 527.742 358.176C528.42 362.141 527.206 365.558 525.872 367.916C527.325 369.535 528.277 371.428 528.694 373.524C529.468 377.477 528.146 381.215 526.967 383.573C529.611 387.704 530.516 391.205 529.718 394.206C529.515 394.968 529.218 395.646 528.861 396.23C530.516 402.302 530.218 406.696 527.98 409.613C527.67 410.018 527.325 410.375 526.967 410.696C527.515 413.459 526.944 415.733 526.206 417.328C523.146 423.996 513.668 427.021 510.168 427.925C509.156 428.926 508.465 429.473 508.37 429.545C507.668 430.092 506.822 430.366 505.965 430.366H505.977ZM320.836 355.973C337.373 355.973 354.483 356.199 370.497 356.402C384.582 356.58 397.869 356.759 409.156 356.759C428.456 356.759 492.559 360.212 507.334 404.624C507.418 404.886 507.477 405.148 507.513 405.41L509.18 420.079C512.692 419.031 517.836 416.828 519.11 414.054C519.419 413.364 519.657 412.351 518.645 410.506C517.966 409.256 518.014 407.744 518.776 406.541C519.455 405.469 520.598 404.803 521.848 404.731C522.05 404.279 522.669 402.243 520.764 396.396C520.229 394.753 520.836 392.991 522.181 392.015C522.181 391.467 521.883 389.669 519.205 386.061C518.193 384.692 518.181 382.835 519.169 381.453C519.859 380.489 521.514 377.441 521.026 375C520.871 374.226 520.443 373.059 518.55 371.88C517.538 371.249 516.859 370.19 516.728 368.999C516.597 367.808 517.014 366.63 517.859 365.784C517.859 365.784 520.657 362.867 520.026 359.438C519.419 356.08 515.728 352.723 509.358 349.734C508.31 349.234 507.525 348.305 507.239 347.174C506.941 346.043 507.179 344.852 507.858 343.912C508.263 343.328 508.727 342.102 508.477 341.602C508.132 340.911 505.846 339.542 499.702 339.316C497.678 339.244 496.047 337.637 495.94 335.624C495.94 335.482 495.559 331.088 491.832 328.099C488.51 325.432 483.415 324.575 476.711 325.563C475.533 325.742 474.33 325.361 473.461 324.539C472.592 323.718 472.151 322.551 472.247 321.36C472.247 321.36 472.366 318.729 470.544 317.24C468.437 315.514 464.055 315.419 458.233 316.955C456.59 317.395 454.852 316.705 453.935 315.276C453.614 314.776 445.625 302.702 432.861 307.275C430.932 307.965 428.801 307.048 427.968 305.179C427.968 305.179 426.682 302.559 424.622 302.178C422.872 301.857 420.371 303.167 417.609 305.858C416.859 306.596 415.847 307.001 414.799 306.965C413.752 306.941 412.752 306.501 412.037 305.727C411.478 305.131 397.94 291.105 386.213 301.452C385.415 302.155 384.367 302.512 383.296 302.417C382.236 302.321 381.26 301.809 380.581 300.976C379.712 299.928 376.807 297.154 374.021 297.261C372.282 297.321 370.532 298.559 368.83 300.928C368.163 301.845 367.139 302.44 366.008 302.536C364.877 302.631 363.758 302.25 362.948 301.464C361.067 299.678 354.971 295.189 349.518 295.88C346.351 296.285 343.66 298.345 341.291 302.167C340.636 303.226 339.517 303.905 338.278 304C337.04 304.095 335.826 303.595 335.016 302.655C334.968 302.607 329.587 296.559 323.396 296.773C319.99 296.892 316.716 298.987 313.668 303C312.978 303.905 311.93 304.465 310.799 304.536C309.656 304.607 308.561 304.179 307.763 303.357C306.167 301.738 300.976 297.654 296.226 298.214C293.356 298.547 290.749 300.631 288.475 304.381C287.903 305.322 286.963 305.977 285.891 306.191C284.82 306.405 283.689 306.155 282.807 305.5C282.807 305.5 279.331 303.06 275.735 303.905C273.247 304.488 271.032 306.596 269.151 310.168C268.258 311.871 266.246 312.668 264.424 312.037C262.615 311.43 257.102 310.287 253.614 312.323C251.78 313.395 250.625 315.288 250.089 318.122C249.887 319.193 249.244 320.134 248.327 320.705C247.41 321.289 246.279 321.444 245.232 321.17C243.457 320.693 237.79 319.812 235.242 321.884C234.838 322.217 233.587 323.23 233.79 326.754C233.849 327.873 233.433 328.969 232.635 329.754C231.837 330.54 230.742 330.945 229.623 330.874C226.694 330.671 222.777 331.386 221.967 332.624C221.645 333.112 221.717 334.422 222.848 336.625C223.455 337.803 223.419 339.208 222.765 340.351C222.11 341.506 220.907 342.245 219.586 342.316C217.705 342.435 212.204 343.435 209.573 346.626C208.215 348.281 207.715 350.389 208.072 353.08C208.322 354.985 207.156 356.783 205.31 357.33C203.881 357.771 199.786 359.593 198.297 362.593C197.512 364.165 197.512 365.963 198.286 368.094C198.917 369.821 198.262 371.738 196.714 372.726C195.583 373.464 193.225 375.607 193.213 377.477C193.213 378.834 194.571 380.489 197.047 382.132C198.131 382.847 198.786 384.061 198.786 385.359C198.786 386.657 198.155 387.871 197.083 388.609C196.416 389.086 195.118 390.395 195.142 391.348C195.154 391.955 195.892 393.074 197.928 394.396C198.964 395.063 199.631 396.194 199.702 397.432C199.786 398.647 200.143 399.933 200.524 400.802C201.072 399.54 202.25 398.635 203.655 398.468C204.679 398.349 205.667 398.635 206.453 399.218C207.584 394.301 209.906 389.479 213.394 384.895C225.527 368.963 250.482 357.89 276.973 356.699C290.154 356.104 305.239 355.902 320.824 355.902L320.836 355.973ZM522.122 404.731C522.181 404.731 522.253 404.731 522.312 404.731C522.241 404.731 522.169 404.731 522.122 404.731Z" fill="#232323"/>
</svg>
