<svg width="713" height="937" viewBox="0 0 713 937" fill="none" xmlns="http://www.w3.org/2000/svg">
<path d="M217.217 383.718L211.138 427.602L196.768 429.42L190.979 456.932C190.666 460.51 187.679 463.254 184.078 463.254C180.048 463.254 176.876 459.827 177.177 455.809L181.183 402.499C181.218 402.047 181.264 401.596 181.322 401.156C183.29 385.675 199.872 376.585 214.311 382.525L217.229 383.729L217.217 383.718Z" fill="#DBDBDB"/>
<path d="M184.078 467.04C181.102 467.04 178.242 465.789 176.216 463.612C174.189 461.436 173.159 458.483 173.379 455.519L177.385 402.209C177.42 401.688 177.478 401.178 177.536 400.669C178.601 392.297 183.453 385.026 190.852 380.718C198.505 376.26 207.572 375.635 215.735 378.993L218.653 380.197C220.251 380.857 221.212 382.513 220.969 384.238L214.89 428.123C214.658 429.825 213.303 431.156 211.601 431.376L199.918 432.847L194.719 457.51C194.117 462.964 189.578 467.051 184.066 467.051L184.078 467.04ZM205.036 384.47C201.458 384.47 197.903 385.419 194.684 387.283C189.346 390.387 185.849 395.609 185.085 401.618C185.039 402 184.993 402.383 184.969 402.765L180.963 456.075C180.894 456.955 181.195 457.788 181.785 458.437C182.387 459.085 183.198 459.432 184.078 459.432C185.71 459.432 187.042 458.205 187.193 456.584C187.204 456.433 187.227 456.283 187.262 456.132L193.052 428.621C193.387 427.034 194.684 425.842 196.294 425.633L207.78 424.186L213.06 386.102L212.863 386.021C210.328 384.979 207.676 384.47 205.036 384.47Z" fill="#232323"/>
<path d="M198.887 431.781C198.887 431.781 198.806 431.781 198.76 431.781C198.123 431.712 197.66 431.144 197.73 430.508L202.998 381.656C203.067 381.019 203.612 380.556 204.272 380.625C204.909 380.695 205.372 381.262 205.302 381.899L200.034 430.751C199.976 431.341 199.466 431.781 198.887 431.781Z" fill="#232323"/>
<path d="M496.109 383.718L502.188 427.602L516.558 429.42L522.348 456.932C522.66 460.51 525.648 463.254 529.249 463.254C533.278 463.254 536.451 459.827 536.15 455.809L532.143 402.499C532.109 402.047 532.062 401.596 532.004 401.156C530.036 385.675 513.455 376.585 499.016 382.525L496.098 383.729L496.109 383.718Z" fill="#DBDBDB"/>
<path d="M529.259 467.04C523.736 467.04 519.197 462.952 518.607 457.499L513.419 432.835L501.736 431.365C500.034 431.145 498.679 429.813 498.448 428.111L492.369 384.227C492.126 382.513 493.087 380.846 494.685 380.197L497.602 378.993C505.766 375.635 514.844 376.26 522.486 380.718C529.885 385.026 534.736 392.297 535.802 400.669C535.871 401.178 535.917 401.688 535.964 402.209L539.97 455.519C540.19 458.483 539.16 461.436 537.133 463.612C535.107 465.789 532.247 467.04 529.271 467.04H529.259ZM505.557 424.197L517.044 425.645C518.653 425.842 519.95 427.046 520.286 428.632L526.075 456.144C526.11 456.295 526.133 456.445 526.145 456.596C526.284 458.217 527.627 459.444 529.259 459.444C530.14 459.444 530.95 459.085 531.552 458.448C532.154 457.8 532.444 456.966 532.374 456.086L528.368 402.776C528.345 402.394 528.298 402 528.252 401.618C527.488 395.609 523.991 390.387 518.653 387.283C513.061 384.03 506.437 383.567 500.474 386.021L500.277 386.102L505.557 424.186V424.197Z" fill="#232323"/>
<path d="M514.45 431.781C513.871 431.781 513.362 431.341 513.304 430.751L508.035 381.899C507.966 381.262 508.429 380.695 509.066 380.625C509.726 380.567 510.27 381.019 510.34 381.656L515.608 430.508C515.678 431.144 515.214 431.712 514.578 431.781C514.531 431.781 514.497 431.781 514.45 431.781Z" fill="#232323"/>
</svg>
