<svg width="713" height="937" viewBox="0 0 713 937" fill="none" xmlns="http://www.w3.org/2000/svg">
<path d="M468.003 229.789L416.859 257.868C416.859 257.868 380.369 246.604 354.981 247.259C329.604 246.604 293.102 257.868 293.102 257.868L241.958 229.789C241.958 229.789 214.72 264.224 233.224 316.393L354.981 301.279L476.738 316.393C495.241 264.224 468.003 229.789 468.003 229.789Z" fill="#BC96DA"/>
<path d="M396.5 260.5C377 251.5 328.5 253.5 300 260.5L322.5 253.5L345 249H367L389.5 253.5L418 257.5L455 239.5C446.833 245.833 429.3 259.3 424.5 262.5C418.5 266.5 416 269.5 396.5 260.5Z" fill="#D9D9D9"/>
<path d="M476.738 320.162C476.589 320.162 476.428 320.162 476.267 320.127L354.981 305.071L233.695 320.127C231.948 320.346 230.271 319.311 229.673 317.645C210.686 264.119 237.845 228.903 239.005 227.432C240.143 225.984 242.166 225.582 243.775 226.467L293.528 253.787C300.849 251.626 331.961 242.902 354.97 243.466C378.002 242.902 409.09 251.626 416.411 253.787L466.165 226.467C467.785 225.582 469.796 225.984 470.934 227.432C472.095 228.903 499.253 264.119 480.267 317.645C479.726 319.162 478.29 320.162 476.715 320.162H476.738ZM354.981 297.508C355.131 297.508 355.291 297.508 355.441 297.531L474.152 312.266C487.197 272.222 472.199 243.293 466.808 234.73L418.664 261.166C417.767 261.66 416.71 261.763 415.733 261.464C415.389 261.361 381.496 250.994 357.142 250.994C356.441 250.994 355.751 250.994 355.073 251.017C355.016 251.017 354.947 251.017 354.878 251.017C330.444 250.396 294.574 261.35 294.218 261.464C293.241 261.763 292.183 261.66 291.287 261.166L243.143 234.73C237.752 243.282 222.754 272.211 235.799 312.266L354.51 297.531C354.66 297.508 354.82 297.508 354.97 297.508H354.981Z" fill="#232323"/>
<path d="M238.445 349.45C340.342 303.683 422.999 323.509 471.96 355.209C484.786 363.518 493.474 376.874 495.819 391.976L496.83 398.505C496.83 398.505 519.77 381.414 508.473 346.726C497.175 312.039 456.973 295.385 435.228 287.029C413.483 278.673 329.044 266.639 288.75 282.684C248.455 298.729 241.364 298.66 225.986 312.027C210.608 325.394 181.405 351.473 216.056 386.62L222.021 367.817C224.619 359.634 230.606 352.967 238.445 349.45Z" fill="#9E52DA"/>
<path d="M353.5 280.999C322.5 278.999 304 284.999 272.5 291.999L288.5 280.999L309.5 274.5H349L395 277.5L433 286L465.5 300C476.333 308.167 498.3 324.6 499.5 325C500.7 325.4 507.333 343.167 510.5 352C505.5 345.667 493.1 330.3 483.5 319.5C471.5 306 460 304.5 428 291.999C396 279.499 384.5 282.999 353.5 280.999Z" fill="#D9D9D9"/>
<path d="M236.894 346.002C311.529 311.51 404.059 306.05 474.856 352.622C487.901 361.311 497.015 375.563 499.474 391.034C499.785 392.792 500.267 396.183 500.555 397.907L494.578 395.459L495.072 395.033C502.336 388.436 506.531 378.828 507.45 369.127L507.473 368.299L507.519 366.644C507.726 362.219 507.06 357.725 506.163 353.392C499.348 323.038 470.213 305.315 443.377 293.787C426.149 285.822 407.197 282.788 388.475 280.27C369.592 277.903 350.456 276.753 331.447 277.696C317.356 278.454 303.174 280.213 290.072 285.351L276.694 290.753C263.615 296.281 249.72 300.154 237.756 307.579C233.94 310.039 230.458 312.97 226.906 316.142C202.127 337.267 193.887 358.449 218.746 383.931C218.827 383.977 212.471 385.436 212.482 385.459L215.896 374.713L217.597 369.334C220.229 359.105 227.182 350.266 236.917 345.979L236.894 346.002ZM239.985 352.887C233.204 355.909 227.849 361.875 225.619 368.955L224.768 371.644C223.585 375.299 220.849 384.069 219.654 387.77C218.953 390.493 215.195 391.355 213.356 389.264C209.862 385.701 206.563 381.85 203.748 377.575C182.761 345.979 208.322 319.188 233.894 301.545C242.364 296.246 251.731 293.189 260.925 289.799C269.039 286.845 279.981 282.891 287.888 279.834C311.058 271.662 336.228 271.777 360.248 272.639C379.591 273.512 398.796 275.696 417.839 279.305C424.977 280.719 432.298 282.42 439.148 285.132C471.834 297.062 508.634 317.808 514.691 355.415C515.622 360.151 515.691 365.047 515.392 369.874L515.254 370.84L514.714 374.713C513.22 382.414 509.852 389.746 504.864 395.826C503.359 397.596 501.784 399.309 499.991 400.826C498.291 402.631 495.417 402.929 493.831 400.803C493.441 400.286 493.199 399.7 493.119 399.091L492.406 394.528C490.832 381.666 484.258 369.552 474.121 361.449C467.007 356.059 459.031 351.772 451.066 347.738C384.97 314.832 305.668 322.774 239.997 352.91L239.985 352.887Z" fill="#232323"/>
<path d="M236.123 301.798C234.939 287.879 233.434 273.834 236.525 260.054C237.272 256.583 238.353 253.157 239.778 249.905C240.352 248.56 241.122 247.054 242.421 246.192C244.777 244.445 248.248 244.664 250.397 246.629C250.593 246.825 251.167 247.319 251.374 247.514C256.397 252.181 261.304 256.973 266.2 261.778C266.993 262.559 269.108 264.617 269.889 265.364C274.67 269.156 275.015 276.593 270.2 280.478L265.143 285.11C264.821 285.408 264.327 285.385 264.028 285.064C263.741 284.753 263.752 284.271 264.051 283.972L268.878 279.098C272.004 276.455 272.28 271.283 269.234 268.536C267.89 267.306 265.487 265.387 264.062 264.168C258.569 259.594 253.087 255.019 247.731 250.296C246.628 249.1 244.812 249.491 244.306 251.077C242.766 254.295 241.513 257.628 240.536 261.077C238.088 269.662 237.307 278.765 238.088 287.684C238.479 292.19 239.376 296.649 240.674 300.994C241.502 304.258 236.548 305.212 236.146 301.821L236.123 301.798Z" fill="#232323"/>
<path d="M467.593 300.926C472.351 284.892 471.179 267.02 464.283 251.791C464.133 251.527 463.777 250.642 463.639 250.469C462.984 249.331 461.34 249.32 460.501 250.274C458.571 251.975 456.64 253.664 454.674 255.331C450.353 259.009 445.905 262.721 441.538 266.353L440.228 267.457C437.297 269.445 435.872 273.33 437.515 276.628C437.975 277.594 438.561 278.306 439.354 279.088L444.181 283.961C444.894 284.674 443.825 285.789 443.089 285.099L438.033 280.467C436.113 278.858 434.734 276.422 434.585 273.881C434.24 270.675 435.883 267.411 438.343 265.365C439.113 264.629 441.239 262.549 442.032 261.779C447.422 256.549 452.721 251.205 458.341 246.217C461.582 243.734 466.685 245.297 468.075 249.101C471.696 256.86 473.098 265.537 473.443 273.996C473.891 283.341 472.856 292.513 472.109 301.822C471.719 305.201 466.696 304.27 467.593 300.949V300.926Z" fill="#232323"/>
<path d="M507.955 383.918C507.955 383.918 507.92 383.918 507.909 383.918C507.587 383.895 507.357 383.607 507.38 383.297C508.702 367.746 497.174 359.942 478.073 347.012C475.337 345.161 472.453 343.207 469.43 341.116C444.812 324.071 417.056 316.853 380.233 310.715C346.558 305.106 307.608 309.715 267.613 324.048C225.881 339.012 206.263 354.517 205.861 372.838C205.861 373.16 205.573 373.389 205.274 373.401C204.953 373.401 204.7 373.137 204.711 372.815C205.114 353.954 224.973 338.116 267.222 322.967C307.401 308.566 346.547 303.934 380.417 309.577C417.39 315.738 445.294 323.013 470.085 340.173C473.107 342.265 475.992 344.219 478.728 346.069C498.185 359.241 509.92 367.183 508.541 383.4C508.518 383.699 508.265 383.929 507.966 383.929L507.955 383.918Z" fill="#232323"/>
</svg>
