<svg width="713" height="937" viewBox="0 0 713 937" fill="none" xmlns="http://www.w3.org/2000/svg">
<g clip-path="url(#clip0_1128_33736)">
<path d="M531.502 446.219L520.36 446.958L466.249 450.555C466.249 450.555 465.788 385.471 441.421 330.767L375.95 331.917L382.563 373.978L353.097 387.578L320.822 373.978L323.922 332.22L265.04 337.512C245.904 371.023 246.619 451.681 246.619 451.681L180.009 447.2C180.009 447.2 174.741 215.908 359.625 223.356C372.135 223.864 383.726 225.378 394.48 227.764C538.066 259.579 531.502 446.219 531.502 446.219Z" fill="#DDA458"/>
<path d="M531.502 446.219L520.36 446.957C513.445 341.63 494.745 277.987 389.563 235.539L394.48 227.764C538.066 259.579 531.502 446.219 531.502 446.219Z" fill="#F9C68A"/>
<path d="M246.619 455.653C246.534 455.653 246.437 455.653 246.353 455.653L179.731 451.172C177.684 451.039 176.073 449.355 176.025 447.296C176.001 446.073 175.432 416.922 182.989 379.331C190.001 344.488 205.636 295.778 240.382 261.65C270.901 231.651 311.085 217.433 359.77 219.407C401.625 221.091 436.965 234.158 464.783 258.247C486.994 277.466 504.422 303.674 516.581 336.131C537.157 391.054 535.559 444.16 535.474 446.388C535.401 448.423 533.803 450.082 531.768 450.215L466.503 454.551C465.401 454.636 464.335 454.248 463.536 453.497C462.736 452.746 462.276 451.705 462.264 450.615C462.264 449.985 461.537 387.602 438.842 334.823L380.589 335.841L386.499 373.396C386.777 375.152 385.857 376.884 384.234 377.623L354.769 391.211C353.751 391.684 352.589 391.696 351.559 391.26L319.284 377.671C317.709 377.005 316.741 375.419 316.862 373.711L319.611 336.628L267.51 341.315C250.131 374.559 250.591 450.893 250.603 451.668C250.603 452.771 250.155 453.836 249.356 454.599C248.617 455.302 247.636 455.677 246.631 455.677L246.619 455.653ZM183.982 443.482L242.647 447.43C242.792 430.038 244.475 365.5 261.576 335.55C262.218 334.424 263.38 333.685 264.676 333.564L323.559 328.271C324.722 328.174 325.872 328.574 326.708 329.398C327.543 330.221 327.967 331.36 327.883 332.522L324.988 371.434L353.012 383.242L378.155 371.64L372.002 332.546C371.821 331.408 372.148 330.257 372.886 329.373C373.625 328.489 374.715 327.981 375.866 327.956L441.337 326.806H441.409C442.972 326.806 444.401 327.726 445.043 329.167C466.2 376.642 469.567 430.886 470.112 446.328L527.566 442.513C527.541 429.651 526.149 384.187 509.06 338.699C482.392 267.729 432.06 230.258 359.455 227.34C313.059 225.475 274.873 238.918 245.977 267.293C188.511 323.73 184.248 423.281 183.982 443.482Z" fill="#232323"/>
<path d="M307.076 217.688L301.142 297.74H401.88L389.817 216.138L307.076 217.688Z" fill="#F45A4E"/>
<path d="M344.063 296.334L395.146 291.187L388.885 247.831L389.563 235.538L401.88 297.739L344.063 296.334Z" fill="#FF948F"/>
<path d="M401.88 300.163H301.142C300.464 300.163 299.822 299.884 299.362 299.388C298.901 298.891 298.671 298.237 298.72 297.559L304.642 217.507C304.739 216.259 305.756 215.29 307.016 215.266L389.757 213.716C390.956 213.74 392.021 214.576 392.203 215.787L404.278 297.389C404.374 298.092 404.181 298.794 403.721 299.327C403.26 299.86 402.594 300.163 401.892 300.163H401.88ZM303.746 295.319H399.07L387.722 218.596L309.317 220.062L303.746 295.306V295.319Z" fill="#232323"/>
<path d="M396.817 182.19C396.817 182.19 385.457 250.798 385.457 283.291H313.253C313.253 283.291 314.694 219.407 302.959 189.239C302.268 187.495 301.554 185.86 300.779 184.358L313.253 168.469L369.386 167.027L367.219 191.213L368.321 189.444L372.995 181.972L379.862 171L396.817 182.19Z" fill="#C47670"/>
<path d="M369.386 167.027L367.219 191.213L368.321 189.444L360.521 219.201L362.616 173.119L316.716 174.197L327.919 212.08C324.964 202.984 320.011 189.771 313.192 178.266L304.4 189.36L302.959 189.239C302.268 187.495 301.554 185.86 300.779 184.358L313.253 168.469L369.386 167.027Z" fill="#E28F8A"/>
<path d="M396.817 182.19C396.817 182.19 385.457 250.798 385.457 283.292H381.982C381.982 283.292 382.115 249.078 384.828 227.763C387.528 206.448 390.786 185.569 390.786 185.569L378.736 176.644L372.995 181.972L379.862 171L396.817 182.19Z" fill="#E28F8A"/>
<path d="M311.618 284.89C311.182 284.381 310.903 283.546 310.988 282.855C310.988 282.71 311.036 281.874 311.036 281.693C311.497 265.585 310.504 249.405 308.99 233.37C307.125 217.203 305.26 200.344 298.042 185.642C297.533 184.576 297.715 183.353 298.393 182.481L310.867 166.591C311.448 165.853 312.308 165.465 313.168 165.429L369.302 164C371.094 163.939 372.571 165.514 372.39 167.294L370.222 191.479L364.639 189.602L377.27 169.377C378.167 167.936 380.092 167.512 381.509 168.457C381.533 168.469 398.464 179.647 398.489 179.659C399.506 180.337 399.978 181.536 399.784 182.663C398.343 190.983 396.999 199.363 395.715 207.72C392.034 232.741 388.207 257.968 387.48 283.255C387.48 284.381 386.559 285.302 385.433 285.302C360.885 285.411 336.094 285.217 311.594 284.866L311.618 284.89ZM314.9 281.693C338.54 281.341 361.878 281.148 385.457 281.257L383.411 283.303C383.871 249.175 389.018 215.434 393.826 181.706C393.826 181.706 395.146 184.733 395.146 184.721L378.191 173.531L382.43 172.611L369.798 192.836C368.914 194.253 367.049 194.689 365.62 193.804C364.627 193.175 364.118 192.061 364.203 190.971L366.371 166.785L369.459 170.079L313.325 171.521L315.626 170.358L303.152 186.247L303.467 182.989C307.367 191.055 309.171 199.448 310.746 207.792C315.069 232.232 315.312 257.047 315.517 281.765V282.553V282.952V283.049V283.098C315.59 282.734 315.251 282.008 314.863 281.693H314.9Z" fill="#232323"/>
<path d="M316.171 169.257C317.201 171.122 319.659 175.59 320.628 177.383C321.428 179.103 323.644 184.007 324.455 185.812L326.623 191.589C334.798 214.636 337.874 239.705 335.27 264.024C335.234 264.326 334.955 264.544 334.653 264.508C334.374 264.472 334.156 264.23 334.168 263.951C334.265 247.94 332.473 231.748 329.033 216.137C326.962 206.546 323.765 196.748 320.059 187.653C319.272 185.933 317.104 181.21 316.341 179.526C315.348 177.71 313.035 173.374 312.03 171.509C310.637 168.772 314.609 166.58 316.171 169.257Z" fill="#232323"/>
<path d="M367.521 190.729C362.616 205.746 359.455 247.274 359.455 247.274Z" fill="#6B6B6B"/>
<path d="M368.103 190.922C368.381 191.08 369.398 191.491 369.411 191.794L369.289 192.206C364.99 207.635 362.604 231.3 360.061 247.322C359.964 248.025 358.838 248.001 358.85 247.225C358.886 242.442 359.177 237.67 359.407 232.898C360.315 219.746 361.49 206.521 364.518 193.647C364.76 192.63 365.111 191.54 365.39 190.523C365.39 190.353 366.032 190.414 366.201 190.426C366.807 190.535 367.558 190.607 368.09 190.922H368.103Z" fill="#232323"/>
<path d="M416.776 330.597L418.399 310.42L421.644 330.597H416.776Z" fill="#232323"/>
<path d="M248.472 387.735L236.688 386.924L247.927 393.282L248.472 387.735Z" fill="#232323"/>
<path d="M466.733 434.847L475.949 432.679L465.522 440.938L466.733 434.847Z" fill="#232323"/>
<path d="M218.728 295.317L229.519 296.286L241.072 286.537L252.989 296.286L241.799 281.486L235.852 285.362L229.337 281.486L218.728 295.317Z" fill="#232323"/>
</g>
<defs>
<clipPath id="clip0_1128_33736">
<rect width="359.522" height="291.653" fill="white" transform="translate(176.013 164)"/>
</clipPath>
</defs>
</svg>
