<svg width="713" height="937" viewBox="0 0 713 937" fill="none" xmlns="http://www.w3.org/2000/svg">
<path d="M554.99 549.018C554.542 554.216 549.97 558.072 544.772 557.625L544.067 557.564L528.72 735.745L470.996 730.773L486.343 552.592L485.638 552.532C483.039 552.308 480.773 551.052 479.215 549.201C477.657 547.35 476.808 544.902 477.032 542.303C477.188 540.493 477.838 538.853 478.845 537.498C480.739 534.948 483.871 533.416 487.259 533.708L546.393 538.801C548.992 539.025 551.248 540.279 552.806 542.13C554.364 543.971 555.213 546.419 554.99 549.018Z" fill="#F4764E"/>
<path d="M554.99 549.017C554.542 554.215 549.97 558.072 544.772 557.624L544.067 557.564L534.137 672.854C531.108 670.24 528.926 668.493 528.926 668.493L528.854 665.519L538.069 558.531C538.732 550.829 539.816 550.678 544.046 551.043C548.276 551.407 549.931 546.091 543.576 545.543L479.349 540.011L478.845 537.498C480.739 534.948 483.871 533.415 487.259 533.707L546.393 538.8C548.992 539.024 551.248 540.278 552.806 542.13C554.365 543.971 555.214 546.418 554.99 549.017Z" fill="white"/>
<path d="M528.412 739.195L470.688 734.223C468.784 734.059 467.37 732.379 467.534 730.475L482.609 555.451C476.941 553.691 473.04 548.161 473.57 542.005C474.181 534.913 480.445 529.633 487.547 530.245L546.681 535.338C553.773 535.949 559.053 542.213 558.441 549.315C557.911 555.471 553.132 560.253 547.236 561.017L532.161 736.041C531.997 737.946 530.317 739.359 528.412 739.195ZM474.745 727.619L525.556 731.995L540.605 557.266C540.769 555.362 542.449 553.948 544.354 554.112L545.059 554.173C548.341 554.456 551.244 552.013 551.527 548.73C551.81 545.447 549.367 542.545 546.084 542.262L486.951 537.169C483.668 536.886 480.765 539.328 480.482 542.611C480.199 545.894 482.642 548.797 485.925 549.08L486.63 549.14C488.534 549.304 489.948 550.984 489.784 552.889L474.734 727.618L474.745 727.619Z" fill="#232323"/>
<path d="M490.962 712.746L446.489 659.89L448.294 658.371C449.837 657.072 450.035 654.768 448.737 653.225C447.439 651.682 445.135 651.484 443.592 652.782L429.627 664.533C428.084 665.831 427.885 668.135 429.183 669.678C430.482 671.221 432.786 671.419 434.329 670.121L436.134 668.602L480.607 721.458L490.95 712.756L490.962 712.746Z" fill="#F4764E"/>
<path d="M480.382 724.078C479.708 724.02 479.057 723.709 478.585 723.149L435.814 672.316C434.565 673.279 433.021 673.729 431.443 673.593C429.77 673.449 428.259 672.661 427.172 671.37C426.095 670.09 425.579 668.456 425.723 666.783C425.867 665.11 426.655 663.588 427.935 662.511L441.9 650.76C444.552 648.529 448.529 648.872 450.76 651.523C452.933 654.106 452.666 657.941 450.203 660.199L492.975 711.032C493.917 712.152 493.774 713.815 492.654 714.757L482.311 723.459C481.751 723.931 481.056 724.125 480.383 724.067L480.382 724.078ZM436.371 665.972C437.045 666.03 437.697 666.341 438.168 666.901L480.939 717.734L487.247 712.426L444.476 661.593C443.534 660.473 443.677 658.81 444.797 657.868L446.602 656.348C447.025 655.993 447.081 655.351 446.725 654.928C446.494 654.654 446.193 654.585 446.045 654.573C445.898 654.56 445.589 654.576 445.315 654.807L431.35 666.557C431.075 666.788 431.007 667.089 430.994 667.237C430.982 667.384 430.997 667.693 431.228 667.967C431.459 668.241 431.76 668.31 431.908 668.322C432.055 668.335 432.364 668.319 432.638 668.088L434.444 666.569C435.004 666.098 435.699 665.903 436.372 665.961L436.371 665.972Z" fill="#232323"/>
<path d="M567.204 731.002C565.399 751.962 554.107 769.836 537.925 780.749C525.691 789.002 510.663 793.283 494.806 791.918C457.989 788.747 430.709 756.324 433.879 719.518C436.403 690.225 457.443 666.968 484.477 660.286L528.532 664.462C532.131 666.118 535.545 668.077 538.745 670.303C557.735 683.535 569.334 706.275 567.204 731.002Z" fill="#F4764E"/>
<path d="M567.205 731.002C565.399 751.962 554.108 769.836 537.925 780.749C538.79 779.445 539.776 778.089 540.875 776.646C579.21 726.619 554.189 689.261 534.254 671.496C534.254 671.496 536.046 671.003 538.745 670.303C557.735 683.535 569.334 706.275 567.205 731.002Z" fill="white"/>
<path d="M444.716 763.667L495.262 715.242L489.106 738.965L529.413 722.286L522.271 750.196L567.914 722.761C567.914 722.761 562.266 752.771 559.602 757.121C556.937 761.471 543.063 776.717 543.063 776.717L525.627 785.561L506.567 792.219L487.798 789.966L471.29 784.463L452.638 771.366L444.717 763.656L444.716 763.667Z" fill="#F2DE51"/>
<path d="M567.205 731.002C565.399 751.962 554.108 769.836 537.925 780.749C538.79 779.445 539.776 778.089 540.875 776.646C579.21 726.619 554.189 689.261 534.254 671.496C534.254 671.496 536.046 671.003 538.745 670.303C557.735 683.535 569.334 706.275 567.205 731.002Z" fill="white"/>
<path d="M494.498 795.368C455.84 792.039 427.088 757.879 430.419 719.21C433.005 689.18 454.389 664.151 483.622 656.916C485.485 656.462 487.359 657.588 487.824 659.451C488.279 661.314 487.153 663.188 485.289 663.653C458.927 670.17 439.652 692.742 437.32 719.815C434.319 754.664 460.233 785.463 495.082 788.465C529.931 791.467 560.731 765.552 563.732 730.703C566.021 704.124 551.287 678.772 527.063 667.612C525.319 666.815 524.563 664.757 525.36 663.013C526.157 661.269 528.215 660.513 529.959 661.31C556.824 673.684 573.175 701.804 570.636 731.287C567.306 769.945 533.146 798.697 494.488 795.367L494.498 795.368Z" fill="#232323"/>
<path d="M447.732 763.23C447.363 763.198 447.006 763.04 446.734 762.752C446.12 762.126 446.133 761.121 446.769 760.507L495.236 713.324C495.745 712.828 496.538 712.737 497.153 713.097C497.768 713.468 498.066 714.194 497.868 714.887L491.713 736.755L529.038 720.614C529.599 720.376 530.237 720.473 530.702 720.863C531.165 721.263 531.356 721.884 531.199 722.475L524.711 746.974L564.681 723.005C565.43 722.561 566.405 722.804 566.85 723.552C567.304 724.302 567.051 725.276 566.302 725.721L522.979 751.691C522.421 752.024 521.725 751.986 521.217 751.603C520.699 751.219 520.47 750.552 520.64 749.931L527.297 724.82L489.917 740.988C489.356 741.226 488.708 741.128 488.244 740.728C487.78 740.327 487.591 739.696 487.758 739.106L493.212 719.722L448.979 762.786C448.632 763.117 448.184 763.269 447.732 763.23Z" fill="#232323"/>
<path d="M610.985 604.331C612.228 589.906 601.545 577.209 587.119 575.966C572.693 574.724 559.996 585.407 558.754 599.833C558.028 608.261 561.381 616.097 567.167 621.408C562.145 624.091 558.528 629.165 558.002 635.268C557.177 644.843 564.275 653.266 573.839 654.09C583.404 654.914 591.838 647.817 592.662 638.253C592.991 634.433 592.042 630.801 590.195 627.758C601.247 625.467 609.976 616.169 610.995 604.343L610.985 604.331Z" fill="white"/>
<path d="M573.602 656.719C562.596 655.771 554.413 646.045 555.361 635.039C555.846 629.41 558.646 624.34 563.03 620.944C557.939 615.078 555.446 607.465 556.122 599.615C557.487 583.769 571.498 571.98 587.344 573.345C603.191 574.71 614.98 588.721 613.615 604.567C612.625 616.057 604.731 625.871 593.98 629.472C595.112 632.325 595.559 635.385 595.291 638.489C594.343 649.495 584.618 657.678 573.612 656.73L573.602 656.719ZM586.892 578.596C573.94 577.48 562.5 587.105 561.384 600.058C560.752 607.392 563.514 614.467 568.946 619.461C569.574 620.045 569.883 620.888 569.778 621.737C569.673 622.587 569.153 623.327 568.397 623.738C563.954 626.101 561.041 630.504 560.611 635.491C559.914 643.593 565.943 650.759 574.045 651.457C582.147 652.154 589.312 646.125 590.01 638.023C590.279 634.898 589.558 631.826 587.915 629.119C587.47 628.381 587.409 627.485 587.752 626.699C588.096 625.912 588.803 625.337 589.634 625.165C599.757 623.069 607.446 614.413 608.334 604.102C609.449 591.149 599.824 579.709 586.871 578.594L586.892 578.596Z" fill="#232323"/>
<path d="M413.836 604.552C415.896 601.189 417.236 597.319 417.598 593.12C418.84 578.695 408.158 565.998 393.732 564.755C379.306 563.513 366.609 574.196 365.367 588.622C364.124 603.047 374.807 615.744 389.233 616.987C391.748 617.203 394.209 617.055 396.571 616.58C397.487 621.577 401.639 625.56 406.952 626.018C413.318 626.566 418.929 621.845 419.478 615.479C419.871 610.912 417.548 606.748 413.858 604.543L413.836 604.552Z" fill="white"/>
<path d="M406.704 628.657C401.222 628.185 396.561 624.571 394.651 619.552C392.767 619.761 390.878 619.789 388.995 619.627C373.149 618.262 361.36 604.251 362.725 588.404C364.089 572.558 378.101 560.769 393.947 562.134C409.793 563.499 421.582 577.51 420.217 593.356C419.9 597.039 418.909 600.547 417.272 603.798C420.675 606.741 422.482 611.116 422.086 615.714C421.414 623.521 414.511 629.329 406.704 628.657ZM396.786 613.959C397.228 613.997 397.671 614.152 398.041 614.406C398.621 614.806 399.025 615.413 399.155 616.113C399.876 620.055 403.169 623.052 407.157 623.396C412.06 623.818 416.402 620.175 416.825 615.261C417.121 611.831 415.46 608.592 412.485 606.82C411.88 606.461 411.443 605.872 411.27 605.179C411.106 604.497 411.212 603.764 411.581 603.17C413.505 600.029 414.64 596.575 414.957 592.893C416.072 579.94 406.447 568.5 393.495 567.385C380.542 566.269 369.102 575.894 367.986 588.847C366.871 601.8 376.496 613.239 389.449 614.355C391.648 614.544 393.863 614.428 396.042 613.99C396.29 613.937 396.535 613.927 396.777 613.947L396.786 613.959Z" fill="#232323"/>
</svg>
