<svg width="713" height="937" viewBox="0 0 713 937" fill="none" xmlns="http://www.w3.org/2000/svg">
<path d="M221.938 512.158C206.684 475.619 164.697 458.365 128.159 473.62C91.6202 488.874 74.3661 530.86 89.6205 567.399L169.782 759.409C185.037 795.947 227.023 813.201 263.562 797.947C300.1 782.692 317.354 740.706 302.1 704.168L221.938 512.158Z" fill="#FF158B"/>
<path d="M235.964 806.375C206.665 806.375 178.788 789.065 166.812 760.371L86.6407 568.364C70.7397 530.284 88.7792 486.368 126.859 470.467C145.301 462.768 165.642 462.705 184.135 470.303C202.627 477.902 217.044 492.243 224.755 510.685L304.927 702.692C320.828 740.771 302.788 784.687 264.709 800.588C255.312 804.513 245.562 806.363 235.977 806.363L235.964 806.375ZM155.692 470.945C146.735 470.945 137.79 472.719 129.286 476.279C112.392 483.336 99.2583 496.545 92.289 513.478C85.3324 530.41 85.3825 549.041 92.4398 565.948L172.611 757.955C187.179 792.827 227.397 809.357 262.281 794.802C297.165 780.234 313.682 740.016 299.128 705.132L218.956 513.125C211.899 496.231 198.69 483.097 181.757 476.128C173.354 472.668 164.523 470.945 155.704 470.945H155.692Z" fill="#232323"/>
<path d="M296.524 777.569C289.944 784.388 281.893 790.011 272.584 793.898C236.052 809.145 194.06 791.898 178.814 755.366L98.6293 563.346C84.9927 530.714 97.3211 493.717 126.154 475.338C129.589 473.136 133.262 471.199 137.162 469.576C146.194 465.802 155.553 464.016 164.762 464.016C192.828 464.016 219.459 480.596 230.945 508.108L311.116 700.115C322.489 727.338 315.809 757.605 296.524 777.569Z" fill="#F23BD0"/>
<path d="M296.523 777.569C312.5 749.642 306.625 715.324 296.297 687.724C283.918 654.626 246.506 562.453 228.026 519.078C209.571 475.715 173.404 462.053 126.154 475.338C129.588 473.136 133.262 471.199 137.161 469.576C146.194 465.802 155.553 464.016 164.762 464.016C192.827 464.016 219.459 480.596 230.945 508.108L311.116 700.115C322.488 727.338 315.808 757.605 296.523 777.569Z" fill="white"/>
<path d="M273.804 796.803C247.776 808.364 215.66 802.023 195.432 782.235C185.166 772.763 178.801 760.17 173.995 747.339C157.189 706.24 133.79 651.077 116.631 609.903C110.706 595.499 101.208 574.277 95.5596 559.911C81.8853 523.983 99.7236 480.871 135.853 466.43C171.643 451.384 215.37 467.662 231.988 502.861C238.429 516.913 246.959 538.525 253.123 552.916C270.282 594.178 293.391 649.291 310.487 690.352C316.198 702.906 320.576 716.832 319.695 730.872C318.752 759.327 300.159 786.022 273.817 796.803H273.804ZM271.376 790.991C295.517 781.116 312.525 756.66 313.381 730.607C314.148 717.31 310.072 704.844 304.637 692.792C283.541 642.271 257.903 580.957 236.781 530.386C233.762 523.454 229.485 512.296 226.227 505.666C222.453 497.917 217.195 490.91 210.817 485.111C191.72 467.423 162.372 462.303 138.482 472.732C114.417 482.783 96.9436 506.648 95.4214 532.826C94.805 541.557 96.0503 550.413 98.8053 558.766C101.183 565.899 105.925 576.629 108.756 583.838C129.739 634.484 155.063 695.899 176.461 746.294C181.317 758.686 187.77 770.674 198.111 779.241C217.886 796.513 247.185 800.816 271.351 790.978L271.376 790.991Z" fill="#232323"/>
<path d="M231.963 500.985L204.589 514.156L225.812 558.261L253.186 545.09C257.174 543.165 255.664 531.742 249.802 519.565C243.94 507.388 235.964 499.072 231.963 500.985Z" fill="#515151"/>
<path d="M225.799 561.408C224.63 561.408 223.51 560.753 222.969 559.621L201.759 515.516C201.004 513.956 201.659 512.069 203.231 511.314L230.605 498.143C237.524 494.822 246.871 506.207 252.633 518.196C255.601 524.385 257.614 530.612 258.306 535.757C259.375 543.808 256.847 546.815 254.545 547.922L227.171 561.093C226.731 561.307 226.265 561.408 225.812 561.408H225.799ZM208.779 515.617L227.271 554.048L251.815 542.248C252.758 541.217 252.884 533.229 246.959 520.913C241.109 508.761 234.882 503.842 233.272 503.842H233.259L208.791 515.617H208.779Z" fill="#232323"/>
<path d="M225.753 558.133C229.741 556.214 228.225 544.787 222.367 532.609C216.509 520.432 208.527 512.115 204.539 514.034C200.551 515.952 202.066 527.38 207.925 539.557C213.783 551.735 221.765 560.051 225.753 558.133Z" fill="#6B6B6B"/>
<path d="M224.076 531.932C226.076 536.122 227.963 540.361 229.41 544.915C230.454 548.525 231.448 552.362 230.567 556.325C230.026 559.382 227.095 562.086 223.812 561.596C215.22 560.111 208.791 548.072 205.244 540.99C201.835 533.392 198.036 524.674 199.784 516.082C200.388 513.125 203.357 510.446 206.552 511.025C214.855 512.673 220.491 525.089 224.076 531.945V531.932ZM220.767 533.517C217.937 527.743 214.075 522.12 209.018 518.271C208.024 517.554 206.678 516.723 205.873 516.811C203.432 526.9 213.723 547.154 221.698 553.771C222.642 554.551 223.522 555.205 224.491 555.432C224.629 555.444 224.567 555.432 224.491 555.482C224.403 555.52 224.39 555.595 224.491 555.482C225.774 552.702 225.145 549.179 224.755 546.034C224.076 541.77 222.692 537.518 220.793 533.53L220.767 533.517Z" fill="#232323"/>
<path d="M128.692 565.281L201.03 530.483C205.995 528.094 211.972 530.189 214.361 535.154C216.749 540.12 214.655 546.097 209.69 548.485L137.352 583.283L128.692 565.281Z" fill="#CCCCCC"/>
<path d="M137.388 586.554C136.218 586.554 135.098 585.899 134.557 584.767L125.902 566.765C125.538 566.011 125.487 565.143 125.764 564.363C126.041 563.583 126.619 562.929 127.374 562.564L199.721 527.768C206.25 524.635 214.112 527.39 217.245 533.907C220.377 540.436 217.622 548.298 211.106 551.431L138.759 586.227C138.319 586.44 137.853 586.541 137.4 586.541L137.388 586.554ZM132.934 566.879L138.86 579.207L208.363 545.77C211.76 544.134 213.194 540.033 211.559 536.637C209.923 533.24 205.822 531.806 202.426 533.441L132.922 566.879H132.934Z" fill="#232323"/>
<path d="M307.418 660.889L280.044 674.06L301.266 718.165L328.64 704.994C332.628 703.069 331.118 691.647 325.256 679.469C319.394 667.292 311.418 658.977 307.418 660.889Z" fill="#515151"/>
<path d="M301.253 721.311C300.901 721.311 300.549 721.248 300.209 721.134C299.429 720.858 298.775 720.279 298.41 719.524L277.201 675.419C276.446 673.859 277.1 671.972 278.673 671.217L306.046 658.046C308.348 656.939 312.273 656.851 317.897 662.701C321.494 666.45 325.105 671.909 328.074 678.086C331.043 684.275 333.055 690.502 333.747 695.648C334.817 703.699 332.288 706.705 329.986 707.812L302.612 720.983C302.184 721.185 301.719 721.298 301.253 721.298V721.311ZM284.233 675.532L302.725 713.976L327.268 702.177C328.212 701.145 328.338 693.157 322.413 680.841C316.563 668.689 310.336 663.77 308.726 663.77H308.713L284.245 675.545L284.233 675.532Z" fill="#232323"/>
<path d="M301.217 718.041C305.205 716.122 303.689 704.695 297.831 692.518C291.973 680.34 283.991 672.024 280.003 673.942C276.015 675.861 277.53 687.288 283.388 699.465C289.247 711.643 297.229 719.959 301.217 718.041Z" fill="#6B6B6B"/>
<path d="M299.505 691.848C302.839 699.497 309.644 710.353 305.266 718.794C296.737 729.55 283.705 707.824 280.56 700.956C277.113 693.232 273.465 684.665 275.025 675.922C276.798 668.915 283.83 669.368 288.296 673.532C293.882 678.211 296.436 685.533 299.518 691.848H299.505ZM296.234 693.42C294.36 689.458 291.467 685.973 288.46 682.879C286.233 680.702 284.12 678.098 281.327 677.117C281.226 677.104 281.327 677.117 281.453 677.029C281.579 676.966 281.616 676.853 281.541 676.953C278.383 685.508 291.152 712.416 299.92 715.171C300.033 715.171 299.933 715.146 299.807 715.209C299.681 715.259 299.631 715.347 299.681 715.259C300.776 712.479 300.147 709.133 299.87 706.013C299.304 701.761 298.146 697.408 296.209 693.433L296.234 693.42Z" fill="#232323"/>
<path d="M205.837 725.682L276.383 691.745C281.349 689.356 287.326 691.451 289.715 696.416C292.103 701.381 290.009 707.359 285.043 709.747L214.497 743.684L205.837 725.682Z" fill="#CCCCCC"/>
<path d="M214.54 746.949C214.188 746.949 213.836 746.886 213.496 746.773C212.716 746.497 212.062 745.918 211.697 745.163L203.042 727.161C202.677 726.406 202.627 725.538 202.904 724.758C203.181 723.979 203.76 723.324 204.514 722.96L275.062 689.019C278.22 687.497 281.792 687.296 285.101 688.466C288.409 689.623 291.077 692 292.586 695.171C294.096 698.341 294.31 701.888 293.14 705.209C291.982 708.518 289.605 711.185 286.434 712.694L215.887 746.635C215.459 746.836 214.993 746.949 214.528 746.949H214.54ZM210.087 727.274L216.012 739.603L283.73 707.033C285.378 706.241 286.611 704.857 287.227 703.134C287.831 701.41 287.73 699.548 286.938 697.913C286.145 696.265 284.761 695.032 283.038 694.416C281.314 693.812 279.453 693.913 277.817 694.705L210.1 727.274H210.087Z" fill="#232323"/>
<path d="M149.276 539.443L121.902 552.615L143.125 596.72L170.498 583.549C174.486 581.624 172.977 570.201 167.114 558.024C161.252 545.847 153.276 537.531 149.276 539.443Z" fill="#515151"/>
<path d="M143.125 599.865C141.955 599.865 140.835 599.21 140.294 598.078L119.072 553.973C118.317 552.413 118.971 550.526 120.544 549.771L147.918 536.6C154.837 533.279 164.183 544.664 169.945 556.653C175.707 568.641 178.764 583.058 171.857 586.379L144.483 599.55C144.043 599.764 143.577 599.865 143.125 599.865ZM126.104 554.086L144.596 592.518L169.14 580.718C170.083 579.686 170.209 571.698 164.284 559.382C158.434 547.23 152.207 542.312 150.597 542.312H150.584L126.117 554.086H126.104Z" fill="#232323"/>
<path d="M143.07 596.607C147.058 594.689 145.542 583.262 139.684 571.084C133.826 558.907 125.844 550.59 121.856 552.509C117.868 554.427 119.384 565.854 125.242 578.032C131.1 590.209 139.082 598.526 143.07 596.607Z" fill="#6B6B6B"/>
<path d="M141.439 570.377C144.571 577.661 151.226 589.474 147.087 597.336C138.797 608.079 125.399 586.329 122.38 579.548C119.059 572.277 113.763 559.697 117.851 551.96C119.499 548.979 123.726 548.186 126.557 549.721C134.444 554.023 137.551 563.006 141.439 570.39V570.377ZM138.029 572.013C136.117 568.037 133.501 564.389 130.532 561.282C128.305 559.081 126.003 556.665 123.198 555.759C123.097 555.759 123.236 555.759 123.361 555.671C123.5 555.596 123.55 555.483 123.487 555.558C123.424 555.634 123.311 555.873 123.223 556.175C122.254 563.131 125.387 570.352 128.192 576.743C130.972 582.404 134.306 588.128 138.986 592.241C139.916 592.996 140.835 593.675 141.791 593.789C141.917 593.789 141.816 593.751 141.703 593.801C141.577 593.839 141.527 593.927 141.602 593.839C142.822 591.084 142.256 587.65 141.904 584.517C141.263 580.253 139.942 575.975 138.004 572.013H138.029Z" fill="#232323"/>
<path d="M137 583.99C138.71 583.168 138.064 578.279 135.558 573.07C133.052 567.86 129.635 564.304 127.926 565.126C126.217 565.949 126.862 570.838 129.368 576.047C131.874 581.256 135.291 584.812 137 583.99Z" fill="#232323"/>
<path d="M225.384 700.34L198.01 713.511L219.233 757.616L246.607 744.445C250.594 742.52 249.085 731.098 243.223 718.92C237.36 706.743 229.385 698.428 225.384 700.34Z" fill="#515151"/>
<path d="M219.22 760.762C218.868 760.762 218.516 760.699 218.176 760.586C217.396 760.309 216.742 759.73 216.377 758.975L195.155 714.87C194.79 714.115 194.74 713.247 195.017 712.468C195.293 711.688 195.872 711.033 196.627 710.669L224.001 697.497C226.303 696.39 230.228 696.302 235.851 702.152C239.449 705.901 243.059 711.36 246.028 717.537C251.79 729.526 254.847 743.942 247.94 747.263L220.566 760.435C220.139 760.636 219.673 760.749 219.208 760.749L219.22 760.762ZM202.212 714.983L220.705 753.428L245.248 741.628C246.191 740.596 246.317 732.608 240.392 720.292C234.517 708.09 228.24 703.158 226.693 703.221L202.225 714.996L202.212 714.983Z" fill="#232323"/>
<path d="M219.184 757.49C223.172 755.571 221.656 744.144 215.798 731.967C209.94 719.789 201.959 711.473 197.97 713.391C193.982 715.31 195.498 726.737 201.356 738.915C207.214 751.092 215.196 759.408 219.184 757.49Z" fill="#6B6B6B"/>
<path d="M217.761 731.174C221.145 738.81 225.938 746.961 224.302 755.767C223.736 758.875 220.553 761.705 217.22 761.114C208.791 759.428 202.137 747.439 198.577 740.395C195.318 733.174 190.11 720.619 194.148 712.971C195.771 710.077 199.809 709.41 202.552 710.845C210.49 714.996 213.861 723.789 217.748 731.161L217.761 731.174ZM213.924 733.01C211.156 727.224 207.018 721.927 202.174 717.94C201.206 717.197 200.287 716.581 199.331 716.367C199.193 716.367 199.268 716.367 199.356 716.317C199.457 716.266 199.47 716.204 199.394 716.317C198.929 717.185 198.853 718.304 198.866 719.525C199.218 729.752 208.124 749.402 217.22 754.446C217.522 754.56 217.786 754.623 217.899 754.61C218.012 754.61 217.912 754.572 217.786 754.635C217.648 754.685 217.597 754.774 217.648 754.685C217.698 754.597 217.824 754.371 217.912 754.056C218.994 747.075 216.83 739.489 213.924 732.998V733.01Z" fill="#232323"/>
<path d="M213.207 745.065C214.948 744.228 214.286 739.24 211.729 733.925C209.172 728.609 205.688 724.979 203.947 725.816C202.207 726.653 202.868 731.641 205.425 736.957C207.983 742.272 211.466 745.902 213.207 745.065Z" fill="#232323"/>
<path d="M176.223 614.566L176.212 614.571C170.46 617.18 167.913 623.957 170.522 629.709L185.244 662.164C187.853 667.916 194.631 670.463 200.382 667.854L200.394 667.849C206.145 665.24 208.693 658.463 206.084 652.711L191.361 620.256C188.752 614.504 181.975 611.957 176.223 614.566Z" fill="#232323"/>
<path d="M222.358 591.632L222.347 591.638C216.595 594.246 214.048 601.024 216.657 606.775L231.38 639.231C233.989 644.982 240.766 647.53 246.517 644.921L246.529 644.916C252.28 642.307 254.828 635.529 252.219 629.778L237.496 597.322C234.887 591.571 228.11 589.023 222.358 591.632Z" fill="#232323"/>
<path d="M223.258 672.337C222.126 672.337 221.031 671.746 220.44 670.676C219.572 669.117 220.126 667.154 221.686 666.286L232.945 659.996C234.492 659.128 236.467 659.682 237.335 661.242C238.203 662.801 237.649 664.764 236.09 665.632L224.831 671.922C224.327 672.199 223.786 672.337 223.258 672.337Z" fill="#232323"/>
</svg>
