<svg width="713" height="937" viewBox="0 0 713 937" fill="none" xmlns="http://www.w3.org/2000/svg">
<path d="M245.108 633.589C243.101 633.589 241.471 631.96 241.471 629.953V619.288C241.471 617.282 243.101 615.652 245.108 615.652C247.114 615.652 248.744 617.282 248.744 619.288V629.953C248.744 631.96 247.114 633.589 245.108 633.589Z" fill="#232323"/>
<path d="M261.215 636.683C259.408 636.683 257.834 635.331 257.612 633.49L256.127 621.473C255.883 619.478 257.302 617.66 259.286 617.416C261.293 617.172 263.1 618.591 263.343 620.575L264.829 632.592C265.073 634.588 263.654 636.406 261.67 636.65C261.514 636.672 261.37 636.683 261.215 636.683Z" fill="#232323"/>
<path d="M281.303 639.531C279.839 639.531 278.454 638.633 277.899 637.181L271.946 621.506C271.237 619.632 272.179 617.526 274.053 616.816C275.926 616.107 278.032 617.049 278.742 618.923L284.695 634.598C285.404 636.471 284.462 638.578 282.589 639.287C282.167 639.453 281.724 639.52 281.303 639.52V639.531Z" fill="#232323"/>
<path d="M289.96 611.298L278.487 620.211H247.247L244.132 617.473L243.001 616.475L236.727 610.966H216.007L217.615 596.055L217.737 594.947L218.546 587.442L218.657 586.344L224.621 530.982L276.891 528L284.451 576.223L284.64 577.376L287.012 592.475L287.189 593.606L288.275 600.567L288.453 601.698L289.96 611.298Z" fill="#00D459"/>
<path d="M288.453 601.695L288.275 600.564L267.334 598.89L267.212 591.807L287.189 593.603L287.012 592.472L267.19 590.698L266.924 574.557L284.639 577.373L284.451 576.22L266.913 573.427L266.492 548.628L241.693 539.493L242.203 569.502L231.594 567.817L232.159 535.014L231.051 534.992L230.485 567.64L221.65 566.243L221.473 567.329L230.463 568.759L230.142 587.372L218.657 586.341L218.546 587.439L230.131 588.481L229.998 595.92L217.737 594.944L217.615 596.053L229.976 597.039L229.743 610.963H230.84L231.084 597.128L242.691 598.048L243.001 616.473L244.132 617.47L243.799 598.137L266.237 599.921L266.581 620.208H267.689L267.346 600.01L288.453 601.695ZM231.572 568.937L242.225 570.633L242.525 588.481L231.25 587.472L231.572 568.937ZM231.106 596.008L231.228 588.581L242.547 589.59L242.669 596.928L231.106 596.008ZM242.824 541.089L265.406 549.404L265.794 573.26L243.312 569.68L242.824 541.089ZM243.334 570.81L265.816 574.38L266.082 590.598L243.633 588.581L243.334 570.81ZM243.777 597.017L243.655 589.7L266.104 591.707L266.215 598.802L243.777 597.017Z" fill="#17E269"/>
<path d="M278.487 623.856H247.247C246.361 623.856 245.507 623.535 244.842 622.947L235.352 614.599H216.008C214.977 614.599 213.99 614.156 213.303 613.391C212.615 612.626 212.283 611.595 212.394 610.575L220.996 530.592C221.185 528.818 222.626 527.454 224.411 527.343L276.68 524.372C278.542 524.273 280.194 525.592 280.483 527.443L293.552 610.731C293.752 612.039 293.231 613.358 292.189 614.167L280.715 623.091C280.072 623.59 279.285 623.856 278.487 623.856ZM248.622 616.584H277.234L286.037 609.744L273.809 531.833L227.903 534.449L220.065 607.338H236.738C237.625 607.338 238.479 607.66 239.144 608.247L248.633 616.595L248.622 616.584Z" fill="#232323"/>
<path d="M532.816 510.238C532.639 511.225 532.417 512.156 532.14 513.032C531.674 514.562 531.065 515.925 530.344 517.101C529.901 517.821 529.147 518.83 528.082 520.105C526.53 521.934 524.324 524.295 521.475 527.022C518.793 529.594 515.522 532.499 511.687 535.592C511.11 536.068 510.523 536.534 509.924 536.999C503.661 541.944 496.011 547.309 487.021 552.608C486.378 552.985 485.735 553.351 485.092 553.728C477.132 558.295 468.175 562.785 458.231 566.864C457.544 567.153 456.857 567.43 456.158 567.707C444.562 572.341 431.67 576.398 417.513 579.369C416.793 579.524 416.072 579.68 415.34 579.813C402.592 582.385 388.845 584.07 374.112 584.524H373.935C373.192 584.557 372.449 584.568 371.718 584.58C356.397 584.934 342.119 584.092 328.883 582.373C328.14 582.285 327.386 582.185 326.654 582.074C309.782 579.746 294.616 576.01 281.136 571.565C280.427 571.332 279.728 571.099 279.03 570.866C261.814 565.013 247.402 558.04 235.751 551.444C235.075 551.078 234.421 550.701 233.767 550.325C220.02 542.398 210.309 535.159 204.534 531.312C204.257 531.135 203.991 530.947 203.736 530.758C203.081 530.304 202.461 529.838 201.884 529.361C197.55 525.836 195.332 522.111 194.357 518.641C194.057 517.588 193.869 516.568 193.78 515.571C193.148 509.108 196.253 504.152 196.253 504.152C194.302 500.394 194.612 496.536 196.12 492.9C196.408 492.202 196.751 491.504 197.117 490.827C199.944 485.639 204.899 481.061 208.635 478.079C210.797 476.349 212.56 475.152 213.269 474.686C213.491 474.542 213.613 474.465 213.613 474.465C217.26 477.369 220.985 480.096 224.776 482.679C232.847 488.178 241.194 492.956 249.708 497.08C250.373 497.412 251.049 497.734 251.726 498.044C264.685 504.163 278.021 508.797 291.379 512.223C292.1 512.4 292.81 512.589 293.53 512.755C303.962 515.338 314.382 517.167 324.637 518.398C325.379 518.486 326.122 518.575 326.865 518.653C341.609 520.304 355.976 520.703 369.457 520.227C370.188 520.205 370.931 520.171 371.663 520.138C383.535 519.639 394.676 518.464 404.742 516.868C405.474 516.757 406.206 516.635 406.926 516.513C421.349 514.118 433.432 510.892 442.068 507.622C442.789 507.356 443.476 507.09 444.152 506.824C444.396 506.724 444.629 506.624 444.873 506.525C449.95 504.418 454.639 501.913 458.941 499.164C459.573 498.765 460.204 498.366 460.814 497.944C468.563 492.745 475.015 486.792 480.236 481.016C480.78 480.429 481.301 479.841 481.81 479.254C487.453 472.769 491.522 466.649 494.127 462.27C494.57 461.517 494.98 460.818 495.335 460.175C496.931 457.359 497.696 455.663 497.696 455.663C497.696 455.663 502.098 444.755 512.684 452.271C513.228 452.659 513.782 453.091 514.358 453.579C517.972 456.639 519.912 459.687 520.866 462.448C521.154 463.279 521.342 464.077 521.464 464.842C522.285 469.875 520.09 473.467 520.09 473.467C523.127 476.615 525.588 479.996 527.517 483.444C527.905 484.12 528.26 484.797 528.603 485.484C532.993 494.286 534.08 503.365 532.816 510.238Z" fill="#00D459"/>
<path d="M518.638 494.996L532.14 513.033C532.417 512.157 532.639 511.226 532.816 510.239L520.278 493.488C523.205 490.784 525.976 488.101 528.604 485.485C528.26 484.797 527.905 484.121 527.517 483.445C524.823 486.139 521.963 488.899 518.948 491.704L507.286 476.139C512.474 472.204 517.208 468.401 521.465 464.843C521.343 464.078 521.154 463.28 520.866 462.448C516.432 466.173 511.443 470.197 505.956 474.366L495.335 460.176C494.981 460.819 494.571 461.517 494.127 462.271L504.193 475.707C498.761 479.786 492.852 483.988 486.544 488.178L481.811 479.254C481.301 479.842 480.78 480.429 480.237 481.017L484.693 489.409C478.119 493.71 470.858 498.156 462.998 502.501L460.814 497.945C460.205 498.366 459.573 498.765 458.941 499.164L461.058 503.577C456.025 506.315 450.748 509.009 445.272 511.592L444.152 506.825C443.476 507.091 442.789 507.357 442.068 507.623L443.221 512.556C432.379 517.567 420.728 522.145 408.501 525.837L406.926 516.514C406.206 516.636 405.474 516.757 404.743 516.868L406.361 526.469C395.375 529.661 383.924 532.122 372.139 533.519L371.663 520.139C370.931 520.172 370.188 520.205 369.457 520.227L369.933 533.774C362.107 534.606 354.147 534.971 346.088 534.772C339.769 534.617 333.517 534.118 327.331 533.286L326.865 518.653C326.122 518.576 325.38 518.487 324.637 518.398L325.103 532.976C313.518 531.247 302.188 528.342 291.114 524.24L293.53 512.756C292.81 512.589 292.1 512.401 291.38 512.223L289.018 523.442C275.716 518.332 262.79 511.492 250.263 502.945L251.726 498.045C251.05 497.734 250.374 497.413 249.708 497.08L248.345 501.625C240.319 496.005 232.459 489.697 224.777 482.68C220.985 480.097 217.26 477.37 213.613 474.465C213.613 474.465 213.491 474.543 213.269 474.687C215.243 476.682 217.227 478.634 219.234 480.54L211.163 503.233C206.418 499.309 201.74 495.174 197.117 490.828C196.752 491.504 196.408 492.203 196.12 492.901C200.809 497.269 205.565 501.437 210.398 505.395L204.334 522.467C200.787 520.249 197.261 517.955 193.781 515.571C193.869 516.569 194.058 517.589 194.357 518.642C197.406 520.693 200.476 522.688 203.569 524.617L201.884 529.362C202.461 529.839 203.082 530.304 203.736 530.759L205.498 525.803C215.487 531.945 225.708 537.499 236.128 542.443L233.767 550.325C234.421 550.702 235.075 551.079 235.751 551.445L238.157 543.397C252.225 549.959 266.658 555.447 281.358 559.815L279.03 570.867C279.729 571.1 280.427 571.333 281.136 571.565L283.487 560.435C297.532 564.504 311.811 567.552 326.255 569.57L326.655 582.075C327.386 582.186 328.14 582.285 328.883 582.374L328.484 569.88C342.629 571.754 356.93 572.641 371.297 572.53L371.718 584.58C372.45 584.569 373.192 584.558 373.935 584.525L373.514 572.497C386.817 572.297 400.186 571.233 413.567 569.304L415.341 579.813C416.072 579.68 416.793 579.525 417.513 579.37L415.762 568.971C419.509 568.406 423.267 567.763 427.014 567.065C436.259 565.313 445.394 562.852 454.318 559.87L456.158 567.708C456.857 567.43 457.544 567.153 458.231 566.865L456.424 559.149C465.415 556.045 474.173 552.431 482.587 548.496L485.092 553.728C485.735 553.352 486.378 552.986 487.021 552.609L484.593 547.543C493.03 543.518 501.122 539.195 508.738 534.772L509.924 537C510.523 536.534 511.11 536.069 511.687 535.592L510.656 533.652C514.381 531.457 517.995 529.24 521.476 527.023C524.325 524.296 526.531 521.935 528.083 520.105C522.34 523.93 516.154 527.843 509.614 531.701L498.916 511.514C504.06 507.59 508.793 503.687 513.117 499.929C515.013 498.278 516.853 496.637 518.638 494.996ZM290.648 526.435C301.889 530.57 313.407 533.508 325.169 535.226L325.823 555.779C312.387 553.795 299.262 550.602 286.491 546.212L290.648 526.435ZM249.597 505.184C262.18 513.709 275.183 520.538 288.553 525.648L284.374 545.47C270.284 540.47 256.604 533.996 243.345 526.07L249.597 505.184ZM220.996 482.203C229.665 490.318 238.567 497.546 247.68 503.865L241.383 524.883C231.683 518.952 222.216 512.234 212.992 504.729L220.996 482.203ZM236.771 540.293C226.395 535.348 216.207 529.805 206.263 523.675L212.227 506.88C221.495 514.341 231.018 521.048 240.762 526.956L236.771 540.293ZM281.813 557.631C267.179 553.274 252.812 547.809 238.8 541.246L242.724 528.131C246.416 530.326 250.141 532.411 253.888 534.373C263.688 539.517 273.709 543.895 283.941 547.509L281.813 557.631ZM283.952 558.251L286.058 548.241C299.018 552.686 312.31 555.912 325.89 557.93L326.189 567.32C311.922 565.302 297.82 562.276 283.952 558.251ZM327.397 535.537C333.55 536.346 339.769 536.834 346.043 536.989C354.158 537.189 362.151 536.823 370.011 535.991L370.776 557.974C356.198 558.639 341.953 558.008 328.051 556.101L327.397 535.537ZM328.417 567.63L328.118 558.251C342.075 560.169 356.32 560.823 370.854 560.18L371.219 570.313C356.841 570.435 342.552 569.526 328.417 567.63ZM485.735 491.371L496.078 510.893C489.416 515.915 482.099 520.97 474.173 525.803L463.963 504.508C471.845 500.151 479.139 495.695 485.735 491.371ZM462.012 505.572L472.266 526.956C465.725 530.87 458.797 534.617 451.48 538.075L445.793 513.798C451.425 511.148 456.846 508.388 462.012 505.572ZM443.742 514.751L449.429 539.029C438.1 544.25 425.894 548.74 412.913 552.032L408.866 528.032C421.149 524.351 432.845 519.773 443.742 514.751ZM372.217 535.747C384.101 534.34 395.652 531.878 406.727 528.664L410.751 552.564C402.792 554.482 394.544 555.946 386.041 556.832C381.662 557.287 377.316 557.642 372.993 557.875L372.217 535.747ZM373.436 570.28L373.071 560.081C377.45 559.848 381.851 559.504 386.274 559.039C394.832 558.141 403.113 556.677 411.128 554.759L413.201 567.109C399.92 569.038 386.639 570.091 373.436 570.28ZM426.604 564.881C422.868 565.59 419.132 566.222 415.396 566.788L413.279 554.227C426.315 550.935 438.565 546.445 449.95 541.235L453.808 557.697C444.928 560.679 435.816 563.14 426.604 564.881ZM455.926 556.977L452.001 540.281C459.473 536.767 466.557 532.954 473.23 528.963L481.622 546.501C473.352 550.369 464.75 553.928 455.926 556.977ZM507.696 532.821C500.113 537.222 492.054 541.545 483.629 545.547L475.137 527.821C483.086 522.977 490.436 517.91 497.131 512.877L507.696 532.821ZM497.863 509.53L487.586 490.152C494.005 485.895 500.003 481.627 505.523 477.481L517.307 493.222C515.467 494.907 513.572 496.604 511.609 498.3C507.419 501.947 502.829 505.727 497.863 509.53Z" fill="#17E269"/>
<path d="M512.685 452.271C509.691 457.204 505.213 463.723 498.606 471.76C481.922 492.08 452.999 525.958 375.986 528.929C299.417 531.9 250.939 510.66 208.635 478.079C211.473 475.806 213.613 474.465 213.613 474.465C293.94 538.252 408.212 521.723 444.873 506.525C481.522 491.315 497.697 455.663 497.697 455.663C497.697 455.663 502.098 444.755 512.685 452.271Z" fill="white"/>
<path d="M365.044 588.305C280.349 588.305 227.57 551.677 207.25 537.587C205.454 536.335 203.869 535.248 202.516 534.339C187.451 524.296 188.814 510.993 192.195 503.986C186.12 487.701 210.587 472.071 211.673 471.394C212.981 470.574 214.666 470.663 215.874 471.627C258.932 505.816 310.281 514.895 345.777 516.491C386.65 518.331 424.298 511.126 443.476 503.177C477.831 488.921 493.706 455.63 494.36 454.222C494.781 453.214 497.331 447.748 503.084 446.329C507.352 445.265 511.942 446.784 516.709 450.819C526.098 458.757 526.176 467.581 524.391 472.791C538.049 488.322 539.845 508.576 533.448 519.019C527.207 529.195 471.346 585.179 374.223 588.183C371.13 588.283 368.06 588.327 365.044 588.327V588.305ZM213.48 478.977C208.192 482.835 194.922 493.677 199.479 502.468C200.066 503.61 200.011 504.984 199.334 506.071C198.581 507.323 192.217 518.719 206.562 528.275C207.948 529.195 209.567 530.326 211.407 531.601C233.833 547.154 286.38 583.582 374.002 580.877C424.032 579.336 461.679 563.173 484.449 549.893C510.024 534.971 524.779 519.24 527.251 515.194C531.708 507.933 530.787 489.786 517.484 475.995C516.332 474.809 516.132 472.991 516.997 471.572C517.418 470.851 520.999 463.956 512.019 456.351C510.046 454.677 507.197 452.804 504.869 453.358C502.452 453.934 501.078 457.016 501.067 457.049C501.056 457.083 501.033 457.138 501.022 457.16C500.335 458.668 483.828 494.298 446.281 509.873C406.727 526.28 293.84 540.946 213.502 478.966L213.48 478.977Z" fill="#232323"/>
<path d="M233.091 610.963C233.168 604.234 233.678 594.479 234.011 587.661C234.443 580.81 234.997 571.11 235.651 564.359C235.762 563.084 237.691 563.073 237.802 564.359C238.168 568.239 238.445 572.13 238.722 576.01C239.42 586.83 240.174 600.177 240.363 610.963C240.285 615.841 233.168 615.863 233.091 610.963Z" fill="#232323"/>
<path d="M198.27 501.125C221.351 517.51 245.95 532.664 272.733 542.132C273.343 542.309 273.698 542.952 273.498 543.562C273.31 544.127 272.711 544.448 272.146 544.293C268.598 543.329 265.217 542.176 261.825 540.945C249.996 536.677 238.456 531.412 227.237 525.725C216.263 520.16 204.811 513.597 194.246 507.189C190.034 504.462 194.091 498.287 198.281 501.136L198.27 501.125Z" fill="#232323"/>
<path d="M219.577 628.258C219.522 628.258 219.455 628.258 219.389 628.258C217.382 628.159 215.83 626.452 215.93 624.445L216.551 611.929C216.65 609.923 218.347 608.382 220.364 608.47C222.371 608.57 223.923 610.277 223.823 612.284L223.202 624.8C223.102 626.74 221.495 628.258 219.577 628.258Z" fill="#232323"/>
<path d="M233.39 626.893C231.384 626.893 229.754 625.264 229.754 623.257V612.105C229.754 610.098 231.384 608.469 233.39 608.469C235.397 608.469 237.026 610.098 237.026 612.105V623.257C237.026 625.264 235.397 626.893 233.39 626.893Z" fill="#232323"/>
<path d="M289.961 629.376C288.586 629.376 287.278 628.6 286.657 627.269L281.735 616.66C280.893 614.842 281.68 612.669 283.509 611.827C285.327 610.973 287.489 611.771 288.342 613.601L293.264 624.21C294.107 626.028 293.32 628.2 291.491 629.043C290.992 629.276 290.471 629.387 289.961 629.387V629.376Z" fill="#232323"/>
</svg>
