<svg width="713" height="937" viewBox="0 0 713 937" fill="none" xmlns="http://www.w3.org/2000/svg">
<path d="M582.665 795.016C578.468 803.338 570.072 808.564 560.923 808.829C559.842 808.861 558.75 808.818 557.658 808.712L514.715 789.695L470.701 799.914C459.613 798.79 450.602 790.511 448.514 779.561C441.03 740.317 427.705 644.731 452.585 552.505C484.948 432.569 547.715 337.641 547.715 337.641C548.351 338.595 548.987 339.549 549.612 340.503C687.273 549.346 609.994 740.614 582.665 795.016Z" fill="#00B1E9"/>
<path d="M582.665 795.016C578.467 803.337 570.072 808.563 560.923 808.828C583.651 776.496 614.011 717.896 616.746 633.048C621.146 496.014 587.69 420.537 547.747 342.495L549.612 340.502C687.272 549.345 609.994 740.613 582.665 795.016Z" fill="#33D9FF"/>
<path d="M560.15 811.489C559.227 811.489 558.316 811.446 557.383 811.351C557.107 811.319 556.831 811.256 556.577 811.139L514.45 792.482L471.295 802.499C471.009 802.563 470.722 802.584 470.425 802.552C458.277 801.323 448.185 792.079 445.896 780.068C438.74 742.553 424.821 645.207 450.019 551.826C482.118 432.855 544.863 337.141 545.489 336.187C545.976 335.445 546.803 335 547.694 335C548.574 335 549.411 335.445 549.899 336.177C690.919 547.267 612.432 741.662 585.008 796.224C580.291 805.605 570.528 811.51 560.139 811.51L560.15 811.489ZM558.337 806.114C567.421 806.867 576.199 801.969 580.291 793.828C607.238 740.21 684.082 549.886 547.747 342.495C536.414 360.473 483.634 447.621 455.139 553.193C430.228 645.525 444.019 741.906 451.111 779.072C452.966 788.814 460.747 796.054 470.542 797.231L514.121 787.118C514.683 786.991 515.266 787.044 515.796 787.277L558.337 806.114Z" fill="#232323"/>
<path d="M556.863 435.4L485.903 601.481L547.704 603.686L497.139 733.258L603.389 554.859L538.1 558.336L556.863 435.4Z" fill="white"/>
<path d="M514.715 790.755C514.715 790.755 514.662 790.755 514.641 790.755C514.058 790.713 513.623 790.204 513.666 789.621L546.655 337.556C546.697 336.973 547.196 336.539 547.789 336.581C548.372 336.623 548.807 337.132 548.764 337.715L515.775 789.78C515.733 790.342 515.266 790.766 514.715 790.766V790.755Z" fill="#232323"/>
<path d="M470.351 710.592C443.807 718.892 423.656 749.941 423.656 749.941L473.288 742.118L470.351 710.592Z" fill="#006FE9"/>
<path d="M423.656 752.593C422.765 752.593 421.928 752.147 421.429 751.384C420.857 750.504 420.857 749.381 421.429 748.501C422.277 747.197 442.408 716.55 469.556 708.07C470.319 707.826 471.146 707.953 471.814 708.388C472.482 708.822 472.906 709.554 472.98 710.349L475.917 741.875C476.044 743.264 475.069 744.525 473.691 744.737L424.058 752.561C423.92 752.582 423.783 752.593 423.645 752.593H423.656ZM468.03 714.218C450.475 721.045 435.995 737.868 429.518 746.338L470.426 739.893L468.03 714.218Z" fill="#232323"/>
<path d="M567.39 715.564C593.934 723.865 614.085 754.914 614.085 754.914L564.453 747.091L567.39 715.564Z" fill="#006FE9"/>
<path d="M614.096 757.564C613.958 757.564 613.821 757.564 613.683 757.532L564.051 749.709C562.673 749.486 561.697 748.235 561.824 746.846L564.761 715.32C564.835 714.525 565.27 713.804 565.927 713.359C566.595 712.914 567.422 712.797 568.185 713.041C595.333 721.521 615.464 752.179 616.312 753.472C616.884 754.352 616.884 755.475 616.312 756.355C615.824 757.119 614.976 757.564 614.086 757.564H614.096ZM567.326 744.864L608.234 751.309C601.768 742.839 587.276 726.016 569.722 719.189L567.326 744.864Z" fill="#232323"/>
</svg>
