<svg width="713" height="937" viewBox="0 0 713 937" fill="none" xmlns="http://www.w3.org/2000/svg">
<path d="M350.62 517.834L348.461 531.046C325.57 533.205 284.237 525.6 250.422 517.985C242.076 516.094 234.203 514.204 227.167 512.474C208.831 507.941 196.242 504.386 196.242 504.386L195.801 502.259C194.727 497.028 196.983 491.668 201.473 488.768L200.915 485.137C200.27 480.851 202.773 476.715 206.865 475.308L208.917 474.599L210.657 471.194C212.333 467.918 215.587 465.856 219.132 465.619C220.013 465.566 220.926 465.619 221.828 465.802L226.093 466.651C231.227 467.671 236.63 469.025 242.195 470.636C290.532 484.6 350.62 517.834 350.62 517.834Z" fill="#565656"/>
<path d="M212.387 473.182C221.045 466.555 274.72 488.65 294.173 497.415C313.626 506.18 332.66 514.451 332.66 514.451L334.046 510.047L268.952 480.615C268.952 480.615 236.298 470.626 230.648 469.133C224.998 467.64 215.63 465.609 215.63 465.609L212.376 472.076V473.193L212.387 473.182Z" fill="#848484"/>
<path d="M242.195 470.636C240.38 474.943 236.115 477.961 231.131 477.961C224.503 477.961 219.121 472.591 219.121 465.952C219.121 465.845 219.122 465.727 219.132 465.619C220.013 465.566 220.926 465.619 221.828 465.802L226.093 466.651C231.227 467.671 236.631 469.025 242.195 470.636Z" fill="#727272"/>
<path d="M251.067 514.107C251.067 515.46 250.841 516.771 250.423 517.984C242.076 516.094 234.203 514.203 227.167 512.474C227.962 506.62 232.989 502.098 239.058 502.098C245.685 502.098 251.067 507.479 251.067 514.107Z" fill="#727272"/>
<path d="M287.814 525.106C294.446 525.106 299.823 519.729 299.823 513.097C299.823 506.465 294.446 501.088 287.814 501.088C281.182 501.088 275.805 506.465 275.805 513.097C275.805 519.729 281.182 525.106 287.814 525.106Z" fill="#727272"/>
<path d="M339.642 534.946C292.175 534.946 199.465 508.963 195.275 507.781C194.008 507.427 193.041 506.385 192.784 505.096L192.343 502.969C191.129 497.039 193.191 491.099 197.66 487.232L197.424 485.675C196.522 479.713 200.002 473.956 205.706 471.99L206.415 471.743L207.51 469.605C210.314 464.127 216.479 461.152 222.516 462.355L226.77 463.203C276.578 473.064 349.256 513.066 352.328 514.763C353.628 515.483 354.337 516.944 354.1 518.415L351.941 531.627C351.684 533.206 350.395 534.42 348.794 534.57C345.99 534.839 342.929 534.957 339.642 534.957V534.946ZM199.261 501.572C214.116 505.654 305.065 530.081 345.432 527.75L346.742 519.747C334.11 512.937 269.424 478.843 225.405 470.121L221.141 469.272C218.187 468.682 215.169 470.143 213.805 472.817L212.064 476.222C211.646 477.039 210.936 477.651 210.077 477.952L208.026 478.661C205.545 479.52 204.019 482.023 204.416 484.622L204.964 488.264C205.168 489.638 204.556 491.003 203.396 491.755C200.099 493.881 198.487 497.727 199.271 501.572H199.261Z" fill="#232323"/>
<path d="M519.209 502.259L518.769 504.386C518.769 504.386 514.999 505.449 508.564 507.157C502.85 508.683 495.03 510.713 485.91 512.958C472.591 516.212 456.511 519.929 440.108 523.173C433.191 524.537 426.209 525.826 419.366 526.954C398.957 530.305 379.708 532.293 366.55 531.046L364.391 517.834C364.391 517.834 398.775 498.822 436.445 483.515C443.116 480.797 449.905 478.198 456.607 475.846C467.843 471.903 478.885 468.638 488.918 466.651L490.282 466.382L493.182 465.802C497.694 464.9 502.259 467.102 504.353 471.194L505.804 474.019L506.094 474.6L508.145 475.308C512.238 476.716 514.741 480.851 514.096 485.137L513.538 488.768C518.028 491.668 520.283 497.028 519.209 502.259Z" fill="#565656"/>
<path d="M393.372 509.317C433.362 491.185 492.323 469.229 501.818 470.174C511.314 471.12 492.806 464.879 492.806 464.879L426.756 488.532L392.351 504.172L393.372 509.306V509.317Z" fill="#848484"/>
<path d="M440.709 519.413C440.709 520.724 440.495 521.991 440.108 523.173C433.191 524.537 426.209 525.826 419.366 526.954C417.691 524.892 416.691 522.26 416.691 519.413C416.691 512.775 422.073 507.404 428.701 507.404C435.328 507.404 440.709 512.775 440.709 519.413Z" fill="#727272"/>
<path d="M460.41 484.611C460.41 491.238 455.028 496.62 448.401 496.62C441.773 496.62 436.391 491.238 436.391 484.611C436.391 484.246 436.413 483.87 436.445 483.515C443.116 480.798 449.905 478.198 456.607 475.846C458.949 478.037 460.41 481.152 460.41 484.611Z" fill="#727272"/>
<path d="M508.564 507.159C502.85 508.684 495.03 510.714 485.91 512.959C485.04 511.294 484.546 509.404 484.546 507.406C484.546 500.767 489.917 495.396 496.555 495.396C503.193 495.396 508.436 500.638 508.564 507.159Z" fill="#727272"/>
<path d="M505.804 474.019C504.536 474.492 503.161 474.739 501.722 474.739C496.362 474.739 491.818 471.227 490.282 466.382L493.182 465.802C497.694 464.9 502.259 467.102 504.353 471.194L505.804 474.019Z" fill="#727272"/>
<path d="M375.358 534.945C372.082 534.945 369.02 534.817 366.206 534.559C364.605 534.408 363.316 533.205 363.059 531.616L360.9 518.403C360.663 516.932 361.372 515.471 362.672 514.751C365.744 513.054 438.422 473.063 488.23 463.192L492.484 462.343C498.521 461.14 504.687 464.116 507.49 469.594L508.586 471.731L509.294 471.978C514.998 473.944 518.478 479.702 517.576 485.663L517.34 487.221C521.809 491.088 523.871 497.028 522.657 502.957L522.217 505.084C521.948 506.373 520.992 507.415 519.725 507.769C515.535 508.951 422.836 534.935 375.358 534.935V534.945ZM369.579 527.738C409.924 530.069 500.884 505.642 515.75 501.561C516.535 497.704 514.923 493.859 511.625 491.732C510.465 490.98 509.842 489.616 510.057 488.241L510.605 484.6C511.003 482 509.488 479.497 506.996 478.638L504.944 477.929C504.085 477.628 503.365 477.016 502.957 476.2L501.217 472.795C499.842 470.12 496.824 468.648 493.87 469.25L489.616 470.099C445.597 478.821 380.911 512.914 368.279 519.725L369.589 527.727L369.579 527.738Z" fill="#232323"/>
<path d="M400.826 596.862L395.122 620.633L360.889 613.426L361.34 543.197L379.87 544.261L390.557 571.082L399.279 592.984L400.826 596.862Z" fill="#565656"/>
<path d="M399.279 592.982C397.41 594.185 395.187 594.883 392.791 594.883C386.164 594.883 380.782 589.502 380.782 582.874C380.782 576.999 384.993 572.122 390.557 571.08L399.279 592.982Z" fill="#727272"/>
<path d="M395.122 624.167C394.886 624.167 394.639 624.145 394.392 624.092L360.159 616.884C358.515 616.54 357.345 615.09 357.355 613.414L357.795 543.186C357.795 542.219 358.204 541.296 358.913 540.64C359.621 539.974 360.556 539.641 361.523 539.695L380.052 540.758C381.416 540.834 382.619 541.704 383.124 542.971L404.081 595.573C404.35 596.249 404.403 596.991 404.231 597.7L398.527 621.481C398.141 623.093 396.701 624.188 395.101 624.188L395.122 624.167ZM364.434 610.579L392.491 616.487L397.131 597.13L377.42 547.655L364.831 546.935L364.423 610.579H364.434Z" fill="#232323"/>
<path d="M371.276 638.161L361.415 646.572H361.405L346.785 659.064L328.159 626.152C328.159 626.152 328.503 616.42 330.211 601.801C330.995 595.012 332.091 587.15 333.573 578.718C335.743 566.429 338.761 552.916 342.94 539.693L366.904 544.259L370.696 625.733L371.276 638.161Z" fill="#565656"/>
<path d="M371.276 638.162L361.415 646.573H361.405C355.347 645.961 350.62 640.848 350.62 634.628C350.62 628.001 356.001 622.619 362.629 622.619C365.733 622.619 368.559 623.801 370.696 625.734L371.276 638.162Z" fill="#727272"/>
<path d="M346.742 590.673C346.742 597.311 341.361 602.682 334.733 602.682C333.133 602.682 331.608 602.371 330.211 601.801C330.995 595.013 332.091 587.15 333.573 578.718C333.949 578.686 334.336 578.664 334.733 578.664C341.361 578.664 346.742 584.046 346.742 590.673Z" fill="#727272"/>
<path d="M346.775 662.587C346.57 662.587 346.366 662.566 346.162 662.534C345.131 662.351 344.229 661.717 343.703 660.794L325.076 627.892C324.754 627.323 324.593 626.678 324.625 626.034C324.636 625.583 326.366 580.393 339.567 538.63C340.104 536.932 341.833 535.901 343.584 536.234L367.549 540.799C369.149 541.1 370.331 542.464 370.406 544.097L374.789 638.011C374.842 639.096 374.38 640.148 373.553 640.857L349.052 661.749C348.407 662.297 347.591 662.587 346.764 662.587H346.775ZM331.725 625.303L347.752 653.607L367.688 636.603L363.521 547.191L345.389 543.743C334.347 580.328 332.059 618.729 331.736 625.303H331.725Z" fill="#232323"/>
<path d="M396.186 542.475C394.994 545.45 392.856 547.932 390.192 549.607C388.484 550.692 386.551 551.455 384.51 551.82V553.249C384.51 556.965 381.481 559.994 377.753 559.994C374.542 559.994 371.846 557.739 371.169 554.72C370.492 557.739 367.796 559.994 364.584 559.994C361.373 559.994 358.665 557.739 357.999 554.72C357.323 557.739 354.627 559.994 351.404 559.994C347.688 559.994 344.658 556.965 344.658 553.249V551.992C338.879 551.498 333.745 547.813 331.618 542.507C329.975 538.415 329.148 534.086 329.148 529.639C329.148 518.349 334.583 508.306 342.983 501.979C348.805 497.597 356.055 494.986 363.886 494.986C364.648 494.986 365.433 495.008 366.196 495.062C383.694 496.189 397.614 510.196 398.592 527.651C398.882 532.786 398.066 537.77 396.186 542.475Z" fill="#D1D1D1"/>
<path d="M396.186 542.475C394.994 545.45 392.856 547.932 390.192 549.607C389.913 548.802 389.838 547.91 390.031 546.922C392.212 535.547 395.778 492.978 343.574 506.007L342.983 501.979C348.805 497.597 356.055 494.986 363.886 494.986C364.648 494.986 365.433 495.008 366.196 495.062C383.694 496.189 397.614 510.196 398.592 527.651C398.882 532.786 398.066 537.77 396.186 542.475Z" fill="white"/>
<path d="M363.886 498.511C364.573 498.511 365.272 498.533 365.959 498.576C381.556 499.585 394.198 512.293 395.058 527.847C395.326 532.573 394.532 537.084 392.899 541.166C391.105 545.656 386.637 548.524 381.781 548.524H380.965V553.24C380.965 555.023 379.526 556.462 377.743 556.462C375.96 556.462 374.52 555.023 374.52 553.24V548.524H367.796V553.24C367.796 555.023 366.356 556.462 364.573 556.462C362.79 556.462 361.351 555.023 361.351 553.24V548.524H354.627V553.24C354.627 555.023 353.187 556.462 351.404 556.462C349.621 556.462 348.182 555.023 348.182 553.24V548.524H345.991C341.146 548.524 336.688 545.678 334.883 541.198C333.455 537.621 332.66 533.722 332.66 529.63C332.66 512.443 346.635 498.501 363.875 498.501M363.886 491.465C342.779 491.465 325.614 508.587 325.614 529.64C325.614 534.539 326.527 539.319 328.342 543.83C330.619 549.502 335.453 553.583 341.286 555.012C342.124 559.846 346.345 563.53 351.404 563.53C353.907 563.53 356.206 562.628 357.989 561.135C359.772 562.628 362.071 563.53 364.573 563.53C367.076 563.53 369.375 562.628 371.158 561.135C372.941 562.628 375.24 563.53 377.743 563.53C382.952 563.53 387.271 559.631 387.926 554.604C393.114 552.885 397.357 549.007 399.44 543.798C401.514 538.61 402.405 533.11 402.094 527.471C401.578 518.222 397.647 509.457 391.019 502.797C384.402 496.137 375.659 492.152 366.4 491.551C365.562 491.497 364.702 491.465 363.864 491.465H363.886Z" fill="#232323"/>
<path d="M360.889 525.613C360.889 522.03 357.987 519.125 354.407 519.125C350.826 519.125 347.924 522.03 347.924 525.613V535.098C347.924 538.681 350.826 541.586 354.407 541.586C357.987 541.586 360.889 538.681 360.889 535.098V525.613Z" fill="#232323"/>
<path d="M379.859 525.613C379.859 522.03 376.957 519.125 373.376 519.125C369.796 519.125 366.894 522.03 366.894 525.613V535.098C366.894 538.681 369.796 541.586 373.376 541.586C376.957 541.586 379.859 538.681 379.859 535.098V525.613Z" fill="#232323"/>
<path d="M210.98 472.472C217.897 476.006 224.868 479.4 231.872 482.73L242.377 487.725C245.868 489.401 249.391 491.023 252.904 492.655C253.366 492.87 253.57 493.418 253.355 493.88C253.151 494.32 252.646 494.514 252.206 494.353C248.564 493.021 244.934 491.678 241.271 490.4C230.636 486.619 218.982 482.429 208.294 478.992C203.579 477.252 206.393 470.377 210.99 472.483L210.98 472.472Z" fill="#232323"/>
<path d="M514.794 491.433C501.378 494.054 481.055 497.534 467.413 499.973C466.543 500.134 466.221 498.791 467.112 498.565C474.9 496.664 494.675 491.82 502.195 490.015C506.105 489.102 510.004 488.146 513.914 487.287C515.052 487.04 516.191 487.759 516.438 488.898C516.695 490.058 515.944 491.197 514.783 491.433H514.794Z" fill="#232323"/>
<path d="M375.519 560.006C373.596 584.131 382.404 617.924 382.404 617.924L371.276 616.496L367.678 560.919L375.519 560.017V560.006Z" fill="#232323"/>
</svg>
