<svg width="713" height="937" viewBox="0 0 713 937" fill="none" xmlns="http://www.w3.org/2000/svg">
<path d="M211.202 469.312C243.903 527.105 423.892 637.748 528.587 641.049L532.076 647.818C533.24 650.077 533.638 652.647 533.206 655.14L531.711 663.836C531.002 667.924 528.177 671.335 524.278 672.787L520.889 674.049C259.091 615.305 200.634 492.775 200.634 492.775V490.282C200.634 485.264 202.34 480.401 205.475 476.48L211.202 469.324V469.312Z" fill="#383838"/>
<path d="M520.888 677.684C520.623 677.684 520.357 677.651 520.091 677.595C384.179 647.099 303.8 599.099 260.309 564.216C212.864 526.153 197.964 495.623 197.355 494.338C197.122 493.851 197 493.319 197 492.776V490.284C197 484.468 199.005 478.763 202.639 474.21L208.366 467.054C209.119 466.112 210.293 465.591 211.49 465.702C212.697 465.802 213.771 466.489 214.359 467.53C230.022 495.224 281.179 536.411 344.687 572.469C414.798 612.271 481.873 635.954 528.698 637.428C530.016 637.472 531.213 638.225 531.811 639.4L535.3 646.168C536.818 649.104 537.338 652.516 536.784 655.783L535.289 664.479C534.37 669.83 530.636 674.327 525.541 676.222L522.151 677.485C521.741 677.64 521.321 677.717 520.888 677.717V677.684ZM204.267 491.89C206.771 496.609 222.844 524.945 265.349 558.932C308.109 593.117 387.093 640.142 520.634 670.262L523.015 669.376C525.685 668.379 527.645 666.019 528.133 663.217L529.628 654.532C529.927 652.826 529.651 651.031 528.853 649.491L526.339 644.606C478.494 642.457 411.164 618.552 341.109 578.783C279.85 543.999 229.69 504.175 210.825 475.628L208.322 478.752C205.718 482.009 204.278 486.107 204.278 490.284V491.901L204.267 491.89Z" fill="#232323"/>
<path d="M324.071 574.697C323.972 574.697 323.883 574.674 323.795 574.619C323.185 574.265 219.687 510.912 205.973 476.46C205.862 476.172 205.995 475.851 206.283 475.74C206.56 475.629 206.893 475.762 207.003 476.05C220.573 510.147 323.739 573.301 324.348 573.666C324.614 573.821 324.703 574.165 324.548 574.42C324.448 574.597 324.26 574.697 324.071 574.697Z" fill="#232323"/>
<path d="M531.401 650.687C531.401 650.687 531.368 650.687 531.346 650.687C530.659 650.62 461.999 643.818 413.756 621.907C413.479 621.785 413.357 621.453 413.479 621.176C413.612 620.899 413.934 620.777 414.211 620.899C462.276 642.733 530.759 649.512 531.445 649.579C531.744 649.612 531.977 649.878 531.944 650.188C531.911 650.476 531.678 650.687 531.39 650.687H531.401Z" fill="#232323"/>
<path d="M468.103 624.666L445.483 675.191C443.987 675.103 442.503 675.003 441.029 674.892C352.142 667.936 308.84 608.814 308.84 608.814L332.745 562.609L335.327 557.613L350.714 561.047C354.27 561.845 357.737 563.019 361.038 564.559L443.445 602.954C449.858 605.945 455.563 610.243 460.205 615.583L468.103 624.666Z" fill="#565656"/>
<path d="M468.103 624.666L445.483 675.191C443.987 675.103 442.503 675.003 441.029 674.892L439.357 674.039L460.393 625.53C460.393 625.53 447.842 613.644 433.475 605.945C419.107 598.246 379.316 582.261 369.402 575.825C359.498 569.389 347.434 565.755 332.745 562.62L335.327 557.613L350.714 561.047C354.27 561.845 357.737 563.019 361.038 564.559L443.445 602.954C449.859 605.945 455.563 610.243 460.205 615.583L468.103 624.666Z" fill="white"/>
<path d="M445.482 678.834C445.416 678.834 445.339 678.834 445.272 678.834C396.951 676.053 361.68 657.819 340.611 643.009C317.713 626.913 306.381 611.615 305.904 610.972C305.084 609.853 304.974 608.38 305.605 607.15L332.103 555.961C332.867 554.498 334.518 553.723 336.124 554.077L351.511 557.511C355.321 558.364 359.044 559.627 362.578 561.278L444.984 599.684C451.897 602.908 457.945 607.461 462.941 613.21L470.839 622.293C471.77 623.357 471.991 624.875 471.415 626.16L448.806 676.696C448.219 678.014 446.912 678.845 445.494 678.845L445.482 678.834ZM313.138 608.402C316.738 612.789 327.406 624.875 345.042 637.226C364.937 651.162 398.004 668.266 443.2 671.412L463.838 625.307L457.457 617.973C453.126 612.988 447.898 609.056 441.916 606.264L359.509 567.858C356.452 566.429 353.228 565.332 349.927 564.601L337.276 561.776L313.149 608.402H313.138Z" fill="#232323"/>
<path d="M330.463 568.925C334.119 574.298 337.653 579.737 341.242 585.143C344.532 590.349 349.14 594.481 354.513 597.206C374.818 605.836 405.913 619.107 425.797 628.069C431.225 630.716 437.296 632.876 443.422 632.71C449.692 632.544 456.228 631.148 462.465 630.561C463.406 630.45 464.27 631.126 464.381 632.068C464.492 632.965 463.883 633.785 463.008 633.962C459.828 634.604 456.638 635.225 453.447 635.812L448.662 636.709C441.871 638.016 434.693 637.341 428.246 634.815C410.422 627.481 387.69 617.678 370.021 609.923C367.197 608.672 359.431 605.249 356.673 604.008C348.675 600.84 341.563 595.002 337.387 587.547C334.108 581.941 330.774 576.38 327.561 570.731C326.553 568.87 329.178 567.108 330.475 568.914L330.463 568.925Z" fill="#232323"/>
<path d="M395.877 609.455C397.817 609.455 399.389 607.883 399.389 605.943C399.389 604.004 397.817 602.432 395.877 602.432C393.938 602.432 392.366 604.004 392.366 605.943C392.366 607.883 393.938 609.455 395.877 609.455Z" fill="#232323"/>
</svg>
