<svg width="713" height="937" viewBox="0 0 713 937" fill="none" xmlns="http://www.w3.org/2000/svg">
<path d="M210.126 474.379C343.044 533.234 506.775 482.705 506.775 482.705L515.84 524.31C333.321 579.712 203.621 515.526 203.621 515.526L210.126 474.379Z" fill="#494949"/>
<path d="M366.964 550.628C337.243 550.628 311.467 547.938 290.671 544.498C235.503 535.385 203.269 519.65 201.93 518.981C200.415 518.229 199.569 516.585 199.828 514.929L206.333 473.782C206.521 472.596 207.249 471.575 208.294 470.999C209.351 470.424 210.608 470.377 211.7 470.858C279.55 500.897 355.773 501.542 407.77 496.798C464.301 491.631 505.236 479.161 505.647 479.031C506.681 478.714 507.796 478.843 508.724 479.384C509.652 479.924 510.321 480.84 510.544 481.885L519.61 523.478C520.032 525.439 518.881 527.4 516.967 527.987C460.872 545.015 409.825 550.616 366.964 550.616V550.628ZM207.883 513.25C216.538 517.09 246.729 529.467 292.244 536.947C341.564 545.05 419.372 548.89 511.307 521.646L503.874 487.557C492.12 490.821 455.67 500.145 408.628 504.455C356.83 509.199 281.37 508.67 213.144 479.889L207.872 513.25H207.883Z" fill="#232323"/>
<path d="M215.846 489.719L191.925 491.01L211.242 506.617C220.813 500.757 215.846 489.719 215.846 489.719Z" fill="white"/>
<path d="M211.254 509.552C210.596 509.552 209.939 509.329 209.41 508.894L190.093 493.288C189.154 492.525 188.766 491.256 189.142 490.105C189.518 488.955 190.563 488.144 191.772 488.074L215.693 486.782C216.937 486.712 218.03 487.405 218.535 488.508C220.625 493.147 222.104 503.41 212.792 509.117C212.323 509.411 211.794 509.552 211.254 509.552ZM199.722 493.523L211.336 502.905C214.894 499.676 214.448 495.261 213.802 492.759L199.722 493.523Z" fill="#232323"/>
<path d="M250.147 500.906L235.187 504.558L244.029 517.64C257.733 512.696 250.147 500.906 250.147 500.906Z" fill="white"/>
<path d="M244.028 520.574C243.077 520.574 242.149 520.104 241.597 519.282L232.755 506.201C232.215 505.402 232.097 504.392 232.45 503.5C232.79 502.608 233.554 501.938 234.493 501.703L249.453 498.051C250.675 497.758 251.943 498.263 252.624 499.32C252.788 499.578 256.652 505.684 254.561 511.849C253.258 515.713 250.052 518.59 245.038 520.398C244.709 520.515 244.369 520.574 244.04 520.574H244.028ZM239.989 506.412L245.109 513.986C247.14 512.93 248.443 511.591 248.995 510.006C249.688 507.998 249.148 505.825 248.573 504.334L240 506.424L239.989 506.412Z" fill="#232323"/>
<path d="M283.249 526.554C288.172 526.554 292.162 522.564 292.162 517.641C292.162 512.719 288.172 508.729 283.249 508.729C278.327 508.729 274.336 512.719 274.336 517.641C274.336 522.564 278.327 526.554 283.249 526.554Z" fill="white"/>
<path d="M283.25 529.488C276.721 529.488 271.401 524.169 271.401 517.64C271.401 511.111 276.721 505.791 283.25 505.791C289.779 505.791 295.099 511.111 295.099 517.64C295.099 524.169 289.779 529.488 283.25 529.488ZM283.25 511.662C279.962 511.662 277.273 514.34 277.273 517.64C277.273 520.939 279.95 523.617 283.25 523.617C286.55 523.617 289.227 520.939 289.227 517.64C289.227 514.34 286.55 511.662 283.25 511.662Z" fill="#232323"/>
<path d="M330.761 532.179C335.683 532.179 339.674 528.189 339.674 523.266C339.674 518.344 335.683 514.354 330.761 514.354C325.839 514.354 321.848 518.344 321.848 523.266C321.848 528.189 325.839 532.179 330.761 532.179Z" fill="white"/>
<path d="M330.761 535.113C324.232 535.113 318.912 529.794 318.912 523.265C318.912 516.736 324.232 511.416 330.761 511.416C337.29 511.416 342.609 516.736 342.609 523.265C342.609 529.794 337.29 535.113 330.761 535.113ZM330.761 517.287C327.461 517.287 324.784 519.965 324.784 523.265C324.784 526.564 327.461 529.242 330.761 529.242C334.06 529.242 336.738 526.564 336.738 523.265C336.738 519.965 334.06 517.287 330.761 517.287Z" fill="#232323"/>
<path d="M503.158 494.789L527.078 496.081L507.761 511.687C498.19 505.827 503.158 494.789 503.158 494.789Z" fill="white"/>
<path d="M507.749 514.622C507.221 514.622 506.693 514.481 506.211 514.187C496.899 508.492 498.379 498.217 500.469 493.578C500.962 492.475 502.089 491.77 503.311 491.852L527.231 493.144C528.441 493.214 529.497 494.013 529.861 495.175C530.225 496.338 529.861 497.594 528.91 498.358L509.593 513.964C509.053 514.399 508.407 514.622 507.749 514.622ZM505.213 497.841C504.556 500.342 504.109 504.758 507.679 507.987L519.293 498.604L505.213 497.841Z" fill="#232323"/>
<path d="M468.857 505.99L483.817 509.642L474.975 522.724C461.271 517.78 468.857 505.99 468.857 505.99Z" fill="white"/>
<path d="M474.974 525.65C474.646 525.65 474.305 525.592 473.976 525.474C468.962 523.666 465.756 520.789 464.453 516.925C462.362 510.76 466.226 504.642 466.39 504.396C467.071 503.339 468.339 502.834 469.561 503.127L484.521 506.78C485.449 507.003 486.212 507.672 486.565 508.576C486.905 509.469 486.799 510.479 486.259 511.277L477.417 524.359C476.865 525.181 475.937 525.65 474.986 525.65H474.974ZM470.453 509.398C469.878 510.89 469.338 513.074 470.03 515.07C470.582 516.655 471.874 517.994 473.917 519.051L479.037 511.477L470.465 509.386L470.453 509.398Z" fill="#232323"/>
<path d="M431.855 529.515C436.777 529.515 440.768 525.525 440.768 520.602C440.768 515.68 436.777 511.689 431.855 511.689C426.932 511.689 422.942 515.68 422.942 520.602C422.942 525.525 426.932 529.515 431.855 529.515Z" fill="white"/>
<path d="M431.855 532.449C425.326 532.449 420.007 527.13 420.007 520.601C420.007 514.071 425.326 508.752 431.855 508.752C438.384 508.752 443.704 514.071 443.704 520.601C443.704 527.13 438.384 532.449 431.855 532.449ZM431.855 514.623C428.556 514.623 425.878 517.301 425.878 520.601C425.878 523.9 428.556 526.578 431.855 526.578C435.155 526.578 437.833 523.9 437.833 520.601C437.833 517.301 435.155 514.623 431.855 514.623Z" fill="#232323"/>
<path d="M380.327 534.011C385.25 534.011 389.24 530.021 389.24 525.098C389.24 520.176 385.25 516.186 380.327 516.186C375.405 516.186 371.415 520.176 371.415 525.098C371.415 530.021 375.405 534.011 380.327 534.011Z" fill="white"/>
<path d="M380.328 536.945C373.799 536.945 368.479 531.626 368.479 525.097C368.479 518.568 373.799 513.248 380.328 513.248C386.857 513.248 392.177 518.568 392.177 525.097C392.177 531.626 386.857 536.945 380.328 536.945ZM380.328 519.119C377.028 519.119 374.351 521.797 374.351 525.097C374.351 528.396 377.028 531.074 380.328 531.074C383.628 531.074 386.305 528.396 386.305 525.097C386.305 521.797 383.628 519.119 380.328 519.119Z" fill="#232323"/>
</svg>
