<svg width="713" height="937" viewBox="0 0 713 937" fill="none" xmlns="http://www.w3.org/2000/svg">
<path d="M550.318 367.816L478.035 700.721L461.428 785.16L449.915 784.608L423.118 783.332L494.343 359.834L537.989 366.056L550.318 367.816Z" fill="#494949"/>
<path d="M550.318 367.816L478.035 700.721L461.428 785.161L449.916 784.609L537.989 366.057L550.318 367.816Z" fill="#7C7C7C"/>
<path d="M461.428 788.932C461.37 788.932 461.301 788.932 461.243 788.932L422.946 787.104C421.864 787.058 420.864 786.54 420.185 785.701C419.507 784.861 419.219 783.768 419.403 782.71L490.629 359.213C490.962 357.188 492.848 355.82 494.884 356.096L550.859 364.078C551.894 364.227 552.826 364.802 553.424 365.665C554.022 366.527 554.24 367.597 554.01 368.62L481.738 701.491L465.142 785.896C464.797 787.667 463.233 788.944 461.439 788.944L461.428 788.932ZM427.546 779.766L458.345 781.238L474.32 699.996C474.32 699.996 474.32 699.95 474.332 699.927L545.752 370.99L497.437 364.101L427.535 779.778L427.546 779.766Z" fill="#232323"/>
<path d="M503.349 361.269L508.995 326.777L544.545 333.206L539.047 366.363L503.349 361.269Z" fill="white"/>
<path d="M539.047 370.137C538.875 370.137 538.691 370.126 538.507 370.103L502.808 365.008C501.807 364.87 500.898 364.318 500.3 363.501C499.702 362.685 499.449 361.661 499.622 360.66L505.269 326.169C505.43 325.169 505.994 324.283 506.822 323.696C507.65 323.11 508.673 322.88 509.674 323.064L545.235 329.493C547.27 329.861 548.627 331.793 548.282 333.829L542.773 366.974C542.463 368.815 540.876 370.137 539.059 370.137H539.047ZM507.696 358.073L535.931 362.098L540.22 336.255L512.1 331.172L507.696 358.073Z" fill="#232323"/>
<path d="M517.092 270.735L507.075 267.688L509.317 255.727L561.554 264.272L558.737 277.728L517.092 270.735Z" fill="#494949"/>
<path d="M558.737 281.5C558.529 281.5 558.323 281.477 558.104 281.442L516.471 274.45C516.31 274.427 516.149 274.381 516 274.335L505.982 271.287C504.142 270.724 503.015 268.872 503.372 266.986L505.614 255.036C505.993 253.024 507.914 251.678 509.927 252.012L562.153 260.545C563.165 260.706 564.073 261.281 564.66 262.132C565.246 262.984 565.453 264.03 565.246 265.042L562.428 278.51C562.06 280.281 560.496 281.511 558.737 281.511V281.5ZM517.966 267.055L555.792 273.403L557.057 267.354L512.354 260.051L511.41 265.065L517.966 267.066V267.055Z" fill="#232323"/>
<path d="M511.71 325.272L519.369 272.414L547.546 276.819L538.967 331.356L511.71 325.272Z" fill="#7C7C7C"/>
<path d="M538.967 335.129C538.691 335.129 538.415 335.095 538.15 335.037L510.904 328.953C508.984 328.528 507.707 326.687 507.995 324.732L515.643 271.886C515.792 270.885 516.321 269.988 517.138 269.39C517.943 268.792 518.966 268.539 519.967 268.7L548.156 273.093C549.145 273.243 550.031 273.795 550.629 274.6C551.215 275.405 551.468 276.417 551.307 277.406L542.716 331.943C542.555 332.978 541.969 333.887 541.106 334.473C540.474 334.899 539.737 335.129 538.978 335.129H538.967ZM515.954 322.352L535.862 326.791L543.233 279.959L522.555 276.727L515.954 322.34V322.352Z" fill="#232323"/>
<path d="M461.232 330.528L520.508 349.528L584.66 349.999L589.214 335.485L462.106 316.969L461.232 330.528Z" fill="#B2B2B2"/>
<path d="M460.76 321.292L585.476 342.327L587.535 336.151L461.911 317.635L460.76 321.292Z" fill="white"/>
<path d="M584.66 353.772H584.637L520.485 353.3C520.105 353.3 519.726 353.242 519.358 353.116L460.082 334.116C458.437 333.587 457.356 332.012 457.471 330.275L458.345 316.716C458.414 315.669 458.921 314.691 459.737 314.024C460.554 313.357 461.623 313.07 462.658 313.219L589.766 331.736C590.858 331.897 591.825 332.529 592.423 333.461C593.009 334.392 593.159 335.543 592.825 336.601L588.271 351.115C587.776 352.69 586.316 353.76 584.671 353.76L584.66 353.772ZM521.106 345.755L581.888 346.204L584.28 338.579L465.602 321.293L465.177 327.837L521.094 345.767L521.106 345.755Z" fill="#232323"/>
<path d="M514.768 313.415C513.147 313.415 511.641 312.357 511.158 310.724C510.559 308.723 511.698 306.63 513.699 306.032L533.492 300.132L516.172 288.907C514.424 287.768 513.917 285.434 515.056 283.686C516.183 281.937 518.529 281.431 520.277 282.57L544.464 298.234C545.695 299.039 546.362 300.477 546.143 301.938C545.936 303.398 544.901 304.594 543.486 305.02L515.849 313.254C515.493 313.358 515.125 313.415 514.768 313.415Z" fill="#232323"/>
<path d="M211.352 465.998C292.18 569.655 453.687 592.726 453.687 592.726L451.618 614.912C451.618 614.912 265.947 592.278 196.769 482.467L211.34 465.986L211.352 465.998Z" fill="#494949"/>
<path d="M451.629 618.694C451.479 618.694 451.33 618.694 451.169 618.671C450.697 618.614 403.705 612.737 348.891 593.438C298.08 575.554 229.903 542.133 193.583 484.49C192.686 483.076 192.836 481.235 193.951 479.982L208.523 463.501C209.271 462.661 210.352 462.19 211.467 462.224C212.583 462.259 213.641 462.788 214.331 463.674C255.504 516.474 318.437 547.722 363.981 564.628C413.527 583.03 453.826 588.93 454.217 588.987C456.206 589.275 457.621 591.069 457.437 593.07L455.379 615.255C455.287 616.268 454.781 617.211 453.987 617.843C453.308 618.384 452.48 618.683 451.618 618.683L451.629 618.694ZM201.496 482.846C236.999 537.164 302.336 569.033 351.249 586.273C396.333 602.156 436.034 608.838 448.237 610.644L449.605 595.899C438.599 594.025 403.268 587.274 361.519 571.782C316.022 554.91 253.503 523.973 211.203 471.874L201.496 482.846Z" fill="#232323"/>
<path d="M501.773 598.719C511.365 600.363 536.597 600.95 536.597 600.95L538.288 624.607C518.058 625.125 497.138 622.641 497.138 622.641L501.761 598.719H501.773Z" fill="#494949"/>
<path d="M532.538 628.448C514.343 628.448 497.483 626.47 496.701 626.378C495.654 626.251 494.723 625.699 494.102 624.86C493.481 624.009 493.25 622.951 493.446 621.916L498.081 598.005C498.472 595.993 500.404 594.659 502.428 595.004C511.629 596.591 536.459 597.177 536.701 597.177C538.645 597.223 540.243 598.741 540.381 600.685L542.072 624.342C542.141 625.366 541.796 626.39 541.106 627.149C540.416 627.908 539.438 628.356 538.403 628.391C536.448 628.437 534.492 628.46 532.549 628.46L532.538 628.448ZM501.634 619.305C508.006 619.926 521.002 620.984 534.24 620.892L533.078 604.618C526.775 604.423 513.319 603.928 504.797 602.939L501.634 619.305Z" fill="#232323"/>
<path d="M442.336 590.738C439.196 602.665 434.056 613.464 434.056 613.464L450.168 616.546L453.595 593.567L442.336 590.727V590.738Z" fill="#232323"/>
</svg>
