<svg width="713" height="937" viewBox="0 0 713 937" fill="none" xmlns="http://www.w3.org/2000/svg">
<path d="M563.034 734.377C565.519 773.205 530.56 801.297 458.612 790.261C378.013 777.898 339.932 747.855 351.76 696.329C363.599 644.804 427.231 617.526 400.688 573.692C374.156 529.87 384.256 481.043 402.706 468.312C416.774 458.614 432.537 470.174 421.311 493.885C410.699 516.304 435.659 547.205 478.711 517.508L502.512 559.223L502.646 559.457C502.646 559.457 502.557 559.479 502.412 559.512C501.631 559.713 499.335 560.382 501.966 560.828C501.999 560.839 502.033 560.839 502.077 560.85C550.67 568.453 560.715 539.469 572.331 542.233C583.958 545.009 598.038 562.478 562.677 601.752C527.327 641.025 547.672 674.023 560.525 719.952C561.908 724.879 562.744 729.706 563.034 734.377Z" fill="#E25247"/>
<path d="M560.525 719.952C561.907 724.879 562.744 729.706 563.033 734.377L561.35 738.713C561.35 738.713 548.218 705.972 539.623 672.741C531.028 639.498 541.574 621.717 548.887 608.429C556.2 595.13 573.312 578.185 577.637 565.22C581.962 552.255 576.478 551.096 571.818 548.933C567.169 546.771 563.178 553.76 553.379 561.475C543.569 569.2 526.948 575.198 500.048 566.502L501.966 560.828C501.966 560.828 502.032 560.839 502.077 560.85C550.67 568.453 560.714 539.469 572.33 542.234C583.958 545.009 598.037 562.478 562.677 601.752C527.327 641.025 547.672 674.023 560.525 719.952Z" fill="white"/>
<path d="M458.054 793.883C405.125 785.768 371.737 770.551 355.996 747.363C346.231 732.972 343.6 715.537 348.193 695.526C353.198 673.732 367.189 656.041 379.541 640.423C397.656 617.514 411.969 599.41 397.555 575.609C369.786 529.736 381.012 478.858 400.632 465.324C408.28 460.051 417.008 459.873 422.872 464.856C430.118 471.021 430.765 482.458 424.611 495.468C420.486 504.174 422.649 514.542 429.873 520.684C440.474 529.692 457.954 527.384 476.627 514.508C477.463 513.929 478.511 513.739 479.514 513.951C480.517 514.174 481.365 514.809 481.877 515.701L505.823 557.65C505.823 557.65 505.845 557.684 505.845 557.695C534.328 561.307 548.129 551.374 557.381 544.719C562.877 540.772 567.604 537.361 573.178 538.688C580.156 540.349 585.608 545.477 587.759 552.4C590.602 561.541 589.041 577.95 565.397 604.215C537.393 635.328 546.133 662.417 557.192 696.708C559.489 703.831 561.863 711.2 564.048 718.981C569.923 739.972 566.355 759.202 554.004 773.148C536.167 793.27 502.099 800.639 458.054 793.883ZM414.21 468.657C411.345 468.223 407.979 469.126 404.79 471.322C387.232 483.428 379.095 530.962 403.821 571.797C420.866 599.945 403.586 621.795 385.282 644.937C372.83 660.678 359.965 676.954 355.328 697.143C351.147 715.336 353.343 730.419 362.05 743.239C376.386 764.353 409.06 778.956 459.158 786.637C500.661 793.003 532.399 786.481 548.519 768.288C559.165 756.271 562.175 739.449 557.002 720.943C554.862 713.296 552.51 705.994 550.236 698.937C538.921 663.844 529.144 633.544 559.968 599.31C582.431 574.361 582.654 560.571 580.781 554.562C578.73 547.996 573.156 546.19 571.483 545.8C569.265 545.287 566.456 547.205 561.662 550.661C551.785 557.773 535.264 569.645 501.877 564.528C501.754 564.506 501.642 564.495 501.52 564.473C497.763 563.882 497.128 561.697 497.083 560.459C497.05 559.59 497.261 558.832 497.707 558.185L477.463 522.713C457.096 535.578 437.732 536.949 425.135 526.247C415.392 517.964 412.46 504.018 418.001 492.324C423.485 480.753 421.668 473.417 418.134 470.419C417.02 469.471 415.682 468.891 414.21 468.668V468.657Z" fill="#232323"/>
<path d="M472.011 663.59C494.053 663.59 511.921 645.722 511.921 623.681C511.921 601.639 494.053 583.771 472.011 583.771C449.97 583.771 432.102 601.639 432.102 623.681C432.102 645.722 449.97 663.59 472.011 663.59Z" fill="#232323"/>
<path d="M523.815 411.593L522.165 422.317L475.634 725.705L468.756 724.645L438 719.93L486.169 405.818L523.815 411.593Z" fill="#C1C1C1"/>
<path d="M522.165 422.318L475.634 725.705L468.756 724.646L514.93 418.148H516.146L522.165 422.318Z" fill="white"/>
<path d="M475.077 729.327L437.442 723.552C435.447 723.251 434.076 721.378 434.377 719.383L482.557 405.271C482.858 403.276 484.731 401.905 486.727 402.205L524.362 407.98C526.357 408.281 527.728 410.154 527.427 412.149L479.247 726.261C478.946 728.256 477.073 729.628 475.077 729.327ZM442.158 716.874L472.569 721.534L519.635 414.646L489.224 409.987L442.158 716.874Z" fill="#232323"/>
<path d="M499.321 679.702L430.805 669.193L427.919 688.014L496.434 698.523L499.321 679.702Z" fill="#878787"/>
<path d="M495.879 702.137L427.365 691.625C425.369 691.324 423.998 689.451 424.299 687.456L427.186 668.638C427.487 666.643 429.36 665.272 431.356 665.573L499.87 676.085C501.865 676.386 503.237 678.259 502.936 680.254L500.049 699.072C499.748 701.067 497.875 702.438 495.879 702.137ZM432.08 684.948L493.371 694.345L495.143 682.751L433.853 673.354L432.08 684.948Z" fill="#232323"/>
<path d="M548.887 324.428L541.05 328.775L550.47 374.136C552.309 383.043 548.396 392.151 540.671 396.933L535.888 399.898C534.116 400.991 532.968 402.852 532.767 404.926L531.931 413.554C531.652 416.464 528.988 418.537 526.101 418.091L523.682 417.724L481.119 411.202C480.885 411.158 480.662 411.046 480.495 410.879C473.561 403.845 471.644 393.276 475.657 384.258L509.468 308.364C512.478 301.597 518.219 296.424 525.253 294.139L527.494 293.403L533.77 291.363C540.348 289.223 547.515 292.088 550.804 298.163L554.55 305.086C558.284 311.998 555.754 320.615 548.887 324.428Z" fill="#E0CE48"/>
<path d="M548.887 324.428L541.05 328.775L550.47 374.136C552.309 383.043 548.396 392.151 540.671 396.933L535.888 399.898C534.116 400.991 532.968 402.852 532.767 404.926L531.931 413.554C531.652 416.464 528.988 418.537 526.101 418.091L523.682 417.724C522.734 412.495 522.043 403.176 527.472 397.881C535.298 390.233 542.9 378.104 542.243 373.779C541.574 369.465 534.93 337.225 532.767 329.544C530.604 321.864 548.72 316.457 547.728 312.856C546.747 309.334 547.527 293.794 527.472 294.273C527.082 294.273 526.691 294.295 526.29 294.317L527.494 293.403L533.77 291.363C540.348 289.223 547.515 292.088 550.804 298.163L554.55 305.086C558.284 311.998 555.754 320.615 548.887 324.428Z" fill="white"/>
<path d="M525.543 421.715L480.562 414.815C479.548 414.659 478.6 414.168 477.886 413.443C469.838 405.283 467.653 393.244 472.324 382.765L506.124 306.87C509.546 299.178 516.112 293.27 524.116 290.662L532.633 287.886C540.894 285.199 549.89 288.789 554.015 296.425L557.761 303.348C562.432 311.976 559.243 322.868 550.659 327.628L545.175 330.671L554.048 373.401C556.2 383.768 551.596 394.481 542.588 400.055L537.806 403.009C537.014 403.5 536.49 404.347 536.401 405.272L535.576 413.9C535.342 416.286 534.127 418.493 532.243 419.965C530.348 421.436 527.918 422.072 525.543 421.704V421.715ZM482.535 407.713L526.658 414.48C527.182 414.558 527.572 414.335 527.751 414.19C527.929 414.045 528.241 413.733 528.297 413.198L529.122 404.57C529.434 401.381 531.24 398.472 533.96 396.789L538.742 393.834C545.141 389.877 548.419 382.263 546.88 374.894L537.46 329.523C537.137 327.951 537.862 326.357 539.266 325.576L547.114 321.229C552.209 318.408 554.093 311.954 551.328 306.837L547.583 299.914C545.13 295.388 539.801 293.248 534.896 294.842L526.379 297.618C520.337 299.58 515.388 304.039 512.801 309.847L479.001 385.741C475.679 393.188 477.084 401.727 482.535 407.713Z" fill="#232323"/>
<path d="M469.247 374.037C472.904 374.037 475.869 371.072 475.869 367.415C475.869 363.758 472.904 360.793 469.247 360.793C465.59 360.793 462.625 363.758 462.625 367.415C462.625 371.072 465.59 374.037 469.247 374.037Z" fill="#232323"/>
<path d="M489.413 383.456C492.147 383.456 494.363 381.24 494.363 378.506C494.363 375.773 492.147 373.557 489.413 373.557C486.68 373.557 484.464 375.773 484.464 378.506C484.464 381.24 486.68 383.456 489.413 383.456Z" fill="#232323"/>
<path d="M486.292 381.251C485.902 381.195 485.5 381.061 485.132 380.86L469.548 372.589C467.764 371.641 467.084 369.423 468.032 367.639C468.979 365.855 471.198 365.175 472.981 366.123L488.566 374.395C490.35 375.342 491.03 377.561 490.082 379.344C489.335 380.76 487.797 381.474 486.292 381.251Z" fill="#232323"/>
<path d="M477.942 355.675C481.599 355.675 484.564 352.711 484.564 349.053C484.564 345.396 481.599 342.432 477.942 342.432C474.285 342.432 471.321 345.396 471.321 349.053C471.321 352.711 474.285 355.675 477.942 355.675Z" fill="#232323"/>
<path d="M498.109 365.085C500.842 365.085 503.058 362.869 503.058 360.135C503.058 357.402 500.842 355.186 498.109 355.186C495.375 355.186 493.159 357.402 493.159 360.135C493.159 362.869 495.375 365.085 498.109 365.085Z" fill="#232323"/>
<path d="M494.987 362.878C494.597 362.822 494.196 362.688 493.828 362.487L478.243 354.216C476.46 353.268 475.779 351.05 476.727 349.266C477.675 347.482 479.893 346.802 481.677 347.75L497.261 356.022C499.045 356.969 499.725 359.188 498.777 360.971C498.03 362.387 496.492 363.1 494.987 362.878Z" fill="#232323"/>
<path d="M485.69 337.882C489.347 337.882 492.312 334.918 492.312 331.26C492.312 327.603 489.347 324.639 485.69 324.639C482.033 324.639 479.068 327.603 479.068 331.26C479.068 334.918 482.033 337.882 485.69 337.882Z" fill="#232323"/>
<path d="M505.856 347.302C508.59 347.302 510.806 345.086 510.806 342.352C510.806 339.618 508.59 337.402 505.856 337.402C503.123 337.402 500.907 339.618 500.907 342.352C500.907 345.086 503.123 347.302 505.856 347.302Z" fill="#232323"/>
<path d="M502.735 345.096C502.345 345.041 501.943 344.907 501.576 344.706L485.991 336.434C484.207 335.487 483.527 333.268 484.475 331.485C485.422 329.701 487.641 329.021 489.425 329.969L505.009 338.24C506.793 339.188 507.473 341.406 506.525 343.19C505.778 344.606 504.24 345.319 502.735 345.096Z" fill="#232323"/>
<path d="M493.739 321.196C497.396 321.196 500.36 318.231 500.36 314.574C500.36 310.917 497.396 307.952 493.739 307.952C490.082 307.952 487.117 310.917 487.117 314.574C487.117 318.231 490.082 321.196 493.739 321.196Z" fill="#232323"/>
<path d="M513.905 330.614C516.639 330.614 518.855 328.398 518.855 325.664C518.855 322.931 516.639 320.715 513.905 320.715C511.172 320.715 508.956 322.931 508.956 325.664C508.956 328.398 511.172 330.614 513.905 330.614Z" fill="#232323"/>
<path d="M510.783 328.409C510.393 328.353 509.992 328.219 509.624 328.019L494.039 319.747C492.256 318.799 491.576 316.581 492.523 314.797C493.471 313.014 495.689 312.334 497.473 313.281L513.058 321.553C514.841 322.5 515.521 324.719 514.574 326.502C513.827 327.918 512.288 328.632 510.783 328.409Z" fill="#232323"/>
<path d="M508.097 437.333L491.665 434.813C491.052 434.724 490.64 434.155 490.729 433.542C490.818 432.929 491.387 432.517 492 432.606L508.432 435.125C509.045 435.214 509.457 435.783 509.368 436.396C509.279 437.009 508.71 437.422 508.097 437.333Z" fill="#232323"/>
<path d="M505.009 457.42L488.577 454.901C487.964 454.812 487.552 454.243 487.641 453.63C487.73 453.017 488.299 452.605 488.912 452.694L505.344 455.213C505.957 455.302 506.369 455.871 506.28 456.484C506.191 457.097 505.622 457.51 505.009 457.42Z" fill="#232323"/>
<path d="M501.631 479.483L485.2 476.964C484.586 476.874 484.174 476.306 484.263 475.693C484.352 475.08 484.921 474.667 485.534 474.756L501.966 477.276C502.579 477.365 502.991 477.933 502.902 478.547C502.813 479.16 502.245 479.572 501.631 479.483Z" fill="#232323"/>
<path d="M498.544 499.571L482.112 497.051C481.499 496.962 481.086 496.394 481.175 495.781C481.264 495.167 481.833 494.755 482.446 494.844L498.878 497.364C499.491 497.453 499.903 498.021 499.814 498.634C499.725 499.248 499.157 499.66 498.544 499.571Z" fill="#232323"/>
<path d="M495.523 519.315L479.091 516.796C478.478 516.706 478.065 516.138 478.154 515.525C478.243 514.912 478.812 514.499 479.425 514.588L495.857 517.108C496.47 517.197 496.882 517.765 496.793 518.379C496.704 518.992 496.136 519.404 495.523 519.315Z" fill="#232323"/>
<path d="M492.434 539.403L476.003 536.883C475.389 536.794 474.977 536.226 475.066 535.613C475.155 534.999 475.724 534.587 476.337 534.676L492.769 537.196C493.382 537.285 493.794 537.853 493.705 538.466C493.616 539.08 493.048 539.492 492.434 539.403Z" fill="#232323"/>
<path d="M489.057 561.463L472.625 558.944C472.012 558.855 471.599 558.286 471.688 557.673C471.778 557.06 472.346 556.648 472.959 556.737L489.391 559.256C490.004 559.345 490.417 559.914 490.327 560.527C490.238 561.14 489.67 561.553 489.057 561.463Z" fill="#232323"/>
<path d="M485.969 581.553L469.537 579.034C468.924 578.945 468.511 578.376 468.6 577.763C468.689 577.15 469.258 576.737 469.871 576.827L486.303 579.346C486.916 579.435 487.329 580.004 487.24 580.617C487.15 581.23 486.582 581.642 485.969 581.553Z" fill="#232323"/>
<path d="M482.613 603.436L466.181 600.917C465.568 600.827 465.156 600.259 465.245 599.646C465.334 599.033 465.903 598.62 466.516 598.709L482.948 601.229C483.561 601.318 483.973 601.886 483.884 602.5C483.795 603.113 483.226 603.525 482.613 603.436Z" fill="#232323"/>
<path d="M479.536 623.524L463.104 621.005C462.491 620.915 462.079 620.347 462.168 619.734C462.257 619.121 462.826 618.708 463.439 618.797L479.871 621.317C480.484 621.406 480.896 621.974 480.807 622.588C480.718 623.201 480.149 623.613 479.536 623.524Z" fill="#232323"/>
<path d="M476.147 645.596L459.715 643.077C459.102 642.988 458.69 642.419 458.779 641.806C458.868 641.193 459.437 640.78 460.05 640.87L476.482 643.389C477.095 643.478 477.507 644.047 477.418 644.66C477.329 645.273 476.76 645.685 476.147 645.596Z" fill="#232323"/>
<path d="M473.07 665.684L456.639 663.165C456.025 663.076 455.613 662.507 455.702 661.894C455.791 661.281 456.36 660.868 456.973 660.957L473.405 663.477C474.018 663.566 474.431 664.135 474.341 664.748C474.252 665.361 473.684 665.773 473.07 665.684Z" fill="#232323"/>
<path d="M466.962 705.504L450.53 702.985C449.917 702.896 449.504 702.327 449.593 701.714C449.683 701.101 450.251 700.689 450.864 700.778L467.296 703.297C467.909 703.386 468.322 703.955 468.233 704.568C468.143 705.181 467.575 705.594 466.962 705.504Z" fill="#232323"/>
<path d="M496.748 414.725C496.67 414.714 496.581 414.691 496.503 414.658C495.935 414.424 495.656 413.777 495.879 413.209L516.926 360.691C520.259 352.364 528.787 347.503 537.65 348.863L545.877 350.123C546.49 350.212 546.903 350.781 546.813 351.394C546.724 352.007 546.155 352.42 545.542 352.33L537.315 351.071C529.478 349.867 521.943 354.17 519 361.527L497.952 414.045C497.752 414.535 497.25 414.814 496.748 414.736V414.725Z" fill="#232323"/>
<path d="M514.306 754.466C520.574 754.466 525.655 749.386 525.655 743.118C525.655 736.85 520.574 731.77 514.306 731.77C508.039 731.77 502.958 736.85 502.958 743.118C502.958 749.386 508.039 754.466 514.306 754.466Z" fill="#6B6B6B"/>
<path d="M512.032 757.956C503.85 756.697 498.22 749.027 499.469 740.844C500.717 732.662 508.398 727.032 516.58 728.281C524.763 729.529 530.393 737.21 529.144 745.393C527.896 753.575 520.215 759.205 512.032 757.956ZM515.477 735.516C511.285 734.869 507.35 737.756 506.704 741.948C506.057 746.14 508.944 750.075 513.136 750.721C517.328 751.368 521.263 748.481 521.909 744.289C522.556 740.097 519.668 736.162 515.477 735.516Z" fill="#232323"/>
</svg>
