<svg width="713" height="937" viewBox="0 0 713 937" fill="none" xmlns="http://www.w3.org/2000/svg">
<path d="M223.219 759.096C210.772 768.778 207.441 778.24 252.263 777.86C297.086 777.48 338.266 774.69 348.477 759.096C358.689 743.503 334.474 757.679 297.616 761.54C260.758 765.401 223.208 759.096 223.208 759.096H223.219Z" fill="#D3D3D3"/>
<path d="M249.762 781.652C219.312 781.652 213.434 776.776 211.763 771.97C209.619 765.793 215.947 759.961 220.891 756.111C221.721 755.466 222.793 755.189 223.842 755.362C224.21 755.42 261.334 761.54 297.224 757.771C311.193 756.307 323.502 753.287 332.492 751.075C345.043 747.997 350.771 746.591 353.629 750.614C356.176 754.221 353.111 758.9 351.635 761.148C340.905 777.537 304.151 781.179 252.286 781.617C251.422 781.617 250.58 781.617 249.751 781.617L249.762 781.652ZM224.28 763.096C218.747 767.66 218.909 769.469 218.909 769.492C218.92 769.538 220.96 774.333 252.24 774.079C276.893 773.872 334.612 773.388 345.331 757.022C345.619 756.584 345.861 756.192 346.069 755.846C343.21 756.25 338.566 757.391 334.324 758.428C325.127 760.687 312.518 763.776 298.042 765.297C265.068 768.755 232.117 764.283 224.303 763.084L224.28 763.096Z" fill="#232323"/>
<path d="M267.465 768.283C265.506 768.283 263.846 766.773 263.696 764.779C263.604 763.673 261.115 737.383 231.321 736.657C229.235 736.611 227.587 734.871 227.633 732.785C227.679 730.699 229.454 729.016 231.506 729.097C268.237 729.984 271.222 763.869 271.245 764.214C271.407 766.301 269.839 768.11 267.753 768.271C267.661 768.271 267.557 768.271 267.465 768.271V768.283Z" fill="#232323"/>
<path d="M489.111 759.098C501.558 768.78 504.889 778.242 460.067 777.862C415.245 777.481 374.064 774.692 363.853 759.098C353.641 743.505 377.856 757.681 414.714 761.542C451.573 765.403 489.123 759.098 489.123 759.098H489.111Z" fill="#D3D3D3"/>
<path d="M462.568 781.653C461.738 781.653 460.897 781.653 460.032 781.653C408.168 781.215 371.413 777.573 360.683 761.184C359.208 758.936 356.142 754.257 358.689 750.649C361.536 746.616 367.264 748.022 379.827 751.11C388.817 753.312 401.126 756.331 415.106 757.807C450.985 761.576 488.12 755.456 488.488 755.398C489.537 755.225 490.598 755.49 491.439 756.147C496.383 759.997 502.722 765.84 500.567 772.006C498.896 776.812 493.018 781.687 462.568 781.687V781.653ZM366.285 755.847C366.48 756.193 366.722 756.585 367.022 757.023C377.741 773.389 435.46 773.873 460.113 774.081C491.393 774.346 493.421 769.54 493.444 769.494C493.444 769.482 493.606 767.661 488.074 763.097C480.259 764.284 447.297 768.767 414.334 765.31C399.846 763.788 387.249 760.7 378.052 758.441C373.811 757.403 369.166 756.262 366.307 755.859L366.285 755.847Z" fill="#232323"/>
<path d="M444.865 768.283C444.761 768.283 444.669 768.283 444.565 768.283C442.49 768.122 440.934 766.313 441.084 764.238C441.107 763.892 444.081 730.019 480.824 729.12C482.899 729.074 484.65 730.722 484.696 732.808C484.743 734.894 483.094 736.635 481.008 736.681C451.204 737.407 448.726 763.696 448.633 764.814C448.472 766.785 446.812 768.295 444.865 768.295V768.283Z" fill="#232323"/>
</svg>
