<svg width="713" height="937" viewBox="0 0 713 937" fill="none" xmlns="http://www.w3.org/2000/svg">
<path d="M347.372 756.435L346.322 783.067L222.823 779.754L219.028 779.647C209.443 766.224 208.564 730.854 239.645 729.546C248.351 729.182 261.752 731.444 274.757 734.703C287.194 737.823 299.266 741.854 306.524 745.371C321.395 752.565 347.372 756.435 347.372 756.435Z" fill="#12C51B"/>
<path d="M281.973 740.278C224.86 725.547 220.229 743.452 224.217 768.861C225.032 774.061 224.378 777.535 222.823 779.754L219.028 779.647C209.443 766.224 208.564 730.854 239.645 729.546C248.351 729.182 261.752 731.444 274.757 734.703L281.973 740.278Z" fill="#B7B7B7"/>
<path d="M213.142 768.713L347.619 773.72L346.011 779.659L218.31 777.376L213.142 768.713Z" fill="#B7B7B7"/>
<path d="M346.332 786.585C346.332 786.585 346.268 786.585 346.236 786.585L218.942 783.175C217.838 783.143 216.82 782.597 216.176 781.707C209.797 772.776 206.849 755.054 213.217 742.017C216.594 735.091 223.896 726.707 239.516 726.053C256.638 725.324 292.104 734.49 308.079 742.22C322.285 749.093 347.651 752.942 347.908 752.984C349.688 753.252 350.975 754.807 350.9 756.597L349.86 783.218C349.785 785.105 348.23 786.596 346.343 786.596L346.332 786.585ZM220.969 776.185L342.944 779.455L343.727 759.417C336.265 758.131 317.235 754.464 304.991 748.546C289.863 741.223 255.513 732.41 239.784 733.075C230.028 733.482 223.209 737.535 219.521 745.104C214.761 754.85 216.412 768.509 220.969 776.196V776.185Z" fill="#232323"/>
<path d="M258.107 745.693C268.11 750.475 281.876 758.301 293.048 756.447C294.012 756.061 294.28 756.286 295.127 755.503C295.621 755.053 296.21 753.938 296.671 752.919C297.197 751.74 298.816 751.408 299.759 752.287C302.214 754.474 302.493 758.548 300.499 761.378C298.547 764.252 295.181 765.506 292.072 765.828C286.883 766.214 282.476 764.445 278.048 762.483C273.974 760.574 270.211 758.344 266.695 755.836C263.189 753.337 259.833 750.668 256.67 747.762C255.598 746.787 256.82 745.007 258.118 745.682L258.107 745.693Z" fill="#232323"/>
<path d="M346.011 775.274C346.011 775.274 345.968 775.274 345.946 775.274L216.176 770.321C215.286 770.289 214.6 769.538 214.632 768.648C214.665 767.758 215.394 767.051 216.305 767.104L346.075 772.058C346.965 772.09 347.651 772.84 347.619 773.73C347.587 774.599 346.868 775.274 346.011 775.274Z" fill="#232323"/>
<path d="M490.619 779.647L487.638 779.722L363.325 783.067L362.274 756.435C362.274 756.435 388.252 752.565 403.122 745.371C415.044 739.592 439.928 732.43 458.101 730.2C462.572 729.653 466.635 729.407 470.002 729.546C501.083 730.854 500.214 766.224 490.619 779.647Z" fill="#12C51B"/>
<path d="M490.618 779.647L487.638 779.722C493.213 747.901 486.694 733.406 450.306 734.971C450.306 734.971 453.769 732.602 458.101 730.2C462.571 729.653 466.635 729.407 470.001 729.546C501.082 730.854 500.214 766.224 490.618 779.647Z" fill="#B7B7B7"/>
<path d="M364.182 773.535C365.383 773.535 496.504 768.699 496.504 768.699L492.988 776.89L364.182 781.211V773.535Z" fill="#B7B7B7"/>
<path d="M363.325 786.583C361.438 786.583 359.883 785.092 359.808 783.206L358.768 756.585C358.693 754.794 359.991 753.229 361.76 752.972C362.017 752.929 387.383 749.08 401.589 742.207C417.564 734.477 453.051 725.321 470.152 726.04C485.762 726.704 493.063 735.088 496.451 742.004C502.819 755.051 499.871 772.763 493.492 781.694C492.848 782.594 491.83 783.141 490.726 783.163L363.432 786.572C363.432 786.572 363.368 786.572 363.336 786.572L363.325 786.583ZM365.919 759.415L366.702 779.453L488.678 776.183C493.224 768.485 494.875 754.826 490.125 745.091C486.426 737.522 479.608 733.48 469.851 733.062C454.091 732.397 419.772 741.221 404.645 748.533C392.401 754.451 373.371 758.128 365.909 759.404L365.919 759.415Z" fill="#232323"/>
<path d="M452.987 747.773C444.282 755.546 429.84 766.439 417.575 765.838C414.466 765.517 411.099 764.262 409.148 761.389C407.165 758.559 407.433 754.485 409.888 752.297C410.692 751.568 411.935 751.643 412.664 752.448C413.308 753.391 413.897 755.01 414.53 755.503C414.97 755.964 415.345 756.071 415.624 756.136C418.025 756.983 420.512 756.833 423.343 756.543C431.191 755.46 438.706 751.922 445.911 748.481C447.562 747.687 449.932 746.487 451.561 745.682C452.848 745.039 454.059 746.808 452.987 747.773Z" fill="#232323"/>
<path d="M363.647 775.273C362.789 775.273 362.071 774.598 362.039 773.729C362.006 772.839 362.693 772.089 363.582 772.057L493.353 767.103C494.242 767.061 494.982 767.757 495.025 768.647C495.057 769.537 494.371 770.288 493.481 770.32L363.711 775.273C363.711 775.273 363.668 775.273 363.647 775.273Z" fill="#232323"/>
</svg>
