<svg width="713" height="937" viewBox="0 0 713 937" fill="none" xmlns="http://www.w3.org/2000/svg">
<path d="M228.53 730.955C186.518 750.329 165.48 742.438 168.102 725.145C168.102 725.145 140.296 764.598 177.493 774.555C214.69 784.513 260.924 785.61 302.633 785.61C344.343 785.61 345.389 763.577 345.389 754.312C345.389 745.048 228.517 730.943 228.517 730.943L228.53 730.955Z" fill="#91372D"/>
<path d="M160.59 738.67C175.06 768.354 238.752 735.103 238.752 735.103C238.752 735.103 218.837 732.09 218.269 732.468C217.702 732.847 185.989 741.72 185.989 741.72L167.724 732.443L160.59 738.683V738.67Z" fill="#B74239"/>
<path d="M302.646 789.757C258.819 789.757 213.202 788.396 176.434 778.564C165.493 775.64 158.447 770.018 155.497 761.863C149.346 744.897 164.094 723.67 164.724 722.775C165.833 721.212 167.875 720.607 169.653 721.326C171.43 722.044 172.489 723.884 172.199 725.788C171.569 729.897 172.652 733.023 175.388 735.09C181.703 739.842 198.518 740.258 226.803 727.225C227.496 726.91 228.278 726.784 229.034 726.872C229.324 726.91 258.668 730.464 287.621 735.103C304.688 737.838 318.314 740.422 328.108 742.766C344.129 746.598 349.536 749.523 349.536 754.35C349.536 758.422 349.536 767.964 342.868 776.094C335.406 785.182 321.881 789.782 302.646 789.782V789.757ZM166.211 737.082C163.3 743.523 160.754 752.094 163.287 759.052C165.266 764.51 170.421 768.379 178.577 770.573C214.425 780.165 259.386 781.488 302.646 781.488C339.402 781.488 341.179 764.245 341.255 755.573C333.276 750.355 279.1 741.266 229.185 735.204C202.463 747.329 181.072 749.699 170.409 741.682C168.669 740.372 167.258 738.834 166.199 737.082H166.211Z" fill="#232323"/>
<path d="M483.79 730.957C525.802 750.331 546.84 742.44 544.218 725.146C544.218 725.146 572.024 764.6 534.827 774.557C497.618 784.515 451.396 785.612 409.687 785.612C367.977 785.612 366.931 763.579 366.931 754.314C366.931 745.05 483.803 730.945 483.803 730.945L483.79 730.957Z" fill="#91372D"/>
<path d="M475.509 733.036C527.743 767.422 550.129 741.683 550.129 741.683L547.281 730.969L525.689 743.183L494.857 736.792L475.509 733.036Z" fill="#B74239"/>
<path d="M409.686 789.757C390.464 789.757 376.926 785.156 369.464 776.068C362.796 767.938 362.796 758.396 362.796 754.325C362.796 749.51 368.204 746.586 384.225 742.741C394.019 740.397 407.644 737.813 424.711 735.077C453.677 730.439 483.009 726.884 483.298 726.846C484.055 726.758 484.824 726.872 485.53 727.199C513.815 740.233 530.63 739.817 536.945 735.065C539.693 732.998 540.764 729.872 540.134 725.762C539.844 723.872 540.903 722.019 542.68 721.3C544.457 720.582 546.499 721.187 547.608 722.75C548.239 723.645 562.986 744.871 556.835 761.837C553.886 769.993 546.84 775.614 535.899 778.539C499.13 788.383 453.513 789.732 409.686 789.732V789.757ZM371.065 755.573C371.153 764.245 372.931 781.488 409.674 781.488C452.934 781.488 497.908 780.165 533.743 770.573C541.911 768.392 547.054 764.51 549.033 759.052C551.566 752.094 549.02 743.523 546.108 737.082C545.037 738.821 543.638 740.371 541.898 741.682C531.235 749.699 509.844 747.329 483.122 735.203C433.207 741.266 379.031 750.354 371.053 755.573H371.065Z" fill="#232323"/>
</svg>
