<svg width="713" height="937" viewBox="0 0 713 937" fill="none" xmlns="http://www.w3.org/2000/svg">
<path d="M250.586 725.702C251.867 705.846 276.003 707.115 289.073 710.246C312.903 715.96 303.862 743.654 303.862 743.654" fill="#6B6B6B"/>
<path d="M249.098 725.67C249.59 715.555 252.929 709.546 265.736 708.385C278.543 707.225 294.207 711.549 294.207 711.549L302.527 718.73L305.712 726.48L305.471 736.025L302.702 742.833L292.5 739.046L260.438 724.936L249.098 725.67Z" fill="#FF402C"/>
<path d="M303.851 747.244C303.479 747.244 303.106 747.189 302.734 747.069C300.851 746.456 299.823 744.42 300.435 742.537C300.468 742.417 304.343 730.124 299.527 721.542C297.305 717.58 293.605 715.029 288.23 713.738C278.685 711.45 266.053 710.804 259.212 715.85C256.114 718.138 254.461 721.433 254.176 725.943C254.045 727.924 252.348 729.424 250.356 729.292C248.375 729.161 246.875 727.453 247.007 725.472C247.433 718.817 250.104 713.628 254.954 710.06C266.064 701.872 284.52 705.451 289.916 706.743C297.261 708.505 302.614 712.304 305.821 718.05C312.17 729.413 307.485 744.135 307.277 744.759C306.784 746.27 305.372 747.233 303.862 747.233L303.851 747.244Z" fill="#232323"/>
<path d="M241.621 725.592C192.986 727.299 214.66 778.101 214.66 778.101C214.66 778.101 271.121 782.37 308.328 782.37C345.534 782.37 353.032 777.017 353.032 777.017L351.248 752.52L297.885 744.54C297.885 744.54 277.393 724.333 241.621 725.592Z" fill="#FF402C"/>
<path d="M278.051 760.227V765.044L219.203 762.614L211.639 762.296L211.234 742.834L218.984 733.661L232.043 727.947L239.947 725.67C251.276 726.436 258.774 728.79 263.755 731.471C269.502 734.569 271.899 738.094 272.993 740.108C275.029 743.863 276.912 750.715 276.912 750.715L278.051 760.227Z" fill="#D3D3D3"/>
<path d="M263.755 731.471C236.608 727.509 214.682 732.621 219.203 762.603C219.783 766.456 220.801 770.703 222.29 775.399C222.487 776.034 222.684 776.647 222.87 777.26C219.608 776.942 214.661 776.494 214.661 776.494L211.639 762.296L211.234 742.834L218.984 733.661L232.043 727.947L239.947 725.67C251.276 726.436 258.774 728.79 263.755 731.471Z" fill="white"/>
<path d="M353.032 775.398L344.549 779.108L253.902 779.842C253.902 779.842 227.39 777.718 225.026 777.477C224.512 777.423 223.756 777.346 222.87 777.259C219.608 776.941 214.66 776.492 214.66 776.492L211.639 762.295L219.203 762.601L278.05 764.966L350.099 767.867L353.032 775.398Z" fill="#D3D3D3"/>
<path d="M308.328 785.96C271.417 785.96 214.956 781.724 214.397 781.68C213.062 781.581 211.891 780.738 211.365 779.512C210.905 778.44 200.298 753.099 211.07 736.154C216.707 727.277 226.953 722.515 241.5 722.001C274.635 720.796 295.061 737.183 299.516 741.157L351.784 748.972C353.448 749.224 354.718 750.592 354.838 752.267L356.623 776.765C356.71 778.013 356.141 779.228 355.123 779.95C353.711 780.957 344.834 785.96 308.328 785.96ZM217.21 774.685C228.124 775.473 275.894 778.779 308.328 778.779C334.325 778.779 345.381 776.097 349.267 774.762L347.877 755.65L297.348 748.086C296.593 747.976 295.904 747.626 295.356 747.09C295.17 746.903 275.401 727.966 241.741 729.17C229.711 729.597 221.436 733.231 217.134 739.974C209.909 751.315 215.109 768.796 217.2 774.674L217.21 774.685Z" fill="#232323"/>
<path d="M348.468 769.443C348.468 769.443 348.424 769.443 348.402 769.443L213.784 763.937C212.876 763.904 212.175 763.138 212.208 762.229C212.241 761.321 213.018 760.631 213.916 760.653L348.534 766.159C349.442 766.192 350.143 766.958 350.11 767.866C350.077 768.753 349.344 769.443 348.468 769.443Z" fill="#232323"/>
<path d="M278.062 766.695C278.007 766.695 277.941 766.695 277.886 766.695C276.989 766.597 276.332 765.787 276.431 764.889C276.573 763.51 279.66 731.175 247.937 727.694C247.04 727.595 246.383 726.785 246.481 725.888C246.58 724.99 247.39 724.344 248.288 724.432C283.294 728.274 279.725 764.878 279.682 765.251C279.594 766.093 278.883 766.717 278.051 766.717L278.062 766.695Z" fill="#232323"/>
<path d="M462.671 725.703C461.39 705.835 437.242 707.105 424.183 710.236C400.353 715.95 409.395 743.644 409.395 743.644" fill="#6B6B6B"/>
<path d="M464.16 725.67C463.667 715.555 460.329 709.546 447.521 708.385C434.714 707.225 419.05 711.549 419.05 711.549L410.731 718.73L407.545 726.48L407.786 736.025L410.556 742.833L420.758 739.046L452.819 724.936L464.16 725.67Z" fill="#FF402C"/>
<path d="M409.406 747.244C409.778 747.244 410.15 747.189 410.523 747.069C412.405 746.456 413.434 744.42 412.821 742.537C412.788 742.417 408.913 730.124 413.73 721.542C415.952 717.58 419.652 715.029 425.026 713.738C434.572 711.45 447.204 710.804 454.045 715.85C457.143 718.138 458.796 721.433 459.08 725.943C459.212 727.924 460.908 729.424 462.901 729.292C464.882 729.161 466.382 727.453 466.25 725.472C465.823 718.817 463.152 713.628 458.303 710.06C447.193 701.872 428.737 705.451 423.341 706.743C415.996 708.505 410.643 712.304 407.436 718.05C401.087 729.413 405.772 744.135 405.98 744.759C406.472 746.27 407.884 747.233 409.395 747.233L409.406 747.244Z" fill="#232323"/>
<path d="M471.636 725.592C520.271 727.299 498.597 778.101 498.597 778.101C498.597 778.101 442.136 782.37 404.929 782.37C367.723 782.37 360.225 777.017 360.225 777.017L362.009 752.52L415.372 744.54C415.372 744.54 435.864 724.333 471.636 725.592Z" fill="#FF402C"/>
<path d="M435.195 760.227V765.044L494.043 762.614L501.607 762.296L502.012 742.834L494.262 733.661L481.203 727.947L473.299 725.67C461.97 726.436 454.472 728.79 449.491 731.471C443.744 734.569 441.347 738.094 440.253 740.108C438.217 743.863 436.334 750.715 436.334 750.715L435.195 760.227Z" fill="#D3D3D3"/>
<path d="M449.491 731.471C476.638 727.509 498.564 732.621 494.043 762.603C493.463 766.456 492.445 770.703 490.956 775.399C490.759 776.034 490.562 776.647 490.376 777.26C493.638 776.942 498.585 776.494 498.585 776.494L501.607 762.296L502.012 742.834L494.262 733.661L481.203 727.947L473.299 725.67C461.97 726.436 454.472 728.79 449.491 731.471Z" fill="white"/>
<path d="M360.213 775.4L368.697 779.11L459.343 779.844C459.343 779.844 485.855 777.72 488.22 777.479C488.734 777.425 489.489 777.348 490.376 777.26C493.638 776.943 498.586 776.494 498.586 776.494L501.607 762.297L494.043 762.603L435.196 764.968L363.147 767.869L360.213 775.4Z" fill="#D3D3D3"/>
<path d="M358.134 779.951C357.116 779.218 356.547 778.014 356.634 776.766L358.419 752.268C358.539 750.593 359.809 749.225 361.473 748.973L413.741 741.157C418.196 737.184 438.622 720.808 471.757 722.001C486.304 722.516 496.539 727.278 502.187 736.155C512.959 753.1 502.352 778.441 501.892 779.513C501.366 780.75 500.195 781.582 498.86 781.681C498.291 781.725 441.84 785.961 404.929 785.961C368.423 785.961 359.546 780.947 358.134 779.951ZM496.112 739.986C491.81 733.232 483.535 729.598 471.505 729.182C437.845 727.978 418.087 746.915 417.89 747.101C417.353 747.638 416.653 747.988 415.898 748.097L365.369 755.661L363.979 774.774C367.876 776.109 378.921 778.791 404.918 778.791C437.352 778.791 485.122 775.485 496.036 774.697C498.126 768.819 503.326 751.338 496.101 739.997L496.112 739.986Z" fill="#232323"/>
<path d="M364.789 769.443C364.789 769.443 364.833 769.443 364.855 769.443L499.472 763.937C500.381 763.904 501.082 763.138 501.049 762.229C501.016 761.321 500.239 760.631 499.341 760.653L364.723 766.159C363.815 766.192 363.114 766.958 363.147 767.866C363.18 768.753 363.913 769.443 364.789 769.443Z" fill="#232323"/>
<path d="M435.196 766.695C435.251 766.695 435.316 766.695 435.371 766.695C436.269 766.597 436.925 765.787 436.827 764.889C436.685 763.51 433.598 731.175 465.32 727.694C466.218 727.595 466.874 726.785 466.776 725.888C466.677 724.99 465.867 724.344 464.97 724.432C429.964 728.274 433.532 764.878 433.576 765.251C433.663 766.093 434.375 766.717 435.207 766.717L435.196 766.695Z" fill="#232323"/>
</svg>
