<svg width="512" height="512" viewBox="75 240 580 560" fill="none" xmlns="http://www.w3.org/2000/svg">
<g clip-path="url(#clip0)">
<path d="M360.812 792.459C456.253 792.459 533.624 785.193 533.624 776.23C533.624 767.266 456.253 760 360.812 760C265.37 760 188 767.266 188 776.23C188 785.193 265.37 792.459 360.812 792.459Z" fill="#232323"/>
<path d="M251.934 704.073C209.369 742.434 211.735 772.001 264.944 776.72C318.153 781.451 356.338 770.573 344.043 737.294C331.748 704.015 251.946 704.073 251.946 704.073H251.934Z" fill="#FF814A"/>
<path d="M287.17 781.614C280.144 781.614 272.615 781.263 264.605 780.548C239.148 778.288 224.019 770.525 219.663 757.48C214.71 742.656 224.979 723.194 249.371 701.215C250.073 700.583 250.987 700.231 251.947 700.231H251.982C255.799 700.231 334.617 700.688 347.662 735.958C351.784 747.117 350.941 756.614 345.156 764.166C336.409 775.607 316.163 781.602 287.181 781.602L287.17 781.614ZM253.399 707.936C232.544 727.012 223.164 743.71 226.947 755.045C230.202 764.787 243.457 770.958 265.284 772.902C303.083 776.263 329.969 771.38 339.044 759.518C343.177 754.108 343.634 747.281 340.437 738.639C330.074 710.595 264.113 708.159 253.399 707.948V707.936Z" fill="#232323"/>
<path d="M457.056 704.075C499.621 742.436 497.256 772.003 444.047 776.722C390.838 781.453 352.653 770.575 364.948 737.296C377.243 704.017 457.045 704.075 457.045 704.075H457.056Z" fill="#FF814A"/>
<path d="M421.822 781.613C392.828 781.613 372.594 775.618 363.847 764.177C358.062 756.613 357.219 747.128 361.341 735.969C374.374 700.687 453.192 700.242 457.021 700.242H457.056C458.005 700.242 458.918 700.594 459.632 701.226C484.024 723.205 494.293 742.666 489.34 757.491C484.984 770.536 469.867 778.299 444.398 780.559C436.389 781.273 428.859 781.625 421.833 781.625L421.822 781.613ZM455.592 707.935C444.89 708.146 378.917 710.582 368.554 738.627C365.357 747.268 365.814 754.107 369.948 759.505C379.023 771.379 405.908 776.25 443.707 772.889C465.534 770.945 478.789 764.774 482.045 755.032C485.839 743.697 476.447 726.999 455.592 707.924V707.935Z" fill="#232323"/>
<path d="M218.114 461.089C130.666 517.085 76.2038 710.833 206.591 605.575C336.979 500.316 218.114 461.089 218.114 461.089Z" fill="#F4D93B"/>
<path d="M147.917 640.208C144.486 640.208 141.395 639.623 138.631 638.44C133.174 636.098 126.406 630.231 125.188 615.524C121.746 573.861 163.83 491.261 216.032 457.841C217.004 457.22 218.21 457.068 219.311 457.431C221.138 458.04 264.206 472.642 270.717 508.392C276.021 537.514 255.26 571.226 208.995 608.568C182.917 629.622 162.437 640.22 147.905 640.22L147.917 640.208ZM218.597 465.347C167.109 499.457 129.954 579.751 132.858 614.892C133.584 623.639 136.547 629.177 141.664 631.379C148.21 634.178 165.048 634.178 204.182 602.585C248.082 567.139 267.93 535.921 263.176 509.774C258.152 482.174 226.337 468.333 218.608 465.359L218.597 465.347Z" fill="#232323"/>
<path d="M493.992 461.088C581.44 517.084 635.901 710.833 505.514 605.574C375.126 500.315 493.992 461.088 493.992 461.088Z" fill="#F2BA3D"/>
<path d="M564.179 640.21C549.647 640.21 529.179 629.613 503.09 608.559C456.825 571.216 436.063 537.516 441.368 508.382C447.878 472.632 490.947 458.03 492.773 457.421C493.874 457.058 495.08 457.211 496.052 457.831C548.254 491.251 590.339 573.851 586.896 615.514C585.678 630.222 578.922 636.088 573.453 638.43C570.69 639.613 567.598 640.198 564.167 640.198L564.179 640.21ZM493.511 465.349C485.771 468.347 453.932 482.234 448.932 509.799C444.19 535.935 464.038 567.153 507.926 602.587C547.06 634.168 563.886 634.191 570.444 631.381C575.561 629.191 578.524 623.641 579.25 614.894C582.154 579.753 544.999 499.459 493.511 465.349Z" fill="#232323"/>
<path d="M355.225 748.712V748.642C287.672 746.733 204.603 735.843 182.531 666.51C171.781 629.952 177.05 585.654 187.097 547.926C195.119 520.829 206.524 495.033 208.339 466.484L208.362 466.262C209.44 454.47 209.756 442.363 210.903 430.477C213.269 402.058 221.981 372.479 237.672 350.149C262.426 312.092 310.002 292.689 355.225 291.026V290.933C355.67 290.933 356.127 290.968 356.572 290.979C357.017 290.968 357.474 290.944 357.919 290.933V291.026C403.141 292.689 450.718 312.104 475.472 350.149C491.163 372.479 499.875 402.058 502.241 430.477C503.388 442.363 503.704 454.47 504.782 466.262L504.805 466.484C506.62 495.033 518.025 520.829 526.047 547.926C536.093 585.654 541.363 629.952 530.613 666.51C508.541 735.843 425.472 746.733 357.919 748.642V748.712H355.225Z" fill="#F4D93B"/>
<mask id="mask0" style="mask-type:alpha" maskUnits="userSpaceOnUse" x="176" y="290" width="361" height="459">
<path d="M355.226 748.711V748.641C287.673 746.732 204.604 735.842 182.532 666.509C171.782 629.951 177.051 585.653 187.098 547.925C195.12 520.828 206.525 495.032 208.34 466.484L208.363 466.261C209.44 454.469 209.757 442.362 210.904 430.476C213.27 402.057 221.982 372.478 237.673 350.148C262.427 312.091 310.003 292.688 355.226 291.025V290.932C355.671 290.932 356.128 290.967 356.573 290.978C357.018 290.967 357.475 290.943 357.92 290.932V291.025C403.142 292.688 450.719 312.103 475.473 350.148C491.164 372.478 499.876 402.057 502.242 430.476C503.389 442.362 503.705 454.469 504.783 466.261L504.806 466.484C506.621 495.032 518.026 520.828 526.048 547.925C536.094 585.653 541.364 629.951 530.614 666.509C508.542 735.842 425.473 746.732 357.92 748.641V748.711H355.226Z" fill="#F4D93B"/>
</mask>
<g mask="url(#mask0)">
<path d="M480.566 439.403C474.62 340.414 430.391 323.07 398.303 302.505C366.215 281.939 391.117 271.283 391.117 271.283C404.911 263.52 437.18 247.026 455.912 243.161C479.327 238.329 482.92 238.949 487.009 238.949C490.279 238.949 535.945 244.978 558.37 247.993C577.366 267.567 616.796 308.749 622.545 316.876C629.731 327.035 660.951 456.624 671.11 481.774C681.269 506.924 662.686 619.664 648.934 659.805C635.182 699.945 519.15 732.335 522.565 704.033C538.051 575.683 484.139 498.878 480.566 439.403Z" fill="#F2BA3D"/>
<path d="M303.899 310.929C224.361 334.095 217.919 432.094 211.105 471.243L203.176 477.066C193.719 483.715 173.021 494.807 165.884 485.986C156.964 474.96 86.223 358.874 75.0728 306.469C63.9227 254.063 76.6834 280.823 99.6031 271.903C122.523 262.983 311.332 242.293 314.182 241.798C316.461 241.401 339.125 259.183 349.119 266.947C350.44 279.583 344.898 298.987 303.899 310.929Z" fill="white"/>
</g>
<path opacity="0.32" d="M514.959 660.228C512.487 684.374 507.326 702.795 487.256 723.237C481.454 725.584 464.907 733.258 457.894 735.006C417.935 743.992 380.5 744.99 365.272 744.42C365.272 744.42 297.724 746.454 250.129 735.749C244.176 734.264 243.059 731.978 237.988 730.05C235.802 728.183 228.895 724.043 227.352 725.602L227.209 725.467C182.852 681.203 195.597 595.238 264.02 566.606C286.321 557.372 313.406 553.419 337.699 551.447C370.561 548.904 400.463 551.184 430.508 556.667C478.523 565.519 519.138 597.091 514.959 660.235V660.228Z" fill="#FFF4C5"/>
<path d="M320.396 312.608C328.968 263.895 356.93 253.134 361.239 283.228C361.239 283.228 372.059 259.703 400.315 266.436C428.57 273.181 404.214 319.762 354.799 315.441" fill="#F4D93B"/>
<mask id="mask1" style="mask-type:alpha" maskUnits="userSpaceOnUse" x="320" y="265" width="93" height="51">
<path d="M320.396 312.608C328.968 263.895 356.931 253.134 361.24 283.228C361.24 283.228 372.06 259.703 400.315 266.436C428.571 273.181 404.215 319.762 354.8 315.441" fill="#F4D93B"/>
</mask>
<g mask="url(#mask1)">
<path d="M348.251 275.989C339.95 275.989 330.576 292.838 325.703 302.006C324.133 305.764 322.333 307.953 319.26 302.006C315.42 294.573 313.809 280.077 314.924 256.91C316.039 233.742 314.8 252.202 321.738 248.733C327.288 245.958 339.413 243.778 344.782 243.034C350.935 245.099 363.365 249.328 363.861 249.724C364.48 250.22 361.383 284.661 359.772 285.776C358.162 286.891 353.206 275.989 348.251 275.989Z" fill="white"/>
</g>
<path d="M329.937 419.201C354.879 404.072 367.303 403.123 392.654 419.727C398.567 423.568 396.671 429.482 391.53 431.554C379.235 436.519 344.41 436.87 330.639 432.14C324.258 429.891 323.134 423.334 329.925 419.189L329.937 419.201Z" fill="#FF814A"/>
<path d="M328.357 416.599C337.233 411.47 347.092 406.388 357.561 405.171C368.322 403.929 379.037 408.262 388.053 413.367C389.962 414.386 391.777 415.545 393.627 416.646C396.074 418.051 398.287 420.077 399.201 422.922C400.781 427.677 397.596 432.735 393.229 434.585C391.472 435.393 389.072 436.072 387.186 436.576C372.327 440.218 340.687 441.061 327.069 434.175C319.563 429.574 321.155 420.522 328.345 416.611L328.357 416.599ZM331.519 421.81C328.275 423.801 327.092 427.173 331.261 428.742C338.416 430.944 346.074 431.236 353.767 431.552C364.399 431.81 375.137 431.634 385.594 429.62L387.866 429.093L389.985 428.426L390.243 428.344L390.43 428.262C394.201 426.564 393.545 423.859 390.231 421.915C388.51 420.791 386.788 419.585 385.02 418.555C363.919 405.276 351.425 409.105 331.519 421.81Z" fill="#232323"/>
<path d="M277.947 405.775C278.415 404.885 278.954 404.065 279.539 403.234C280.066 402.403 280.722 401.642 281.307 400.81C281.963 400.037 282.666 399.276 283.38 398.503C284.153 397.789 284.855 397.028 285.687 396.372C286.518 395.716 287.338 395.014 288.345 394.475C289.235 393.89 290.3 393.351 291.296 392.883C293.427 391.993 295.734 391.407 298.157 391.29C300.581 391.173 303.005 391.583 305.195 392.414C307.385 393.246 309.387 394.428 311.108 395.787C312.818 397.145 314.305 398.738 315.605 400.4C316.261 401.232 316.846 402.11 317.373 403C317.607 403.468 317.9 403.89 318.146 404.358L318.497 405.072C318.614 405.307 318.731 405.541 318.849 405.845C319.504 407.262 318.849 408.984 317.373 409.569C316.308 410.037 315.183 409.803 314.364 409.101L313.895 408.691C313.778 408.632 313.661 408.398 313.485 408.281L313.076 407.813C312.783 407.52 312.49 407.157 312.186 406.864C311.6 406.279 310.944 405.681 310.359 405.096C309.773 404.51 309.118 403.972 308.462 403.503C308.169 403.269 307.806 402.976 307.514 402.789L307.045 402.438L306.577 402.145C303.919 400.435 301.202 399.428 298.474 399.428C297.115 399.428 295.698 399.663 294.282 400.143C293.567 400.435 292.865 400.67 292.15 401.033C291.799 401.208 291.436 401.325 291.085 401.56L290.019 402.215C289.668 402.391 289.305 402.684 288.954 402.93C288.602 403.164 288.239 403.398 287.888 403.644L285.815 405.236L283.801 406.946C283.146 407.532 282.502 408.187 281.787 408.784L281.67 408.902C280.663 409.792 279.129 409.674 278.298 408.667C277.525 407.836 277.466 406.712 277.947 405.834V405.775Z" fill="#232323"/>
<path d="M401.073 405.719C401.542 404.829 402.08 404.009 402.666 403.178C403.251 402.347 403.849 401.527 404.493 400.754C405.148 399.981 405.851 399.22 406.565 398.447C406.917 398.096 407.338 397.733 407.689 397.382C408.099 397.03 408.462 396.667 408.872 396.316C409.704 395.66 410.582 394.958 411.53 394.419C412.42 393.834 413.486 393.354 414.481 392.827C416.612 391.937 418.919 391.351 421.343 391.293C423.767 391.234 426.191 391.644 428.38 392.534C430.57 393.365 432.514 394.606 434.177 396.023C435.84 397.44 437.315 399.033 438.498 400.695C439.083 401.585 439.68 402.405 440.149 403.295C440.383 403.763 440.617 404.185 440.863 404.653C441.109 405.122 441.273 405.543 441.519 406.129C441.987 407.311 441.402 408.611 440.219 409.08C439.329 409.431 438.392 409.197 437.795 408.553L437.561 408.319C437.327 408.084 436.975 407.733 436.671 407.37C436.378 407.077 436.085 406.714 435.781 406.422C435.125 405.836 434.54 405.18 433.884 404.653C432.584 403.529 431.284 402.464 429.926 401.644C427.21 399.934 424.364 398.986 421.647 399.162C420.289 399.22 418.872 399.513 417.455 400.051C416.038 400.578 414.622 401.351 413.263 402.241C410.488 404.009 407.83 406.375 405.043 408.857L404.985 408.916C403.919 409.864 402.326 409.747 401.378 408.682C400.664 407.792 400.605 406.609 401.085 405.731L401.073 405.719Z" fill="#232323"/>
</g>
<defs>
<clipPath id="clip0">
<rect width="462.112" height="531" fill="white" transform="translate(125 261)"/>
</clipPath>
</defs>
</svg>
